<mxfile host="65bd71144e" modified="2021-01-05T19:24:14.241Z" agent="5.0 (X11; Linux x86_64) AppleWebKit/537.36 (KHTML, like Gecko) Code/1.52.1 Chrome/83.0.4103.122 Electron/9.3.5 Safari/537.36" etag="S4raKPzLAeBkN3ssY80h" version="13.10.0" type="embed">
    <diagram id="BP1-f_Ebzh81IlfC2M3L" name="Page-1">
        <mxGraphModel dx="1727" dy="970" grid="1" gridSize="10" guides="1" tooltips="1" connect="1" arrows="1" fold="1" page="1" pageScale="1" pageWidth="850" pageHeight="1100" math="0" shadow="0">
            <root>
                <mxCell id="0"/>
                <mxCell id="1" parent="0"/>
                <mxCell id="9" value="" style="group" vertex="1" connectable="0" parent="1">
                    <mxGeometry x="440" y="540" width="380" height="220" as="geometry"/>
                </mxCell>
                <mxCell id="2" value="pod" style="rounded=0;whiteSpace=wrap;html=1;verticalAlign=top;" parent="9" vertex="1">
                    <mxGeometry width="380" height="220" as="geometry"/>
                </mxCell>
                <mxCell id="3" value="Ngninx" style="rounded=1;whiteSpace=wrap;html=1;" parent="9" vertex="1">
                    <mxGeometry x="20" y="20" width="80" height="180" as="geometry"/>
                </mxCell>
                <mxCell id="4" value="Periscopai backend" style="rounded=1;whiteSpace=wrap;html=1;verticalAlign=top;" parent="9" vertex="1">
                    <mxGeometry x="120" y="20" width="230" height="180" as="geometry"/>
                </mxCell>
                <mxCell id="5" value="" style="shape=image;verticalLabelPosition=bottom;labelBackgroundColor=#ffffff;verticalAlign=top;aspect=fixed;imageAspect=0;image=data:image/png,iVBORw0KGgoAAAANSUhEUgAAAMAAAABVCAIAAACQFXygAAAapklEQVR4Ae1diV8T1/Z//1GVJaEqQkIWEEFZXepSihsoKhWs+p7VLlbr1uW1aqviilhrrVgEAbOQhbBkIQRIAiibkARCdsie+X3uDAzDTVijr7G/4cOHz5l771ly7nfOPXPunfAvVRyb/CU9sGwP/GvZnCQj6QFVHJsEEBmAw/IACaCw3EcGIRJAJIDC8gAJoLDcR0YgEkAkgMLyAAmgsNxHRiASQCSAwvIACaCw3EdGIBJAJIDC8sA/H0CvC0peF5T0l57WZOwgA8Zb98A/GUAj311FCD92mfKtu48UuCgAdTIysft45PJVw/W72C/WEskeHPz1DgE/iEmqiGRr31PbFgCQU9tLnIOQtJUvHvryQgR+fhJA/4NJWQhAI7qQoAludGp7e7YX/A8sXrwKEkCL99WyRy4AIJNUAWHFqulxzoEqv83eychctilvnZEE0Ft3abDApQGo+1pZ3cq1NSviqz5Y03byTDCSTFV1wTr+rpZIAFDP9oJIC8xvdzqWBqDBX+/g6iUxSS/jU7x2OxSiIicI/b0A6tle4JApEQQxVtXiTvvnEcsHkCqOraSyui78CAGot6AkQtz0NwLodWGp3zZ1a/X/cjtCHPIuzAgLQKo4dtvWPRCABi9feReGLkPm3wWgoa8uEn1CDNvL+BQRzhIugGQUJtFZCILM76+e7QXGiicOmRK7Qf02u0OmNFY8WVKi0F96OqSQ14WlRHcvEkBYqcIzorfyxSHN0GTsMFy/i9uMjZyrcgGhB0EQi1SBF88wYuDoaaKd7zUdLoB6thdAAGrfUxzSI3hOAI3HL6188YL508DR054RPc4STDi1vfiWxWIAZKqqJQrpDypoGa7fJQ4g0p4RPQS4YPQQx+P0QMQE6ZAztaTGcAHU/+UF3C8YoaBvDLaAmBNA44mXfpsdmhKiKGPFE+LguWgFlYlxLQggaL71PKEkJgnX2MnIXLCOSjRYk7FjLpOI7V67XZa2FdfyvhNhAaiTkekanlVp7L5WpqSyIKf0bC/wTWeUmCvHpYrua2Xd18r0PCHRuQiCuEd0IeOQ8eGf0EgEQbx2+7hUQawm9JU/wrXPDyAodlo1PYKEVJxXFce28MVEjQBe+UWS/CLI5kltL8bVnpQxVFkd/FiKC7FqesalClnxCRziRHXvKb18AGkydkA3qFXTI4ymBTvCPbvwOFRZXb8yQRhNE0bTOFEJbSfP4C7GiOBi0sDR09CYcalCkJtXvSK+fmUCVpeSFh+XFh9vIBgwD4A0GTvwpyQMiMLUXCL0IY3d18o4UQmtFEYrhcGJShifXV/FchollcWPSqxeEQ+ZKskvqvpgTdUHa+pWrq1fmdAcOxPkgn313rUsDUCuYZ1DpnTIlMGJyFBlNXftuuDPDy0TzhEdPyqROEwSkzRUWQ05HQpCEAT1PGH9ygQZZWqpwqQ1xyZBczMXgDoZmZOEPT6v3S7alAdFBZu0DTfJa7c3JqYRbVZ++m+8F0GQsdmVHmIXgiCafUeIvP8wemkAglyDXTpHdNLi4/yoROIdjLvJoe0hcvWX/4534UTrll3EMQiCDH15Ee+FgoHXbofWGnwkRMwFIChxlhWfgLAIrW7jUgX00To+2ks02CxtI6omdpEAgvfCIO+A+G+zy+gbiB7E6U5GJjReuecw3osTMgqTmMeAe/qvmert2OwHpTfPaqDpxOVAREgAQblU28kzUNxSxbGHLl8hmj1cWY2dXcH/jsx7UITISwJoFoCGKqs7z/8YvOLYZbNuQXwiewtKFulNaNeWeE87NLNj2KILu8EAgtbT7mtlxMcu3OzRv15AZs9/CZ00ggaTS9iMQ/p/uS2OofOjEjvPwzsYI99dxScAJzT7jswwo1TnR3vxXiIBAYg4JZCEuepMRGkYDQEo+Plo+MHjYC5VHNtMSIAg7cGXep5QlLqJKAcaQwJoxiF4lVkcQ7fODgw+mx2v4OHeDAZQ9xwZ5eIBNHL9Li5/fgIC0LhUAT09IQgCFa8xgZAxzhEdxov/Haqs7r5W1nbyDHddDicqAUrAZ/yFUiSAZhyCA0gVx27ddXCmA6UsfDE0o8EAmsub0JyNPKvBRUGRw/DXC7xrfgICkEmqEKVugmwOWXYaeVZDHNZ77Vb9ygTiLz8qURhNk8QkQdDB7CHykjnQrBxoFoAojAVvaAV9I+RNQ8UfIWfdO7vSqDl1Dh8GafEt+thaMIAUVGbw4mua/RCuimP3/3KbaLZrWIcbsxiCyEsCaE4AqeLY0t2HIGe5R2b5WkllQdPvDDUZ0GMzgiDy9Jliv/bifyEtwVMecl6DAaSKY4tj6FApGVQNvpqpGqji2O17iiGNITO8kEpVcWyYd9Fr7lwCI7l9aXUgYgQCqxiFEfxEZrhxj/iBO0+dhR0alG5b+CLimKHKauLSIEvbSuzF6Ll2Xol5WEgAqeLYgoRUqGrgm70H10phQAMQBDHMgYP+UnhrHcoOXcOhN2eIXnp/6QUABK0sEIBUceym9ZuhHAUEbcIrfJKYJMih2GRgteZORiZU1vPa7U3rNxMdqqAy+8ofBWMIQRArX4yflDBV1Tq1vR6dHuedC0BKKku86RNI4KS2l1j+VgcdlEMQxG+zm6pqcY34AQ9cI0ZA+RyCIHZZW3/p6dcFJSOXrzpkypCZOyTkfblcAECQl4MBpKAye66VQcOgspAwNTcYZAiCBO+HIAgScq9RnJgWjEJIKXY5TMi+5wKQKo4tozCD9+CIDwEhV7qQGocqq6HJDg66EONcTxKQnPfiMlwAqeLYwmgalOiAGENYyBRUpmhT3oII8Nrtkvyi4LowdnaWu3ZdcO4CTQyCIMToNQ+AVHHskHtwRLMFCanBCzSkMTheYpLn+bBeu72VwngvwLEYI5cGoK4jJ0MK5a9NDZ5d4rk7GYXJXbuu+1pZcG6BbYaD9z3iU+bxrJLK4kQlSPKLgsGKTSq2JUdMniAAjfKEkPH8qMRgiOAHkrDddWnx8Xk0Bu/CYiq4a9eF5BqXKkSb8iAz3uvLBQCEnYDB/lZ9sCZkeMAiBCcqgbsuBx8vyM2DBiupLGE0rWZFvCA3r+3kGew8UNvJM9ipDGE0bTE7XK0URv3KhBdrkiX5RZgErKAnyM2rWREPaWxJ24Lb82JNMicqIXiq+FGJgtw8fFjVB2ugjdXm2KRgjdLi49x1OTUr4qHBuHwllVW/Ejik8/yP+CflrssJPkSAs0BEO5WloDIVVKacwpRRmK0URnNsUkssg3iHQCx/y+UCAMJOwGB/F7RPQQWfE/udy7NY/iGJScLOA0likuYZOZdGJZXVSmFgErCCXkghRHvmQSc2PfN/Rkhjc2zoEiJksILKFMfQ8U+6yLlXUJmCaBo/KpETTXsZQ2tYk8JZxa5ZuZZHSxOuy+XG0NqZWYsUBdnzLi4XANC7UEnKnN8DUgqDl5DKY2Z0nfxGe+bSq0s/D5TdH378TP/nc6u83dgg1j16qty8S8nImF/O/6aXBFBYX6/0LiapncqSMzLNkla3YcxrtfmdroDXS0zefTa7W2fou/iTdvdhOYXZTmW1UVlK9FdOAUuenDK19impLGwpxAJwO3r5dm0mARRxAAIlfgqj53O4AEvEEIIgPrvDJGrq/eZyc9JGIZXJjUrkRCVwKEkcKoO/it2QsJ7zIathFVu4OplPSRKvYjdE00Qx9FYKoyWWgcGuPej0+jKwRQIoEgEEJjJzp2HBY0k+n9/l1ldWa89ckh86pjjyn97vrw7cKu+7Wqb745mhur7/2q2+n28M3al49d2Vts9Ot392Wr63uCl7Z3PqJk5UQiOV2RrHlqMng5cNJhJAkQqgOPbrry443wxDgSfkpdsw5hk3BVwur8Xqn3Qifr/f40F8Pr/bHfB6fROT4K0Yv99jNE32DTgH35hbFQMPHvddLZNv3yfbsquJlt4cm4SFpaUGIRJAEQqgdiqrKTZJv2AQCgmo+RsDAcTnRxAk4PW59aOTA0Nv7j/qPvtdS9aOtuScllhQ5Fx8QIo4AGHpnoLKbENX6Da0HIJlfwoqE+vFGrH6E7ERY1HOZiHKmYcFyzexAZgWLC3FvBnc244mrZij8ZEYgVkLNUJyFnOjyynMjrwDE13a+fHwVno9JrO9Qz1Wz1ftL+3IBu+oYE5Y0M7IAlAblcWPTuSBEghICbHEkBtD50Ylgt9pAmSLaC/aSMN6ZzdOsXDQV8+mEsxoVEiQHF4U0CiMTRJE0wTRNGEMHSOItAjtbUDfZRNG0xrQkVgjGIZeYlx4I04QB4hiQQEMSzsWnBsphdHIzhr57U97h9qh6fFarF6LdflwCQQW5PU7XT6Hw8gVvv7mu1baBlX8rDctQxocQQBqp7JaYhkvVq5t2LC166sL6m8uq06f6zpzSXv+R9Xpcx1ffKu98GPX1xdVp8+pz36n+fYH0PvVhe6L/+388jzoPf+j+izK8vVF7YUfO774dorlzCWU5TImp/PL8ziL+tz3mnPfY3LUX1+UH/xMtr9EcaBUVnBEVnRUXojSB0rl+0unGg+UygtL5IUlsgOlssKStqKjssIS2f4S+f4SecERtPGI4kCp/EApJke+Hx1ZcAQj5PtL21Cx3Qc+680rCjkfeKOSyhJE0+pWsTWnvx19wTHyRY7uXo/RtCAI8AE+uyPgdNk71DZpm02h8hhN/olJZBEwQnw+n8Mx+vT569PfdjKzcJNCEhEEIBX6RCBJTLM0trgNYz6rDTys2uwgMXS5/U6nx2zx2R1IIIDdiyA9dEx4zRbfxGTA6/VarIAlEPDZHR6zJeBy+Z0uwIKedfRZbV6LNeDx+CedgMUxgfj8U/e03+9zODxGk89q801MuoZ1bsMYeMnaMOYa1oEM1GpzvhlxG8cRn9+tN7h0hoDH4xk3uYZHPGaL3+l0Duvc+lHAMmZ0vhnxORw+uwOwjBmRQACwjOj9TpfXbHENj3hNZr/bPXqrois5N+SUYI1NsUk1MTTZx4VmcXPA7UECgYDHg4NjQcKh7Xlz92HX4ROqnYXy5Jz2zbt6jn0xcO4HZ//g4sOYXdU1+qSqa92s0zWQzZEFIFUcu5Odo79S5h4a9o4avWPjXuO4Rz/qNU4TJjNoHDV6DGOAGDd5dAbvuMk7hg7DWEzmGZbp3qkBmMDpRiBkdEqOW2cAWsbGgUAjqsKI0igL6J1WjbNMjcRUjwFer8k81YjxTrMAe4jWjo6Zn9d30uCX6VopjMYYuiiGLolNAvsYHzL1T+F3dheEDjh+1KFuLzgCtgLjU1sS01tpG6T0jXJGZhs7W51/0NIsA09qi/tx6Qx2ZYdmwzYIN/hlxAFIFcfu3ryr+6O9r3Yd7i/+T8/u4q6te9QHj6kPHuvcsltdUKI+fKIr/6Bm537t4RPawlL15l3a/Ue1h09odhRq8g9qDh3X7v1UvSlfU3RMe/CYZvNuzd5PQe+uQ9rtBdpDxzX7S9W5+ZrCEtC4c78m74Dm0HFNQYk6N19b9Blg+WivZvdh0Lv7sHrrHu3BY9qiz4DAfUfAyLwiTLWmELBo9pcCmdv2aXcdAr17ijVbdmuKjmmKjgHD9n4KGvMPalDV2v1H1ZvytYWl2sMnVKxs2eqUlliwdSingCeGNiqLh75aL9mc35y9U5K6Sf3N5cm+gcVN9Mwo5+AbVWFJc0qOeHUKBCAFM0uRnNOxvxSLlzM881IBr9ej02s2bsdBQyQiEUDAvg+TMSulVCYnOpHLzOAnZzVvzhdlbOOn5kpyPm7KzeMxMwTsLHFKDj9pA5eeLkrOFrAyufT0BmaGOCWHm7ieS0sTp+RgjUJ2lig5m0NL49HTxSk5DYyNXHq6kJ0lZGcBFsZGcUoOj5aGycEaBaxMUXI2l5bGQ+U0MDMwFtBIT+cnbQAs9HQuLU2UnD0lB1eduB5oQVmm5EyzYNYC1Zi1jI1NyTlSWnonPYMXlSgrOuroeeXoee3Q9DjfjCB+8Ly9pB+bsqM1J0+0KjkkgJTsbGlO3psHj5e0IILVeWBIHWoti1QATf8zcimFIaSlv770s0PTY5W32zvUE6/6bMoOW5vKruk2NbWO1nJN4mZLq3ysnm/kCCxSxThfPFbHMzfLLC3ysTqekS+ySBVGrnCsnm9plZvEzaO13HGhxCJVjL3kGzkNgEXQOFrLNUtaLS3y0TqekSe0SNuMPOFoHc/SKjc3SQFLg9jcKjdyGsbqQaNJ1ISpNrfIcNVGvmisjmdpkZubZWN1vHG+GKjmCDDVZky1qAm1ljf2ssHcKh9vEI/Vcm3i5sFT3woS1ytPfAnyszB+9NX1kuTskABqY2VJU3Kb0rf2X7/rd7uXpMSp6eneuocYezA60gGkpLLkFKaxsgbx+UD5y+cDO4uA8Ae8XnAb+fwBjwekmWgvSLexRjfa6AfD/C5QkAUj3R7gOJ9vmsUHyrUuNyrHF0BZAqiKKRY/YMGEgwTcBXgBu9uDsYBSL6oa04IFDCDB5wPPO35gJyCw2p0fpUM1Bny+sSdVwmhaz5lLnvElPGoFg8CiaG+IY4YCUIacnd28Lle2o8AkaV1SBHL1D/WXnOqkh9j/jzgAtaGIkVIY+K8sIa3n0//oH/45cuOeofyx4fdK3a0HulsPDL9X6h/8obt531Dxh+H3ypGyct3tCtB4/3cw8ren+t8Ai/7eI8PjZ/q7v+nKyvWPnuorAMvogz/AgLJyfVm54dHT0fLHuut3DRVPRh891d+8b7jzcPT3SsOdh/qb90cfPTVUPAG99383PHpquPVAf7Pc8NtTQ/lj/Y17hoo/UJZy/e0KIOfhE1PNSzNPZOaJxqvrLRyBmS8y1/HMNRwzT2jiCMar680cgZknNL/gWF5wrTyRlSMwP6+31PEGTnzdnpj++rMvXH2DAZc74HL5LFZwMyzxxz1u6rt5X7A6WbRmOgeib5AmbWxiZkqSsxuzd2pOnYO+bmB+Da6+wf6SU12s7ODwE3H/N74dPSlWsyKeH5/SQE9/viKen5gmYGZwElK59PTGjG2ClJyamERx+pbGDR/VfshsYGVKMrfzmRl1q9mNGz4Sp2+pjk4UpOQ0Zmzj0tI4CamSjO3CdbnVUQnitM2NG7fVr0nmMzY2ZmxrYGXWxzFE7CwRK7M2li6gownN2lTOarY4OVvI2PgiOlHI2ChOzuasZvPWpoJcir6hNoYmZmeJ2Fl1VAYfTYz4ietffsgELMyMF9GJgqQNTVk7eGi605S1Q7x+84tYeuOGrZKM7S/jUwTsrObsnYLkbP6alM7MHep1mzvWpHYl56rXb+mkb+xITFfFsbXZeb2fHBw4/tXg5+deHT4x+XrJSTR4WaVL23PlZs1qdgMzg5e4XkDf0MDMAG7Zkt9x9JS5WTY/YvDegNvj1PS82ndknmpQZEWgdipLFEMXJWf3fX/N8LxOX10P/j6tNtS8NNS81FdWj1bX62teGv56YXhWAxqr63VPnxuq6wH9rMZQVTvFUjnDoq+qBb3P6wyVNaC35iXGoqus7r9a1n+1bPDuw8Gb9/t+ujF4+8HgnYr+n28O/Hpn6O7Dget3+3++CRpvV4Dem/eH7v3Wf+0WxjJQdr//5xuDt8qH7j7sv3Jz4JfbgOXG3b6fwO43xjJw497Qvd8Gfrndf+UmaLxVDljKyt/crhg6+/2cL/esnvqerrZVyZpdh9zzfqkoPtkQMTmiH2ts7jz/Q0vxibZjXyiOft5x6uwYX+QgfLMWxAJdul71WzmCrpRc1eqUkLEnEnMg7PRT18cH/I6JqRwCSyD8fpBP4DRWTsUa8b9gexBNO/BhC7KgCQ0xB8KyHJBdTaVNU4nRVNo0nQOBTAvd6Pa73SgLmpCh6RfgxXIpNEWbluMnsgRcbp/VNvTF+Y6EWV98FjxPnSmbBj8/59YbQO619B+vze61OybfjLh0eq9jAjqYFlIeNsbygvvm60udSSGSHsjIyIpAYMcxjq1O2zp656FN1OzU9NgbW6080UR7l0PebuWJ7E3SSXW3TdhkbWicVHc7WhVWnsjRqphUd1sbGm3Cpkl1t12CsrSpJpSdVr7Y1tji1PTYRM2ApVPjkCmBnBb5ZJfWJmi0CSWApUkK5MiVkx1qIEcMVNsaW6x88UR714RCRVAtsQkaJ7u0jhY5YJG2TXZqAAvRWmXHhLIDsDS2zljbpZ2ytkU+qe42/VU7ePIsNBkhL6VpW5TFJ0wtMpuywzk0jD4NLAdMIeFCbAw4XT6rzVLHGz73A1hS49eHtAdqjDgAAftWpXQyMrtSctWpW0CKkLKpKyW3i50DCHaOet1m0JWyCVyysvG/2DDQi7Ek52LDwGXqFpgFlTbDMi18Fsv8qjEW1IAZObjqaSKEtdOqoZkIeYm+hbK2mkLXv+QbqmrNzVJHb9+SHqCIEAlBY+c6XK6JNpX5ed2rfUe6t4R4Vg9pG9YYkQCaLgLNY/f/h652KkscQ6+OTnj9y22vyQwWR6938bsQIeCCNaGLvs9kcQ++cfUPGW7cf/PNd13o/bYMr5IAitADZdj7T7VRCZLM7cbZXz4xFzJAvgWKUlMLXMAFSoUBlxvsFZrMnmGdU9Mz0d5lelptuHFv5NKVnh2F2pxPlgEaIgsJoAgFkJLKksQk1ayI1wZ9m2BIAFlquaO3K0YuX9Vfuz1aVm64flf30w3dD78OX/ipr/jf4OtBi45psz4Gqy07RzX9oEeEwvJoEkARCqB29N1WyeZ8I0+IB5UQ0EEfSA037vd+clAVx+5ISMPqSR3x6zvpG7EtxY41qfje4vJQMg8XCaAIBVBzbFLdyrVth4/Pc3zHb7N7hnWDJ8/Of7RonukPv4sEUIQCCJwKT8owCyVYKhMcezwGcKjo9f6j4YMgHAkkgCIUQKo4tmbDtoGjp02VNabKGkstF1StBI1gB40rtLxsGDp9vmfbvnDm/q3wkgCKXAC9lQl+10JIAJEACssDJIDCct+7vr8jXz4JIBJAYXmABFBY7ov8CPGuLSQBRAIoLA+QAArLfe/6/o58+SSASACF5QESQGG5L/IjxLu2kAQQCaCwPEACKCz3vev7O/LlkwAiARSWB0gAheW+yI8Q79pCEkAkgMLyAAmgsNz3ru/vyJf/f4ho6Jz1gCK/AAAAAElFTkSuQmCC;" parent="9" vertex="1">
                    <mxGeometry x="128.22222222222223" y="79.4" width="73.188" height="32.4" as="geometry"/>
                </mxCell>
                <mxCell id="6" value="" style="shape=image;verticalLabelPosition=bottom;labelBackgroundColor=#ffffff;verticalAlign=top;aspect=fixed;imageAspect=0;image=data:image/png,iVBORw0KGgoAAAANSUhEUgAAAxMAAACkCAIAAABjH+RXAAAgAElEQVR4Ae2dC1hTR/r/2VXrBYipNG0VBEWRFWpLRSQVrbZaL8VqW3H7k/pzbW3oz+1aun+z1trYG1ut3MKlFUEtoBZU8IbUigVNvaExWBTlqoggQUAItwRynf+Ds3s8TUg45ISQxDcPj8+cOfO+M+9nJjlfZ+acY4fgAwSAABAAAkAACAABIECNgB21YnpL5ebmhoWFBQUF+fj4sFisIUOG2MEHCAABIAAEgAAQAAKWQWDIkCEsFsvHxycoKCgsLCw3N1evpqF2wkjllJWVFRwcbG9vHxAQsGHDhvT09IKCgvr6eoVCQa1eKAUEgAAQAAJAAAgAgX4noFAo6uvrCwoK0tPTN2zYEBAQYG9vHxwcnJWVZVzdfVZOO3bs8PLyCggISEhIqK+vN65WsAICQAAIAAEgAASAwIAQqK+vT0hICAgI8PLy2rFjR1/b0AfllJWV5ePjExgYmJeX19dqoDwQAAJAAAgAASAABCyKQF5eXmBgoI+PT5/mn6gqp7Vr13p4eGRmZlpUzNAYIAAEgAAQAAJAAAjQIZCZmenh4bF27VqKTnpXTsXFxX5+fiEhIXK5nKJTKAYEgAAQAAJAAAgAAWshoFAoQkJC/Pz8iouLe21zL8rp7NmzLBYrNja2V0dQAAgAASAABIAAEAAC1ksgNjaWxWKdPXvWcAiGlNPZs2ft7e3T09MNu4CzQAAIAAEgAASAABCwAQLp6en29vaGxZNe5VRcXMxisUA22cA4gBCAABAAAkAACAABigTS09NZLJaBZTu9ysnPzw8W6ShShmJAAAgAASAABICAzRCIjY318/PTF07Pymnt2rUhISH6bCAfCAABIAAEgAAQAAI2TCAkJETf3XY9KKesrCwPDw94GrgND4ju0NRq1NWFWltRWRm6cwe1tyOFojuT/MFlGhqQUKh9ilwM0kAACAABIAAEbIuAQqHw8PDo8TlPPSgnHx8feG6TbQ2AP0ajViO5HP32G+Jy0cKF6KWX0IwZaNEi9H//h77/HuXmoooKVFeHiotRWlp3mddfR3v2gHL6I0Q4AgJAAAgAARsnkJmZ6ePjoxuktnLasWNHYGCgbjnIsR0CanW3bFq0qPtvwQL06qvd4mnaNDR1KvL1Rf7+3UIqIACx2Wj6dBQQoPnqK6RUIo3GdghAJEAACAABIAAEKBAIDAzUfT2LtnLy8vKCl6tQgGnNRTQa1NKCxGLU3IyamtCtW0ggQNHRaMmSbv3k64t8fTXTfDV+fuitN9GhQ0gms+Zooe1AAAgAASAABIwkkJeX5+XlpWX8B+WUlZUVEBCgVQIObZMAnkPSaLonk9RqpFJ173OqqNAcOSzfldSQ/EO94GdZa7O+RTq1Rt3Q0dDQ3mCbcCAqIAAEgAAQAAIPCQQEBGjtdvqDcgoODk5ISABWjycBpUrZ3PFg9+WkZT8tnZ8yd37qvMU/Lf7nL/88U3lG0iGRq+RKtVKhUkgV0psNNz/L/Wxp2tJDNw89nqwgaiAABIAAEHhMCCQkJAQHB5OD/YNysre3r6+vJ5+G9GNCQKPRlDWUrTq8aubumexdbL8kv6mJU6fumDotcRp7J3v+nvkhx0I+z/v8qzNfvXvoXfZO9oxdM77K+6pT2fmY8IEwgQAQAAJA4PEkUF9fb29vT479kXLKzc2FpToymscqrdaoKxorjpcdF9WKCusKD5cc/vjExwv3Lpy5e6Zfkp9vou/UxKm+ib7TEqdN3zl9TsqcL05/0dHV0SMijUajfvjp8SxkAgEgAASAABCwLgIBAQG5ublEmx8pp7CwsA0bNhAnIGGTBIh9TWq1Bqf1halSqxs7HlyuEab8nsLN4QYdCHp7/9sfZX+UfDW5pKFErfnjk5/+60Wj0bS3t18WXi4rK+uuAD5AAAgAASAABKycwIYNG8LCwoggHimnoKCgfnpLXWlpKY/HY7PZDAbDDj59J8BgMNhsNo/HKy0tJXrOiIRGg9rbVUVFHSdONB0+3Hjq16bCwvbGRoWuxFGpNJWVnUePNmZk1qs1apVapVQrVRqVWqNWax5qLoR0rTQajUwm+/7772NiYmg21YjowAQIAAEgAASAQH8QSE9PDwoKIjw/Uk4+Pj4FBQXECVMlQkNDGQwGl8sVCAQSicRUbh8rPxKJRCAQcLlcBoMRGhpqXOxyubqoqGPVqpLZs39nswv8/Qteeunq7Nm/L1p0/ZNPKrKyGuvru9rbVRKJMien6cMPy157rXDu3MJLl1rUarVUKr1z586NGzcq71Ter79fV1eXk5OzefPmrq6uB01NrW2tKpVKrVYrlUpxnTgyMpLP54vFYtXDj0KhUCqVCoVC0iJRKpV4LU+hUDQ1N7W0tOAcHJFGo+kuJpE0Pmjs7OzCykyj0ahUKrlcjp1IZVLCj0KhaHzQ2NHRoVKpsAe1Wi2XyxsaGwjPuDq5XK54+GlpbWlrazMOIFgBASAABIDA40mgoKCA/EjMR8qJxWKZdnt4bW0tm83mcDggmEw11CQSCYfDYbPZtbW1ffV5/XrHwoXXAgOvL11aNG9eIZtdMG2ayNe3+8/Pr4DNLggIuLp48fV58675+xf4+RXMnHk1NbVOKu0qKCgIDAx8+umnFy9ezHz4mTRp0t/+9reTOSf3799/9OhR/G9jY2N5eXlSUlJERERMTMzevXtvV96+dv3azp079+zdcyzrWPz38Q0NDXK5XCgUJicnZ2Rk7N279+DBg42NjZqHn5s3b2ZkZOzatSs2NjYhIeHq1d81Go1SqTx58mRSUlJWVtahw4fi4uJiY2NzcnIKCwv37dsXGxv7ww8/CIVChJBcLr948eLu3buPHj2anJx86NChlpZu2Xfr1q2kpKSUlJS8vNPff//9yZMn+4oOygMBIAAEgMDjTKC+vp7FYhEEHimnIUOGmPZddWw2m7wuSFQJCZoEwsLC2Gx2X53IZOqODhX+a2tTXbnS9u23VUuXFr388u9YKk2b1i2Ypk/vllBvvHH9558burqUEomEzWY/8cQTa9asuX///ttvvz148OC4uPj29vZjx479mPyjVCptaWnZsWOHWCzu6uo6evRoZGRk+v70rq4uhUKRlZUVGRm5/eFn586d9Q0NIpGIz+fv27evs7OzoaEhKioqOTlZoVCo1WrhFWFHR0d7e3t6enpERERCQoJKperq6jpw4EBERERsXGxxcXFRUVFkZGRUVNTOnTvr7tdlZGRGRUUdOnRIrVafP3+Bz+cfPXpULpdLJJLo6Og9e/YoFIqbN2+Gh4fHxMR8//33iYmJFy5cUCr/M0fVV4ZQHggAASAABB5DAgqFYsiQIUTgj5STnd2jNHHa6ERoaCiHwzHaHAwNE+BwOEYv2xGeNRokkSivXm1LS6v/6qvKf/yj/JNPKmJias6cab5/X/7wAZnq6urqCRMnODg43Lp1WyKRzJs3b/DgwV9//XVHR8fevd1TPsIrQoVCUVtbq1aru7q6kpOTo6Kirv5+FS+cpaSkREREJCcnSyQSqVQqk8l27toZHR19/fp1pUrZ2NgYGRn5ww8/NDU3EXfkyeXyI0eOREZGJicnq1Sqtra2xMTEqKiooqIitVpdX18fFRUVGxv74MEDlUpVcPX36Ojoo0ePKhTKhIQdUVFRZWVlKpXqfn1TVFTU7h93t3e0FxYWhoeH7969+8GDB52dne3t7ZiA7j4tggwkgAAQAAJAAAiQCZA10iO1RM4llzYiXVpaymAwYJHOCHQUTSQSCYPBoL8Lm7jVTqXSqFQPt3+T7rnTaDQPHjwICAiwt7c/efLkzz//PHToUEdHx4MHD3Z2dubk5ERERERGRh4/fryzq1Oj0bS2tiYmJsbExHR0dGg0mo6Ojp07d0bz+VVVVfg5BY2NjVFRUZGRkRkZGTk5ORkZRyIiIn7Y/kOzpLm+vj43NzctLW3//v3ff/99ZGSk4DeBWq1uaGiIjo7evn17e3u7Wq0uLS2Njo4+ePCgSqVSKBS7du2Kior65ZdfJBIJ9nz48OGcnBw8TZWcnNzR0XH48OHw8PD8/HyVSgVqieIAg2JAAAgAASBAJkDWSP2inHg8HpfLJVcJaZMT4HK5PB7P5G7JDvG9chcvXhw9erSLi8vYsWMnTJhw4MABvLjW0dFx/PjxqKgoPp9/+vTp7u3hYnFMTMyOHTtwgfr6+ri4uO3bt8vlcoQQ3nIUHR0dGxtbUlJy/373TvPa2tqamprm5mZ8R55QKJRIJPv27ePz+Q2NDf8x4UdnZGTg/eZpaWl8Pj87Oxsh1NXVFR0dHRMTc/v27cLCQiyw7ty5gz3fvXsXLyDGxMRERUXduHFDre75SQrkkCENBIAAEAACQECXQL8rJzabLRAIdCuGHBMSEAgERux26lMD1Gp1bW3ttGnTpk6dmpeXJxKJGhoalEolngpqb2/v7Ow8f/58VFTU4cOHFQpFWVlZZGTkgQMHlEqlSqWqqKiIjIzct28f3j+HZ7Cio6Pj4uJqa2vxrnC8SJefnx8dHc3n87u6urCKio+Px/fHHTp0CO9eIqQSn88vLCxECN25cyfm4Ucmk+GpqYSEhKam7oU/4tPW1hb98IPz+xQ+FAYCQAAIAAEggAn0u3KCpTozDDW8YNevFSkUivLychcXl+HDhzMYjFGjRs2dO/f69esKhSI9Pf3q1atSqVQsFsfFxVVVVSmVypKSksjIyCNHjshkMoVCcenSpaioqJ9//hk/NQDfKHfs2LHY2NiLFy/ibU/4mQJXrlzhP/zcu3fv4sWLfD5/586dra2tMpkMK6pff/0VISQWi2NjY+Pi4qRSqUajOXfuHJ/PT0hIUCgUKpVq//79sbGxhYWFsoefzs7O7l3nQiGfz4+NjcXzXv2KC5wDASAABICArRLod+VErsBWIVpCXP3KGW9U+uKLLzw8PNauXbt8+fLRo0cPGTLE19e3s7OzpKQkPT09JSUlOTlZKBTiiSiJRLJnz564uLjDhw+3trZmZGSkpKRcunSJvEzW2tqal5e3Y8eO5OTk/fv340U0mUz2888/R0ZG7tq16+bNm8eOHYuPj7906ZJYLE5NTU1JSSkuLkYIXb16dd++fXv27MFPgcrLy9u7d++JEyewf4lE8uuvv27fvj0lJWX//v3l5eUKhSInJyclJeXHH39UKpWW0GXQBiAABIAAELBGAuQLbr/scyJXYI2ArKXNfeWstT9a65CIGucrlcoDBw4wmcyTJ0/ix0gWFxc7ODhMnjxZLpfjHd+dnZ3kbdd46a2zs3u3OHGvnFYtOF+pVEqlUqy3iMJ4pgp77urqfhKmlhN8inCIH79JHBLlZTIZbhWRQ5ZuRJiQAAJAAAgAASBAkQD5ggvKiSI0SyxG7she29dX9aBQKPbs2ePo6PjDDz/IZLKOjo78/HwGgxETE2PYFZYyhstotZasfrROGTgkrAyUgVNAAAgAASAABOgTIF9wQTnR5zlgHsgdaUQjCOVBJMhO1Gp1U1PTxo0bvby83nrrrZUrV77yyis8Hq+5uZmKKurRJ9m/vjRhSCT0lTScT9NcyzmeviJn9uofmxgopsZvXSY7pZfWbSQ9f2ANBIAAEAAC/yFAvuCCcrLiYUHuyP4IQ6PRdHZ2Njc337hxo6ysrL29nXhDXI/VGVAJPZbvMZNwgt9Yh+UF3l2O02q1GjcDvymPLOPwKSwg8JMR8Hpft08N0nS/r7j7cVXkYuTVRvTwNcb4xkC1qrsk8ens7Kyt6X7aZ2trq1qt7uzslMlkhCuVsvu1feQGq9XdDxGVd8nlcnlLcwv5FI5aqVQKhcK2tjZiCZJYfMTBdh/+tw3E4iMurBsFzr937x75PYA94oVMIAAEgAAQMIIA+YILyskIgJZiQu5IS2mT6dqhVqsvX7qceya3s7Ozpqbm/MXzxSXFCoVCJBIJLwsVSsX169fPnj1bK/7PK/w0Gk1lZeX5i+clbZLOzs7TZ07/XvB7t0C5IiwvL+9o62hubj6Ve6pV0nqj9MaZM2e6urpu3bp1+szphvoGLNe6PdypvJR/Kfd07mlB9xOq7tXek8vlVXeqWlpaCkWFrW2t0THRdeK6+/fv19bWtra05pzKyf01N/9ivkQiaW5uFggExaXFSqVScFZw6PChttY2SaPk2rVrSqWyQFRw5swZ4jbD0tLS48ePd7R3nDt37lL+pa7OrvyL+QVXC7obfFl4KudU3uk80VWRUqn8/drvp0+fbmtvKy8vLy4tvnb9WklJiUKhyL+Uf+nSJblcXnm78sxvZ9rb20UiUUFBQUPDf8IxXVeAJyAABIDA406AfMEF5WTFo4HckVYcRk9Nx9Nd5y+cLy8vr7lXU1pa2tDQcEV0RSKRZB/PzsvN65B2/Pbbbw8ePKipqcEONBrNzZs3c/NyJRLJtYJr1Xerf0z5saur61j2sQsXLzQ3Nt+/f7+yslKtVn+//XuZVKZUKjMyMk7nnr4iuoKVk1qtLiwslEqlV65cOX36dFdXV0lpSYe041rhNYlEUigqVCqV8d/Hq1Sqe/fuVVVV1dfXXxNdO3PmTGVl5b2ae0VFRadyTp07f66jvePY8WNCobC9tf3B/QeXL1+Wy+W/5PySmJTY1dWFZ7aqqqoqKioUCkXe6TyZTNbW2nY8+/iRo0e6urqOZx0vul5UdL0oLzevq6srITEh52ROdXX1/br7BzIO7E7ZnX85v7W19cqVK9euXevo6Pj9998fNDxQKpV5eXn70vbJOrsnw3qCCnlAAAgAASBgJAHyBReUk5EQLcGM3JGW0B4TtgEvb507fy731+45p5KSkuyfs2/duqVQKISXhIKzAoVCUXKzpL29/cGDB7hejUZTXl5+7Oixjo6Orq6uk7+cLC0tVSqVl65cys3LbWlraWlpwdNL5eXlJ7JPKBSK6urqrKysuto6Ys6p6k5V9yzOncqia0VKhfLOnTsnsk9U3q6USqVYdR09erSqqqqpqanxQWNLS8udW3duFN1oaGhoftDc0tKSlZVVdL1IqVSeFZzNOpbV2dnZKmmtqKhQKpUnfj6B71LErX3w4MH9uvsqlerm9ZsKhUIqlf7888/nz59XKpUioaj6bnX13eob128olcob12/88ssvra2tSqXyiuhKcWlxzb2a7irOnj1/7rxcLr97525rW/ca4q2KW3fv3r1TdQeUkwmHIrgCAkAACCCEyBdcUE5WPCTIHWnFYehvOt76g/eqS6VSrf09xA4hwoHWBiat8njTEn4PDOEZJwgP5Ocg4PLkRyeQtysRW6CI7VPks3gP1qMyGg1+ewyhacincGZ3ge6dTf/ZidVd4L9brXAjsUl31Jru18h0J7q3V/230MPTmAkRDiSAABAAAkDAJATIF1xQTiZBOjBOyB05MC2AWoEAEAACQAAIPAYEyBdcUE5W3OHkjrTiMKDpQAAIAAEgAAQsmwD5ggvKqYe+It/o3sNpi8kid6TFNAoaAgSAABAAAkDA1giQL7g2qJzkcvnKlSvd3d3d3NyCg4NlMhlC6ODBg97e3pMmTXr55ZdLSkoQQlu3bv3www9x3xJpR0fHLVu2MJnMjo6OGzdusNlsZ2fnWbNmVVZWIoTKyspmz57t6enp6+t74cKFAR8X5I4c8MZAA4AAEAACQAAI2CoB8gXXBpVTRkbGvHnz8Fbf9evXnz9//u7du0wms6KiAiGUmJg4ffp0fcpp1KhRXC4Xb8WdMmXK4cOHEULbtm1bsGABQujFF19MSkpCCAmFwjFjxsjl8oEdIuSOHNiWQO1AAAgAASAABGyYAPmCa4PK6dy5c87OztnZ2Z2dnbgXd+3aFRgYiNOdnZ12dnYtLS3EPBNZRTk5OeXn5yOEqqqqRo4ciU0UCkV7e/vdu3ft7e2Jhbxp06YJBIKBHSXkjhzYlkDtQAAIAAEgAARsmAD5gmuDygkhlJGRMWfOnJEjR3I4HKlUumXLllWrVhE9OmLEiIqKCn3Kqby8HM8qubq6EiYIoStXrgwaNMjtv5+nnnoqIyODXMD8aXJHmr92qBEIAAEgAASAwGNCgHzBtU3lhDtSIpHMnz8/Kipq165dixYtwplSqdTOzq6trS08PDwkJARnbtq0Ce95cnJywot6VVVVDg4OeIZJLpeXlJTU1NQQs1AWMlDIHWkhTYJmAAEgAASAABCwPQLkC64NKqfY2Ngvv/wS71V6//33IyIisOjBkiguLm7WrFkIoZ9++ikgIAAhJJPJXnjhBS3lpNFovL29k5OTEUIxMTF4n9PUqVPT0tIQQg0NDStWrGhvbx/YwUHuyIFtCdQOBIAAEAACQMCGCZAvuDaonBobGxcvXuzq6jpu3Ljly5djfZORkeHt7e3h4TF37tzbt28jhKRS6bx583x8fJYsWbJx48YPPvgAIUTMOSGErl+/Pn369GeeeYZ8b92cOXMmTJjg4eGRkJAw4EOE3JED3hhoABAAAkAACAABWyVAvuDaoHKy1W7TjYvckbpnIQcIAAEgAASAABAwCQHyBReUk0mQDowTckcOTAugViAABIAAEAACjwEB8gUXlJMVd7idnV12drYZAigtLeXxeGw2m8Fg2Fnzh8FgsNlsHo9XWlraT9yAFXWwXZLSBhGv6ohfWbJjyU476/0rS3asOuLXIOJ1SfprXAEr6uPKir6D8ItkquuJGUiCcqL+HbToknjM9bd4Cg0NZTAYXC5XIBBIJBKLJtJb4yQSiUAg4HK5DAYjNDS0t+J9Pg+sqCOrv7iuLNmhPm+VtChJVX0GiUXW+6eqPiMtSqrPW9Ud0cV11CFQLAmsKIJCCFnXdxB+kaj3rOGS/U0SIQTKyXAXWM1ZPOfUfzNPtbW1bDabw+FYu2DS7VGJRMLhcNhsdm1tre5ZI3KAFXVoSmlt1RE/cc4yaxdMulJPVX1GnLOs6oifUmqacQWsqI8rq/4Owi8S9Y42XNLkJInqbFY55efn+/v7KxQKIlQqCT6fv2bNGgMlf/3115qaGt0CCoXC398fP3Nc96wZcnBHZmdn95N4YrPZYWFhZghkoKoICwtjs9kmqR1YUcdYdcSv8be1urLDZnIaf1tbdcSPOhADJYGVAThap2zgOwi/SFp9avShCUkSbbBN5aRSqTw9PYuKiog4KSYMKCf8JMwlS5bok0fXr1/38PBQqVQU6zJtMaIj+0M8hYaGcjgc0zbYAr1xOBz6y3bAinrP1l9cJ85ZZjMiSV8g4pxl9JftgBX1cWUz30H4RaLe6YZLmoQkuQrigtu9ckecIOcSmcYlTOiKegPS0tLeeOMNhNC77767c+dOhND9+/ft7OxOnTqFECooKJgyZQpCKDs7e8qUKZ6enosWLRKLxQghPp//zjvvLFy4cPTo0QEBAXh6ydHRccuWLUwm85tvvhk6dKi7u/uhQ4c0Gg2Pxxs3btzYsWMjIyNx2xYtWoQfj0m9qaYqSeZsWvFUWlrKYDBsb5FOl7xEImEwGHQ2jAMrXar6crokpWXJDra3SKern1TVZ8qSHehsGAdW+kaRbr4tfQfhF0m3f43LoU9Sq17yBdd2lFNQUNDu3bsRQrt3737//ffx2+umT5/+5ZdfIoRiY2M/+eSTuro6JpOJ56UiIyPfeustrJwcHByKi4sRQqtXr8aPxBw1ahSXy9VoNAghb29vPOeUmZnp7+8vk8mampqcnZ1xZmJi4vLly7UQm+eQ3JFYFJpq2Y7H43G5XPNEMeC1cLlcHo9ndDOAFXV0DSJefd4qXZ1hkzn1easaRMaPK2BFfVzZ2HcQfpGod73hkjRJajknX3BtRzm5urpeu3YNIVRZWTl58mSE0Mcff5yamjpv3jyE0PLly48fP56amrpw4UKMo729ffDgwSqVis/nE5k5OTne3t74YeLECh2hnFavXh0dHY3NW1tb8SJdYWGhm5ubFmLzHJI7EtdoqpknNpstEAjME8WA1yIQCOjsdgJW1Huw6oiftCjJJnWSblDSoiQ6u52AFfVxZWPfQfhFot71hkvSJKnlnHzBtR3lNHz4cLz6hhAaP358c3PztGnT2travL29VSqVq6tra2trRESEvb29238/TCazrq6Oz+evWrUKMxIKhWPGjMHKqby8HGcSyun111//8ccftWjW1tYOHz5cK9M8h+SOJGo0iXh6TJbqMDQ8qUsA7GsCWFEnVpbs+Dgs1WEV9XDBzpE6HK2SwEoLiIFDG/sOwi+Sgb7u0ymaJLXqIl9wbUc5DRs2jFBOq1ev3r9/v6+vL0LonXfeyczMfOmllxBCe/fuXbp0qRYOPp+PN0ghhE6dOoW3Q5FfYEcop9WrV2/btg2b19TUNDU1IYQsTTmZZNmOPES0cNnkIZ146dhaI0w68ZbstNOdm7HhnO54jf0AK+rk6IxJ6rWYsySdiOjYmjNG89RlQhpkV4++2ORcmiGZ0BX1lowdOxav1iGEUlNT2Wz2Rx99hHc4zZgxA29kuX//PovFwpNJQqFw3bruZ9bx+Xwmk1lVVYUQ+uCDD7AVWTn5+Pj88ssvCKGDBw8+//zzra2tzc3N7u7uFy9eRAgVFha6urpSb6cJSxrgTHPmyYBnE7bfclzRiZeOreUQoN4SOvGCGqDOGVhRZ0VnTFKvxZwl6UREx9acMZqnLhPSILuyHeX05ptv4h3iCKHq6mo7Ozt8y5tQKLSzszt9+jTuJ3xv3YQJE3x8fM6dO4cQioyMXLlyZWBg4Lhx42bPnl1XV4dX6yoqKrDJ119/zWAw4uLi1Gr1Z5995uLi4uzsHB4ejs8mJSUtW7bMPINAqxZyR2qdojnzZNizbl3WnkMnXjq21siNTrygBqj3OLCizorOmKReizlL0omIjq05YzRPXSakQXZlO8opJSWFWHQzT5fgWgIDA/fu3WvOGom6yB1JZJITRs889eqZXIsNpOnES8fWGtHRiRfUAPUeB1bUWdEZk9RrMWdJOhHRsdswkTwAACAASURBVDVnjOapy4Q0yK5sRzkpFIqJEyfeuHHDPP2Ba8FPwlQqleaslKiL3JFEplbCOPFExbNWRVZ9SCdeOrbWCI1OvKAGqPc4sKLOis6YpF6LOUvSiYiOrTljNE9dJqRBdmU7ygkhdOHCBTab3de3rxjdf/jtK3i3k9FO6BiSO9KAHyPEE0XPBiq1rlN04qVja12UcGvpxAtqgHqPAyvqrOiMSeq1mLMknYjo2JozRvPUZUIaZFc2pZzM0xOWUwu5Iw23qq/iibpnw/Vay1k68dKxtRY+5HbSiRfUAJmk4TSwMsyHfJbOmCT7sZw0nYjo2FoOAVO1xIQ0yK5AOZmqgwbAD7kje62+T+KpT557rdryC9CJl46t5ZPRbSGdeEEN6PLUlwOs9JHRzaczJnW9WUIOnYjo2FpC7KZtgwlpkF2BcjJtN5nVG7kjqVRMXTz11TOV2i25DJ146dhaMhN9baMTL6gBfVR184GVLhN9OXTGpD6fA5tPJyI6tgMbdX/UbkIaZFegnPqjs8zkk9yRFKukKJ6M8EyxAZZZjE68dGwtk4bhVtGJF9SAYbbks8CKTMNwms6YNOx5oM7SiYiO7UDF23/1mpAG2RUop/7rsn73TO5I6pVREU/GeabeBksrSSdeOraWxoFKe+jEC2qACmFcBlhRZ0VnTFKvxZwl6UREx5ZmjPb29jU1NT064fP5a9as6fFUv2aakAbZFSinfu21/nVO7sg+1dSreDLac5+aYTmF6cRLx9ZyCFBvCZ14QQ1Q5wysqLOiMyap12LOknQiomNLM8b6+nq1Wt2jE1BOPWL5Q+YA9twf2mHrB3Q4GxZPdDxbI3U68dKxfdxYgRqg3uPAijor2/sO0omIji115gihiIiIiRMnuru7z5gx4/bt2wghPOdUWFj4wgsvfP755y+//LKHh8fJkyfxW87wnFNNTY2rq+vZs2f7VJfRhU1Ig+yqX+acbOzN1Ub3Wb8a0n8LtJZ42rRpE5PJxG0mD5F+jcJCnNOJl46thYTfp2bQiRfUAHXUwIo6Kzpjknot5ixJJyI6ttRjbGxsfPLJJ9va2hBCycnJP/zwA6GcioqKBg0ahF/2mp6ePmPGDEI5yWQyX19fc751w4Q0yK76RTmx2WyBQEC9D6CkEQQEAgGbzTbCkGxCFk9z5swZNmwYfmsyeYiQy9tqmk68dGytkSedeEENUO9xYEWdFZ0xSb0Wc5akExEdW+oxymQyJpOZkJDw4MEDwgrPORUVFTEYDJx57do1V1dXQjn9z//8z5dffkmUN0PChDTIrvpFOfF4PC6XawYoj3MVXC6Xx+PRJ4DF08GDB+3s7IYOHfrVV18hhMhDhH4Vlu+BTrx0bC2fjG4L6cQLakCXp74cYKWPjG4+nTGp680ScuhERMe2T7FfvXp1+fLlTCZz3rx5lZWV5DknZ2dn7KqoqAin+Xw+k8kcPnz4rl27+lQLzcImpEF21S/KqbS0FBbsaPa3YXO8VFdaWmq4GMWzhGyys7MbP348KCeK3HAx8tepT4ZWWphOvKAGqHc6sKLOis6YpF6LOUvSiYiOrRExKhSKzz///I033uhVOb366qvXrl1jsVhVVVVGVGSciQlpkF31i3JCCIWGhnI4HONCBateCXA4nNDQ0F6L9Vpg06ZNc+bMwbNNdg8/Dg4O165dIw+RXp3oFhio2yh0W0Ixh0q8kZGReFFfyycVWy0T0x6amTaVePWxshA1MJLhUFNwAolFun/8r//fmhVLdfONy+mOt7ePhbPSF3jE5lAM6tcD2/XB1GfbYz4dVlTGZG/9QPf8yJEj9d2Qb4RrKhHpGzlUbI1okpZJfn7+W2+91dnZiRBKTU0NDAzsVTnhHeJbtmx59dVXNRqNlsN+OjQhDbKrR19scq5JYmCz2WFhYSZxBU7IBMLCwujvcMIOmUzmsGHDhg4dimUTsWBHczCY+VpOhqPvnlhyGd00lXiHDRs2ZMiQjRs3auknKra6NZowhwptlUplqhqpxKuPFSgn3V6wcFY9qhwkFklvn28t+w2JRUvmv5x/PFlfMZyvvic0XACJRVSUkz5WVMakLnnT5lBRTtS/hlQiGlgaarX6n//8p6ur6/jx42fMmHHz5k2KykmlUvn5+cXFxZmWvz5vVEjqs9XKJ7vqR+VUW1vLZrM5HI5EItFqARwaR0AikXA4HDabXVtba5wHXatr16599dVX48aNc3BwwBJq3Lhx5CGia9JjTmdn54oVK1xdXQMCAtatW4f/e1FWVjZ79mxPT09fX98LFy4ghPANqxs3bpwxY8bkyZMFAsHSpUu9vLz+/ve/I4Ty8/M9PT2xfyK9ePHi6OhohFBLS8vo0aMLCwsRQv/+9789PT3/8pe/fPTRR3K5HCHk6Oi4ZcsWJpPZ0dHRYwsNZFKJNyYmZtiwYU888cTQoUPJ+omKrYGqiVNyuXzlypXu7u5ubm7BwcEymQwhlJmZ6enp6ezsvHLlyq6uLvzfu0mTJo0fP3727NnV1dXE1kuEkC7tgoKCF1544d13350zZw5REc0ElXj1sTKVcor5Zv3qd95Y8eaCKZMnvj434Hgqf+ErM9zdnPfEfYPEIvU94eeh709yd53k7vru24vwBf5kWvzEcWM9J7h986//YzIc8TRJ9p6YKZMnek5wW/TqDPHvJ5FYZP45J6NZaWqv8D5ZM27smLFjnon84hN9gTMZjt9/u2HuzOluLqOP/Bi5ZsVS/6nPzZzu015xFolFDvYjvvt83SsB0zwnuEV/9f+wvjmY+J23p/skd9eX2VNLzmYisejO5axZ/i9OHDd2vOuYLZ99hMQiPOf03efrhj7xhLub86Fd4T1id3QYseWzj5gMx45b5wyLJyrKSR8rKmMSD3vd70iPt9BrNBoejzdu3LixY8dGRkYihNRq9eeffz7p4efdd99tbW1FCJ08eXLixImenp7ffPMNk8nEc07Z2dlTpkzx9PRctGiRWCxGCEVFRa1evfqFF17YtGkTxW8flYjo06DYGKsuRoUkxQDJrvpROeHWhIaGMhgMLpcrEAhAQlHsIa1iEolEIBBwuVwGg2GSRTot//iwsLAQS6gRI0aQh0iPhXUzt2/fPnPmTKVS2dLSMnnyZKycXnzxxaSkJISQUCgcM2aMXC7HN6xiFbVixYrnnnuus7NTJpM5ODiIxWJCLZFVVHV1tYuLS0NDwyeffLJhwwaE0NGjR728vFpaWlQq1ZtvvhkbG4sQGjVqFJfLNW4SmGK8Tk5OeHKOrJ8o2uoS08rJyMiYN2+eRqNRq9Xr168/f/58bW0ti8W6c+eOSqVavHjx1q1bm5qahg0bhh+dEhIS8uGHH5KVky7t69ev29vb79+/X6suOocU4+2RlamUU/y3G0Y/85Sk9IyqRugy+mm8bPTb4STPCW5ILEpP2PLic54dt85paq8Ev7Vww99XqWqEY55hnUyLR2LR9q0b//znP9cUnKgrzGEyHItOH0BiUeQXn7y16JUBUU4IIeNYZe4M95/6nKzyQlPxaednn84/nqwbOBKLnJ4cuY33MRKLEsM3DRv6RMXFI0gseiVgWnrCFiQWjWQ48D5Zg8Qi8e8n7UcMv3sl++6VbCbDERdLDN80/UVvJBZ99N5fwzasRWJRS6lgWeCrLaUCYrXO29Mdzzn1WPsoJoO79n81tVcMyyaKc076WFEckwgh3e9Ij7fQZ2Zm+vv7y2SypqYmZ2fn/Pz89PT0F198saOjQ6PRBAcHb9iwQaVSjRkzBj+saPv27d2Dqqamrq6OyWQWFRUhhCIjI9966y2EUFxcHIvFwl9bil89ihH1OHIo2lJsibUXMyENsqt+V04IodLSUh6Px2azGQwGsSoECeoEGAwGm83m8Xim2hJu+Mtw4cIF8hAxXJg4+8477+CZIYTQxo0b16xZc/fuXXt7e2L5bNq0aQKBoKio6KmnnsJWPB5v7dq1OD1x4sSrV6/2qJwQQjExMQsWLPD09MQzMe+99953332HDbOzs/GEipOTU35+PtGePiWo9wW55JAhQ5YtW2YEqx7bdu7cOWdn5+zsbLx1ACGUkpKyZMkSXFgqleI5J2KtMC0t7bXXXiOUkz7aw4cPJ7qgx3r7mkkmQD2NWZlQOQUtnosvxjOn+xzYsRWJRfeunmA42iOxaOWy1yM2h+KzJ9PifbwnlZzNHMlwwDmddy7a2dnVFJxIjf164SszcGZ7xdnBgwepaoQmn3OijogoSZHV6nfeIGaJWst+U9UIdQPHyunGmYNILMo9uH2yx3gc7wfBb2LbkQyHq6d+wpkzp/tkJG3bFbU5cN5MMquWUsG/P/377JemXv45lVh301VO+mrvdS0P11WykwDQh0SfvoP6viO6t9CvXr2a+DVrbW1VqVQrV66MiIjAX5aTJ0/6+PiUlJSMHDkS53R2dnYPqpqa1NTUhQsX4sz29vbBgwerVKr4+PgFCxb06YvWBwSkon2i0af2WG9hU/0+a904ZQ7lZL3QH7eWt7a2fvrpp8OHDzditL322mvJycmYWHh4+Jo1a65cuTJo0CC3/36eeuqpjIyMoqIiNzc3XOzLL79cv349Tnt6el65ckWfcmpraxs2bNjmzZtx4cDAQCcnJ+zYxcXF19cX/2e0vLwcF+jrvxTj7e//4WVkZMyZM2fkyJEcDkcqlYaHh69atYoci1qt3rx58/SHHw8Pj7lz5xLKSR/tMWPGkD3QT9NhZULl9Le/LsZX3NkvTT2eykdiUV1hjv2I4Ugsmj+b/SP/C3xWeGKP87NPX8j60c1lNM5BYtGI4cNqCk5EbA61HzHczWU0/mMyHOsKc0yunKgA73Fc9crq9bkBRJg4NN3AsXK6czkLiUVnMhN9n5+MS374v29jcTmS4YDPIrHo9bkBSRGfb/nso1XLA8msKi4eUVZf3rrpH1MmT3yGNQpLLl3lpK/28guHCW8GEt3xUvj0yIrimNT3HdG9hf7111//8ccfyc2ZP38+kSMUCp2dnS9cuED8lCGERowYUVNTExERYW9v/9/fPDcmk1lXVxcfHx8cHEz21muaYkR0aPTaBtsoQJEklWDJrh4NVnIuFS9QxpYIYM00dOjQJ554wrjVur/+9a98Ph8zWb9+/Zo1a2pqaoj/kxGsDCsnoVA4adIkXPjUqVPEnqf169eHhIS4uLjgDV5r1qwh6iI8Ozk5VVRUEId9SlAZ/DExMcOHDyev0+EqqNj2qTESiWT+/PlRUVEpKSmLFi3Cts3NzdXV1Wlpac899xxe9d67dy9ZOemjTVwV+tQGA4WpxKuPVa9qwMCVlXwq/tsNBpTTymWv4/UpJBad2Bc3dcpfin/LIOac2ivO4jmnvfHfLF0wm+x2QFbrjGa1+p03iDBrCk40FZ/WDZyKchKd3IshvOT7/KFd4buiNi969T9TcdLb5+3s7NrKu3dE4b/yC4edn326IGefrnLSVzte+CM86EtQUU76WFEZkwihXr8jxMOHVq9evW3bNvwtqKmpaWpqWrlyJZFz4sSJqVOnFhcXE79v7e3teM5p7969S5cu1fr6xMfHv/vuu1qZhg+pRESThuEG2MxZKiQpBkt2BcqJIjSbLUbWTHjeF+8T72vAfD5/1qxZCoWisbFx4sSJeJ/T1KlT09LSEEINDQ0rVqxob283rJxqa2sdHBywMggJCcHKqbCwcOLEiTKZLCIi4u2330YIHTt2zNfXF69bJSYm4rmu/lZO/X0nS2xs7Jdffql5+Hn//fcjIiLu3bs3cuTImzdvqlSqoKCgrVu3xsfHL168GCHU3Nw8d+5cf39/Ys4JIdQj7QFRTvpYmUc5Hdix1cd7kvT2efU9YdDiuZv/+YHi7iWW05O//BSHtzYPGtS9z+n+tVMspyfxjIjwxJ51778zIMrJaFYHE797frJHa9lvzSWn3d2cLx7/UTdwKsop9IMVSCy6nX9sxPBh4t9P1hScGMlwwHIn7t//muX/IhKL/mfpfEyv887FyR7jr/yyh1BOPt6T8Cl9tZtQOeljRb6kGf7hMvwdIZTTwYMHn3/++dbW1ubmZnd394sXLx44cMDHx0cqlarV6qCgoM2bNysUChaLhd8xEhERMWjQoJqamvv377NYLDz5LRQK161bhxDqJ+VEn4ZhVnizqb+/v0Kh6LUkuUCvd/v++uuvPT7BQaFQ+Pv7G73pgtwGIk19bBAm+hJkV6Cc9FF6LPK//fbbQYMGDR48mLRWbvfcc8+RhwhFEB0dHW+//fazzz47ffr0jRs3/u1vf8N3e82ZM2fChAkeHh4JCQkIIcPKCSG0fv36SZMmzZ8/PzY2duLEiWq1evr06UeOHEEIKRSKyZMnHz16FCH07bff4lvMFixYgCei+ls59ffTUxobGxcvXuzq6jpu3Ljly5e3t7cjhA4cOODh4fHss8/ie+saGhr8/f09PDxeeeWVS5cuPfvss5s2bSJ+p8rKynRpD4hy0sfKPMqJuMnLY7zrmhVL8V1dR5Ojxo0d4+YyOmzD2jHPsPASFb63bsI4Fx/vSeeO7hoQ5WQ0K/U94Wfr3nMZ/bTzs0+HP9wD3mPgTk+ONLxaF877+Lm/TBg75pkftnyKJ4QykrZ5e7p7jHedO3P67fxjSCwSntjj+/zkcWPHuLs5f7k+hLi3DolFX3M/ZDjax/37X/pqN6Fy0seK+u+V4e8IoZzUavVnn33m4uLi7OwcHh5OvrfOw8NjzZo1+Abeo0ePjhs3zs3NLSwsbMyYMXfu3EEI4XvrJkyY4OPjc+7cuf5TTvRpGP5tV6lUnp6eeLe74ZJaZ4lfJK18jBEhtGTJEn3y6Pr16x4eHtQf36BbhVYO9bGhZah7SHYFykmXz2OU88svv3z44YezZ892cnLC25vs7Ozee+898hB5HHDQiZeOrTWypROvqZSTvhUfS8unsgKlbwyYh9VIhsO9qz0/FNTMMOmwojMm9fEf2Hw6EdGxJUedlpaGnwz+7rvv7ty5EyF0//59Ozu7U6dOIYQKCgqmTJlCKEXyUxj4fP4777yzcOHC0aNHBwQE4Okl4qkx33zzzdChQ93d3Q8dOqT79AeE0KJFi/BKBbkxRqdNRQN2iBvdBbZsyOFw/P39R4wY4eDgsH37dhOONqugRideOrZWAUerkXTiNY8aMPMl30B1dNSAeVgZeJy6gbj64xQdVnTGpNbwtpBDOhHRsSWHHxQUtHv3boTQ7t2733//fYRQRkbG9OnT8St7Y2NjP/nkkx6fwsDn8x0cHIqLixFCq1ev/uCDD7SeGuPt7Y3nnHSf/oAQSkxMXL58ObkldNKmogHKiU4v2Kbtjh07pk2bhm9Ps7e3P3++e1uobYaqJyo68dKx1dMci86mE6951EB/XNeN80lHDZiHFSgny/yy0fmW0bEl03B1db127RpCqLKycvLkyQihjz/+ODU1dd68eQih5cuXHz9+vMenMPD5fOLRDDk5Od7e3vjiQqzQEcpJ9+kP+GnJ5JsWyU0yIm0qGqCcjIBvyyYikehPf/qTSCRCCMXGxv75z39ua2sz4WizCnZ04qVjaxVwtBpJJ17zqAHjVE5/WFm+cuqPqI3zSYcVnTGpNbwt5JBORHRsyeEPHz4cPwMdITR+/Pjm5uZp06a1tbV5e3urVCpXV9fW1tYen8LA5/OJx6ngZyBrPTWGUE66T39ACNXW1g4fPpzcEjppU9EA5USnF2zQdurUqfgx3zg2LKFMONqsAhmdeOnYWgUcrUbSiReUkxZMA4fAygAcrVN0xqSWKws5pBMRHVty+MOGDSOU0+rVq/fv34+fnPfOO+9kZma+9NJLCKEen8LA5/PxBimE0KlTp/B2KPIdPIRy0n36AyinR10AzxAn37lmRLr/niHO4XDwGzwe9dbDlKm+e1puLfaQTrx0bC0WiIGG0YkX1IABsFqngJUWEAOHdMakAbcDeIpORHRsySGPHTsWr9bh12Wy2eyPPvoIL03MmDGDx+PhPeO6T2Hg8/lMJrOqqgoh9MEHH2ArsnLy8fHBT3PQffoDXq1zdXUlt4RO2lQ0zD3nBO+to9Pr2Laf3luXmJiItzfpttCEo03XuQXm0ImXjq0Foui1SXTiBTXQK16iALAiUPSaoDMme3U+IAXoRETHlhzsm2++iXeII4Sqq6vt7OzwLW9CodDOzu706dO4sO5TGCIjI1euXBkYGDhu3LjZs2fX1dXh1TriScVff/01g8GIi4vTffoDQigpKWnZsmXkltBJm4qG+ZRTbW0tm83mcDjwol86HU+2lUgkHA6HzWbjJxiRT/U1Td7epGtrwtGm69wCc+jES8fWAlH02iQ68YIa6BUvUQBYESh6TdAZk706H5ACdCKiY0sONiUlhVh0I+f3dzowMHDv3r2mqsVUNMynnNhsdlhYmKniBz8EgbCwMDabTRwal5g6dWpiYqI+WxOONn1VWFQ+nXjp2FoUBIqNoRMvqAGKkBFCwIo6Kzpjknot5ixJJyI6tuQYFQrFxIkTb9y4Qc7s7zR+EqZSqTRVRaaiYSblFBoayuFwTBU8+NEiwOFwQkNDtTKpH4Y8/Bgob8LRZqAWyzlFJ146tpZDgHpL6MQLaoA6Z2BFnRWdMUm9FnOWpBMRHVutGC9cuMBms/v69hUtJ9QP8dtXLl68SN2k15ImpEF29eixPeTcXltjuEBpaSmDwYBFOsOU6JyVSCQMBqO0tNQIJ4mJifgWCQO2JhwMBmqxnFN04qVjazkEqLeETrygBqhzBlbUWdEZk9RrMWdJOhHRsTVnjOapy4Q0yK76RTnxeDwul2seLo9tLVwuF9/d0CcChrc3Ea7IQ4TItOEEnXjp2FojUjrxghqg3uPAijorOmOSei3mLEknIjq25ozRPHWZkAbZVb8oJzabLRAIzMPlsa1FIBAYsdvJ19fXwPYmAiZ5iBCZNpygEy8dW2tESideUAPUexxYUWdFZ0xSr8WcJelERMfWnDGapy4T0iC76hflBEt1ZhgTeMGuTxX1ur2J8EYeIkSmDSfoxEvH1hqR0okX1AD1HgdW1FnRGZPUazFnSToR0bE1Z4zmqcuENMiu+kU5kSswD53Hs5Y+caayvYnA2CfPhJX1JujES8fWGonRiRfUAPUeB1bUWdEZk9RrMWdJOhHRsTVnjOapy4Q0yK5AOZmn+/qlFnJHGq5AJBLZ2dnhN6sYLonPUvdMxZvll6ETLx1byyej20I68YIa0OWpLwdY6SOjm09nTOp6s4QcOhHRsbWE2E3bBhPSILsC5WTabjKrN3JHGq6Y4vYmwgl1z4SJVSfoxEvH1hqh0YkX1AD1HgdW1FnRGZPUazFnSToR0bE1Z4zmqcuENMiuQDmZp/v6pRZyRxqogPr2JsLJY7VTzYgdYwQohBCwItMwnC5LdlRVn0Fi0ePwp6o+U5bsaBiIgbPAygAcrVM29h2EXySt/jX6kCZJrXrJF1xQTlpwrOmQ3JH62t2n7U2Ek8fq7kjj7lIEVgQB6omqI37SoqTHQTYhsUhalFR1xI86HK2SwEoLiIFDG/u9gl8kA33dp1M0SWrVRb7ggnLSgmNNh+SO7LHdfd3eRDh5rJ7IZdyTsYAVQYB6okHEq89b9Zgop/q8VQ2i7vfJG/cBVtS52djvFfwiUe96wyVpktRyTr7ggnLSgmNNh+SO7LHdfd3eRDh5fJ4Cj6dzjXsaO8YFrIhh02uiS1JaluzwOCzYPVyqc+iSGPOUf4wRWPU6nIgCtvQdhF8koltpJuiT1GoA+YILykkLjjUdkjtSt91GbG8iO3lM3jxI8w2AmBiwIo8cw+n6i+vEOctsftpJnLOs/uI6wyh6PQusekVEFLCZ7yD8IhF9SjNhEpLkNpAvuKCcyGSsLE3uSK2mG7e9ScsJm80OCwvTyrSlw7CwMCOew94jAWDVI5YeM6uO+DX+ttaGxVPjb2vp7HAiQwNWZBqG0zbwHYRfJMNdTP2sCUkSlZIvuKCcCCzWlyB3JLn1Rm9vIjtBCNXW1rLZbA6HY3svb5ZIJBwOh81m19bWakVt3CGwos5NKa2tOuInzllme8t2quoz4pxlVUf8lFLTjCtgRX1cWfV3EH6RqHe04ZImJ0lUR77ggnIisFhfgtyR5NYbvb2J7IRIh4aGMhgMLpcrEAisXUJJJBKBQMDlchkMRmhoKBGjqRLAijrJ+ovrypId6vNWSYuSrF1CqarPSIuS6vNWdUdEe5FOlyGw0mWiL8e6voPwi6SvH/ua398kEULkCy4opx46SK1W95BreVnkjiRaR3N7E+GHnCgtLeXxeGw2m8Fg2Fnzh8FgsNlsHo9HZ0s4mYxuGljpMtGX0yUpbRDxqo74lSU7luy0s96/smTHqiN+DSIenS3h+ijhfGBlmA/5rBV9B+EXyVTXEzOQJF9wbVA5yeXylStXuru7u7m5BQcHy2QyhNDBgwe9vb0nTZr08ssvl5SUIIS2bt364Ycf4u8bkXZ0dNyyZQuTyezo6Lhx4wabzXZ2dp41a1ZlZSVCqKysbPbs2Z6enr6+vhcuXCB/VwckTe5I3ACTbG8akFigUiAABIAAEAACFkuAfMG1QeWUkZExb948jUajVqvXr19//vz5u3fvMpnMiooKhFBiYuL06dP1KadRo0ZxuVzNw8+UKVMOHz6MENq2bduCBQsQQi+++GJSUhJCSCgUjhkzRi6XD2wfkzsSIWSq7U0DGxTUDgSAABAAAkDA0giQL7g2qJzOnTvn7OycnZ3d2dmJ0e/atSswMBCnOzs77ezsWlpaiHkmsopycnLKz89HCFVVVY0cORKbKBSK9vb2u3fv2tvbEwt506ZNEwgEA9u15I5ECJl2e9PAhga1AwEgAASAABCwHALkC64NKieEUEZGxpw5c0aOHMnhcKRS6ZYtW1atWkV0wIgRIyoqKvQpp/Lycjyr5OrqSpgghK5czpV3igAADV5JREFUuTJo0CC3/36eeuqpjIwMcgHzp8kd2R/bm8wfEdQIBIAAEAACQMACCZAvuLapnDB0iUQyf/78qKioXbt2LVq0CGdKpVI7O7u2trbw8PCQkBCcuWnTJrznycnJCS/qVVVVOTg44BkmuVxeUlJSU1NDzEJZSKcSHQnbmyykR6AZQAAIAAEgYJMEiAtu9312RITkXCLTuIQJXRnRgNjY2C+//BLvVXr//fcjIiKw6MGSKC4ubtasWQihn376KSAgACEkk8leeOEFLeWk0Wi8vb2Tk5MRQjExMXif09SpU9PS0hBCDQ0NK1asaG9vN6J5JjTBnGF7kwmRgisgAASAABAAAroEyMLGBpVTY2Pj4sWLXV1dx40bt3z5cqxvMjIyvL29PTw85s6de/v2bYSQVCqdN2+ej4/PkiVLNm7c+MEHHyCEiDknhND169enT5/+zDPPkO+tmzNnzoQJEzw8PBISEnTJmjkHdyRsbzIzdqgOCAABIAAEHjcCNq6cHp/utLOzg+1Nj093Q6RAAAgAASAwUARAOQ0UeRPXa2dn5+vra2Kn4A4IAAEgAASAABD4IwFQTn/kYbVHdnZ2IpHIapsPDQcCQAAIAAEgYB0EQDlZRz/12kpyR/ZaGAoAASAABIAAEAACxhEgX3BtcIe4cVCs0YrckdbYfmgzEAACQAAIAAGrIEC+4FqWcgoPD//4448HFuK8efOuXr2amprKYDA+/fTTiIiINWvWIIRGjhxZU1Ojr21yudzFxYV4wji5mFKp3LdvHzmHSP/jH/+IiIggDvuaIHdkX22hPBAAAkAACAABIECRAPmCa0HKqaKiYsKECcQrUygGY0SxHvUN9tPV1eXi4qLRaN5+++24uDj88ILW1tZelZNAIHjrrbd6bMzVq1fx46B0z8pkMnd3d/zUct2zveaQO7LXwlAACAABIAAEgAAQMI4A+YJrQcopJCQkKioKh5SZmenp6ens7Lxy5cquri6EUGpq6qRJk8aPHz979uzq6mr8gMrVq1evWLFiypQpr7/++vHjxxcuXOju7r5nzx7s5N///renp+df/vKXjz76CL+d19HRccuWLUwms6OjQygU+vr6uru7e3l5nT59Gpvk5uYuX77822+/dXR0dHFx+eKLL3TnnLKzs6dMmeLp6blo0SKxWIwNeTzeDz/8gBDSOtvW1jZ27FgHB4e5c+cihHTj2rZtG/Eoc+yK+r/kjqRuBSWBABAAAkAACACBPhEgX3AtRTlpNJqnn34aP6OytraWxWLduXNHpVItXrx469atTU1Nw4YNw2dDQkLw877j4+NHjx4tkUhUKpWLiwteU/vtt988PT0RQkePHvXy8mppaVGpVG+++WZsbCxCaNSoUVwuV6PRIISmTp2ampqKEEpLS8MmCKFPP/10x44dCKGlS5fu3bsXIaSlnOrq6phMZlFREUIoMjKSmGfy9/cvLS3t8WxGRgaec9KNCyFUVlb29NNP96n/iMLkjiQyIQEEgAAQAAJAAAiYlgD5gmspyqmysvLJJ5/EcaakpCxZsgSnpVIpnnNqa2vDOWlpaa+99hpCKD4+PigoCGfOnDnzwIEDCKF79+4xGAyE0Hvvvffdd9/hs9nZ2XPmzMGPCM/Pz8eZMplMpVIhhMRi8ZAhQ3Cmr6/vrVu3DCin1NTUhQsX4sLt7e2DBw9WqVQtLS1ubm54Ykz3LKGceowLIcRkMu/cuYN99ulfckf2yRAKAwEgAASAABAAAtQJkC+4lqKcLl++PGnSJBxDeHj4qlWryPGo1erNmzdPf/jBb1DByulvf/sbLjZ79uzjx48jhOrq6uzt7RFCgYGBTk5Obg8/Li4u+ImRTk5OxKai9PT0mTNn+vv7+/r6Dho0CCHU1NTk7u6OHeqbc4qIiLC3t8du3dzcmExmXV3d4cOHcUt6PEsoJ924cF0eHh6XL18mx0sxTe5IiiZQDAgAASAABIAAEOgrAfIF11KU06VLlwjllJKSsmjRIhxVc3NzdXV1Wlrac889J5FIEEJ79+7Fe4bi4+MNKKc1a9bw+XwtNMRr6e7duzds2LDi4mKEUE1NDVZOBw8exEt+Buac9u7du3TpUi23f//73/HSXo9nCeWkGxf2A8pJiyccAgEgAASAABCwKAKWqJxu375NrNbdu3dv5MiRN2/eVKlUQUFBW7dujY+PX7x4MUKoubl57ty5/v7+vc45HTt2zNfXF6/xJSYmJicnk1/oW1RU9NRTT3V1dalUqn/9619/+tOfZDIZh8NJS0vDXaVvzun+/fssFgtPXAmFwnXr1iGEJk2ahLeK93j26NGjbDZbo9HoxoXrYjKZlZWVRgwRckcaYQ4mQAAIAAEgAASAABUC5Auupcw5aTQaJycnvAccIXTgwAEPD49nn30W31vX0NDg7+/v4eHxyiuvXLp06dlnn920aZPhOSeE0Lfffotvx1uwYEFtbS1ZOSGEVq1a5ebm9uKLL+bl5c2aNWvGjBkTJkyor6/HBPUpJ+LuuQkTJvj4+Jw7d666utrLy4vgju+tI87iBURXV1dnZ2fduBBC5eXlLBYLb1onnFBMkDuSogkUAwJAAAgAASAABPpKgHzBtRTlhBBavXo18VSCvoZkveWJe/eMCIHckUaYgwkQAAJAAAgAASBAhQD5gmtByqm0tNQ8T8Kkwsg8ZTo7O93d3cvKyoyrjtyRxnkAKyAABIAAEAACQKBXAuQLrgUpJ4TQtm3bBvztK73iM2GBdevWhYeHG+2Q3JFGOwFDIAAEgAAQAAJAwDAB8gXXspST4XbDWS0C5I7UOgWHQAAIAAEgAASAgKkIkC+4oJxMRXUA/JA7cgCqhyqBABAAAkAACDweBMgX3EfKaciQIQqFwiQEyBWYxCE46ZEAcO4RC2QCASAABIAAEDAhAYVCQbxrBCH0SDmxWCzinnya9cEVnSZAiubAmSIoKAYEgAAQAAJAwGgC9fX1LBaLMH+knHx8fAoKCogTdBJwRadDj7otcKbOCkoCASAABIAAEDCOQEFBgY+PD2H7SDkFBQWlp6cTJ+gk4IpOhx51W+BMnRWUBAJAAAgAASBgHIH09PSgoCDC9pFyCgsL27BhA3GCTgKu6HToUbcFztRZQUkgAASAABAAAsYR2LBhQ1hYGGH7SDnl5uYGBAQQJ+gkGAwGfjsvHSdga5iARCJhMBiGy8BZIAAEgAAQAAJAgCaBgICA3Nxcwskj5YQQsre3N8kmcTabLRAIiDog0R8EBAIBm83uD8/gEwgAASAABIAAEMAE6uvr7e3tyTT+oJyCg4MTEhLIp41L83g8LpdrnC1YUSTA5XJ5PB7FwlAMCAABIAAEgAAQMIJAQkJCcHAw2fAPyikrK8skC3alpaWwYEembPI0XqorLS01uWdwCASAABAAAkAACBAEAgICsrKyiMM/PM8J53p5eeXl5ZFLGJcODQ3lcDjG2YJVrwQ4HE5oaGivxaAAEAACQAAIAAEgYDSBvLw8Ly8vLfM/zDkhhHbs2BEYGKhVyLhDNptN3otunBOw0iUQFhYGO5x0sUAOEAACQAAIAAHTEggMDNyxY4eWT23lhBDy8fHJzMzUKmfEYW1tLZvN5nA4cJ+dEfR6NJFIJBwOh81m19bW9lgAMoEAEAACQAAIAAGTEMjMzCQ/AJPw2YNyysrK8vDwMNU77EJDQxkMBpfLFQgEIKEI7n1KSCQSgUDA5XIZDAYs0vUJHRQGAkAACAABIGAEAblc7uHhobXDCfvpQTkhhNauXRsSEmJETT2alJaW8ng8NpvNYDDs4NN3AgwGg81m83g82BLe4wCDTCAABIAAEAACpiUQEhKydu3aHn32rJwQQn5+frGxsT3aQCYQAAJAAAgAASAABGyVQGxsrJ+fn77o9Cqn4uJiFotlqjfZ6ase8oEAEAACQAAIAAEgYDkE0tPTWSxWcXGxvibpVU4IobNnz9rb24N40scO8oEAEAACQAAIAAFbIpCenm5vb3/27FkDQRlSTlg8sVgsWLYzQBBOAQEgAASAABAAAjZAIDY2lsViGZZNPTwJUzfy4uJiPz+/kJAQU91tp1sF5AABIAAEgAAQAAJAYKAIKBSKkJAQPz8/A4t0RNt6mXMiyq1du9bDw8Mkz3kifEICCAABIAAEgAAQAAIDSyAzM9PDw0PfnXS6baOqnBBCWVlZPj4+gYGBJnk9i25TIAcIAAEgAASAABAAAmYjkJeXFxgY6OPj0+Nzm/Q1ow/KCbvYsWOHl5dXQEBAQkJCfX29Pr+QDwSAABAAAkAACAABCyRQX1+fkJAQEBDg5eWl+3KVXhvcZ+WEPWZlZQUHB9vb2wcEBGzYsCE9Pb2goKC+vh72QvVKHAoAASAABIAAEAACZiOgUCjq6+sLCgrS09M3bNgQEBBgb28fHBzcp3kmcmuNVE6Ei9zc3LCwsKCgIB8fHxaLNWTIkL4/IhssgAAQAAJAAAgAASDQLwSGDBnCYrF8fHyCgoLCwsJyc3MJDWNcgq5yMq5WsAICQAAIAAEgAASAgDUSAOVkjb0GbQYCQAAIAAEgAAQGhsD/B6Yr6nx5YrbcAAAAAElFTkSuQmCC;" vertex="1" parent="9">
                    <mxGeometry x="128.22000000000003" y="121.52000000000001" width="211.78" height="44.13" as="geometry"/>
                </mxCell>
                <mxCell id="8" style="edgeStyle=orthogonalEdgeStyle;rounded=0;orthogonalLoop=1;jettySize=auto;html=1;exitX=0.5;exitY=1;exitDx=0;exitDy=0;" edge="1" parent="9" source="3" target="3">
                    <mxGeometry relative="1" as="geometry"/>
                </mxCell>
                <mxCell id="10" value="" style="group" vertex="1" connectable="0" parent="1">
                    <mxGeometry x="410" y="440" width="380" height="220" as="geometry"/>
                </mxCell>
                <mxCell id="11" value="pod" style="rounded=0;whiteSpace=wrap;html=1;verticalAlign=top;" vertex="1" parent="10">
                    <mxGeometry width="380" height="220" as="geometry"/>
                </mxCell>
                <mxCell id="12" value="Ngninx" style="rounded=1;whiteSpace=wrap;html=1;" vertex="1" parent="10">
                    <mxGeometry x="20" y="20" width="80" height="180" as="geometry"/>
                </mxCell>
                <mxCell id="13" value="Periscopai backend" style="rounded=1;whiteSpace=wrap;html=1;verticalAlign=top;" vertex="1" parent="10">
                    <mxGeometry x="120" y="20" width="230" height="180" as="geometry"/>
                </mxCell>
                <mxCell id="14" value="" style="shape=image;verticalLabelPosition=bottom;labelBackgroundColor=#ffffff;verticalAlign=top;aspect=fixed;imageAspect=0;image=data:image/png,iVBORw0KGgoAAAANSUhEUgAAAMAAAABVCAIAAACQFXygAAAapklEQVR4Ae1diV8T1/Z//1GVJaEqQkIWEEFZXepSihsoKhWs+p7VLlbr1uW1aqviilhrrVgEAbOQhbBkIQRIAiibkARCdsie+X3uDAzDTVijr7G/4cOHz5l771ly7nfOPXPunfAvVRyb/CU9sGwP/GvZnCQj6QFVHJsEEBmAw/IACaCw3EcGIRJAJIDC8gAJoLDcR0YgEkAkgMLyAAmgsNxHRiASQCSAwvIACaCw3EdGIBJAJIDC8sA/H0CvC0peF5T0l57WZOwgA8Zb98A/GUAj311FCD92mfKtu48UuCgAdTIysft45PJVw/W72C/WEskeHPz1DgE/iEmqiGRr31PbFgCQU9tLnIOQtJUvHvryQgR+fhJA/4NJWQhAI7qQoAludGp7e7YX/A8sXrwKEkCL99WyRy4AIJNUAWHFqulxzoEqv83eychctilvnZEE0Ft3abDApQGo+1pZ3cq1NSviqz5Y03byTDCSTFV1wTr+rpZIAFDP9oJIC8xvdzqWBqDBX+/g6iUxSS/jU7x2OxSiIicI/b0A6tle4JApEQQxVtXiTvvnEcsHkCqOraSyui78CAGot6AkQtz0NwLodWGp3zZ1a/X/cjtCHPIuzAgLQKo4dtvWPRCABi9feReGLkPm3wWgoa8uEn1CDNvL+BQRzhIugGQUJtFZCILM76+e7QXGiicOmRK7Qf02u0OmNFY8WVKi0F96OqSQ14WlRHcvEkBYqcIzorfyxSHN0GTsMFy/i9uMjZyrcgGhB0EQi1SBF88wYuDoaaKd7zUdLoB6thdAAGrfUxzSI3hOAI3HL6188YL508DR054RPc4STDi1vfiWxWIAZKqqJQrpDypoGa7fJQ4g0p4RPQS4YPQQx+P0QMQE6ZAztaTGcAHU/+UF3C8YoaBvDLaAmBNA44mXfpsdmhKiKGPFE+LguWgFlYlxLQggaL71PKEkJgnX2MnIXLCOSjRYk7FjLpOI7V67XZa2FdfyvhNhAaiTkekanlVp7L5WpqSyIKf0bC/wTWeUmCvHpYrua2Xd18r0PCHRuQiCuEd0IeOQ8eGf0EgEQbx2+7hUQawm9JU/wrXPDyAodlo1PYKEVJxXFce28MVEjQBe+UWS/CLI5kltL8bVnpQxVFkd/FiKC7FqesalClnxCRziRHXvKb18AGkydkA3qFXTI4ymBTvCPbvwOFRZXb8yQRhNE0bTOFEJbSfP4C7GiOBi0sDR09CYcalCkJtXvSK+fmUCVpeSFh+XFh9vIBgwD4A0GTvwpyQMiMLUXCL0IY3d18o4UQmtFEYrhcGJShifXV/FchollcWPSqxeEQ+ZKskvqvpgTdUHa+pWrq1fmdAcOxPkgn313rUsDUCuYZ1DpnTIlMGJyFBlNXftuuDPDy0TzhEdPyqROEwSkzRUWQ05HQpCEAT1PGH9ygQZZWqpwqQ1xyZBczMXgDoZmZOEPT6v3S7alAdFBZu0DTfJa7c3JqYRbVZ++m+8F0GQsdmVHmIXgiCafUeIvP8wemkAglyDXTpHdNLi4/yoROIdjLvJoe0hcvWX/4534UTrll3EMQiCDH15Ee+FgoHXbofWGnwkRMwFIChxlhWfgLAIrW7jUgX00To+2ks02CxtI6omdpEAgvfCIO+A+G+zy+gbiB7E6U5GJjReuecw3osTMgqTmMeAe/qvmert2OwHpTfPaqDpxOVAREgAQblU28kzUNxSxbGHLl8hmj1cWY2dXcH/jsx7UITISwJoFoCGKqs7z/8YvOLYZbNuQXwiewtKFulNaNeWeE87NLNj2KILu8EAgtbT7mtlxMcu3OzRv15AZs9/CZ00ggaTS9iMQ/p/uS2OofOjEjvPwzsYI99dxScAJzT7jswwo1TnR3vxXiIBAYg4JZCEuepMRGkYDQEo+Plo+MHjYC5VHNtMSIAg7cGXep5QlLqJKAcaQwJoxiF4lVkcQ7fODgw+mx2v4OHeDAZQ9xwZ5eIBNHL9Li5/fgIC0LhUAT09IQgCFa8xgZAxzhEdxov/Haqs7r5W1nbyDHddDicqAUrAZ/yFUiSAZhyCA0gVx27ddXCmA6UsfDE0o8EAmsub0JyNPKvBRUGRw/DXC7xrfgICkEmqEKVugmwOWXYaeVZDHNZ77Vb9ygTiLz8qURhNk8QkQdDB7CHykjnQrBxoFoAojAVvaAV9I+RNQ8UfIWfdO7vSqDl1Dh8GafEt+thaMIAUVGbw4mua/RCuimP3/3KbaLZrWIcbsxiCyEsCaE4AqeLY0t2HIGe5R2b5WkllQdPvDDUZ0GMzgiDy9Jliv/bifyEtwVMecl6DAaSKY4tj6FApGVQNvpqpGqji2O17iiGNITO8kEpVcWyYd9Fr7lwCI7l9aXUgYgQCqxiFEfxEZrhxj/iBO0+dhR0alG5b+CLimKHKauLSIEvbSuzF6Ll2Xol5WEgAqeLYgoRUqGrgm70H10phQAMQBDHMgYP+UnhrHcoOXcOhN2eIXnp/6QUABK0sEIBUceym9ZuhHAUEbcIrfJKYJMih2GRgteZORiZU1vPa7U3rNxMdqqAy+8ofBWMIQRArX4yflDBV1Tq1vR6dHuedC0BKKku86RNI4KS2l1j+VgcdlEMQxG+zm6pqcY34AQ9cI0ZA+RyCIHZZW3/p6dcFJSOXrzpkypCZOyTkfblcAECQl4MBpKAye66VQcOgspAwNTcYZAiCBO+HIAgScq9RnJgWjEJIKXY5TMi+5wKQKo4tozCD9+CIDwEhV7qQGocqq6HJDg66EONcTxKQnPfiMlwAqeLYwmgalOiAGENYyBRUpmhT3oII8Nrtkvyi4LowdnaWu3ZdcO4CTQyCIMToNQ+AVHHskHtwRLMFCanBCzSkMTheYpLn+bBeu72VwngvwLEYI5cGoK4jJ0MK5a9NDZ5d4rk7GYXJXbuu+1pZcG6BbYaD9z3iU+bxrJLK4kQlSPKLgsGKTSq2JUdMniAAjfKEkPH8qMRgiOAHkrDddWnx8Xk0Bu/CYiq4a9eF5BqXKkSb8iAz3uvLBQCEnYDB/lZ9sCZkeMAiBCcqgbsuBx8vyM2DBiupLGE0rWZFvCA3r+3kGew8UNvJM9ipDGE0bTE7XK0URv3KhBdrkiX5RZgErKAnyM2rWREPaWxJ24Lb82JNMicqIXiq+FGJgtw8fFjVB2ugjdXm2KRgjdLi49x1OTUr4qHBuHwllVW/Ejik8/yP+CflrssJPkSAs0BEO5WloDIVVKacwpRRmK0URnNsUkssg3iHQCx/y+UCAMJOwGB/F7RPQQWfE/udy7NY/iGJScLOA0likuYZOZdGJZXVSmFgErCCXkghRHvmQSc2PfN/Rkhjc2zoEiJksILKFMfQ8U+6yLlXUJmCaBo/KpETTXsZQ2tYk8JZxa5ZuZZHSxOuy+XG0NqZWYsUBdnzLi4XANC7UEnKnN8DUgqDl5DKY2Z0nfxGe+bSq0s/D5TdH378TP/nc6u83dgg1j16qty8S8nImF/O/6aXBFBYX6/0LiapncqSMzLNkla3YcxrtfmdroDXS0zefTa7W2fou/iTdvdhOYXZTmW1UVlK9FdOAUuenDK19impLGwpxAJwO3r5dm0mARRxAAIlfgqj53O4AEvEEIIgPrvDJGrq/eZyc9JGIZXJjUrkRCVwKEkcKoO/it2QsJ7zIathFVu4OplPSRKvYjdE00Qx9FYKoyWWgcGuPej0+jKwRQIoEgEEJjJzp2HBY0k+n9/l1ldWa89ckh86pjjyn97vrw7cKu+7Wqb745mhur7/2q2+n28M3al49d2Vts9Ot392Wr63uCl7Z3PqJk5UQiOV2RrHlqMng5cNJhJAkQqgOPbrry443wxDgSfkpdsw5hk3BVwur8Xqn3Qifr/f40F8Pr/bHfB6fROT4K0Yv99jNE32DTgH35hbFQMPHvddLZNv3yfbsquJlt4cm4SFpaUGIRJAEQqgdiqrKTZJv2AQCgmo+RsDAcTnRxAk4PW59aOTA0Nv7j/qPvtdS9aOtuScllhQ5Fx8QIo4AGHpnoLKbENX6Da0HIJlfwoqE+vFGrH6E7ERY1HOZiHKmYcFyzexAZgWLC3FvBnc244mrZij8ZEYgVkLNUJyFnOjyynMjrwDE13a+fHwVno9JrO9Qz1Wz1ftL+3IBu+oYE5Y0M7IAlAblcWPTuSBEghICbHEkBtD50Ylgt9pAmSLaC/aSMN6ZzdOsXDQV8+mEsxoVEiQHF4U0CiMTRJE0wTRNGEMHSOItAjtbUDfZRNG0xrQkVgjGIZeYlx4I04QB4hiQQEMSzsWnBsphdHIzhr57U97h9qh6fFarF6LdflwCQQW5PU7XT6Hw8gVvv7mu1baBlX8rDctQxocQQBqp7JaYhkvVq5t2LC166sL6m8uq06f6zpzSXv+R9Xpcx1ffKu98GPX1xdVp8+pz36n+fYH0PvVhe6L/+388jzoPf+j+izK8vVF7YUfO774dorlzCWU5TImp/PL8ziL+tz3mnPfY3LUX1+UH/xMtr9EcaBUVnBEVnRUXojSB0rl+0unGg+UygtL5IUlsgOlssKStqKjssIS2f4S+f4SecERtPGI4kCp/EApJke+Hx1ZcAQj5PtL21Cx3Qc+680rCjkfeKOSyhJE0+pWsTWnvx19wTHyRY7uXo/RtCAI8AE+uyPgdNk71DZpm02h8hhN/olJZBEwQnw+n8Mx+vT569PfdjKzcJNCEhEEIBX6RCBJTLM0trgNYz6rDTys2uwgMXS5/U6nx2zx2R1IIIDdiyA9dEx4zRbfxGTA6/VarIAlEPDZHR6zJeBy+Z0uwIKedfRZbV6LNeDx+CedgMUxgfj8U/e03+9zODxGk89q801MuoZ1bsMYeMnaMOYa1oEM1GpzvhlxG8cRn9+tN7h0hoDH4xk3uYZHPGaL3+l0Duvc+lHAMmZ0vhnxORw+uwOwjBmRQACwjOj9TpfXbHENj3hNZr/bPXqrois5N+SUYI1NsUk1MTTZx4VmcXPA7UECgYDHg4NjQcKh7Xlz92HX4ROqnYXy5Jz2zbt6jn0xcO4HZ//g4sOYXdU1+qSqa92s0zWQzZEFIFUcu5Odo79S5h4a9o4avWPjXuO4Rz/qNU4TJjNoHDV6DGOAGDd5dAbvuMk7hg7DWEzmGZbp3qkBmMDpRiBkdEqOW2cAWsbGgUAjqsKI0igL6J1WjbNMjcRUjwFer8k81YjxTrMAe4jWjo6Zn9d30uCX6VopjMYYuiiGLolNAvsYHzL1T+F3dheEDjh+1KFuLzgCtgLjU1sS01tpG6T0jXJGZhs7W51/0NIsA09qi/tx6Qx2ZYdmwzYIN/hlxAFIFcfu3ryr+6O9r3Yd7i/+T8/u4q6te9QHj6kPHuvcsltdUKI+fKIr/6Bm537t4RPawlL15l3a/Ue1h09odhRq8g9qDh3X7v1UvSlfU3RMe/CYZvNuzd5PQe+uQ9rtBdpDxzX7S9W5+ZrCEtC4c78m74Dm0HFNQYk6N19b9Blg+WivZvdh0Lv7sHrrHu3BY9qiz4DAfUfAyLwiTLWmELBo9pcCmdv2aXcdAr17ijVbdmuKjmmKjgHD9n4KGvMPalDV2v1H1ZvytYWl2sMnVKxs2eqUlliwdSingCeGNiqLh75aL9mc35y9U5K6Sf3N5cm+gcVN9Mwo5+AbVWFJc0qOeHUKBCAFM0uRnNOxvxSLlzM881IBr9ej02s2bsdBQyQiEUDAvg+TMSulVCYnOpHLzOAnZzVvzhdlbOOn5kpyPm7KzeMxMwTsLHFKDj9pA5eeLkrOFrAyufT0BmaGOCWHm7ieS0sTp+RgjUJ2lig5m0NL49HTxSk5DYyNXHq6kJ0lZGcBFsZGcUoOj5aGycEaBaxMUXI2l5bGQ+U0MDMwFtBIT+cnbQAs9HQuLU2UnD0lB1eduB5oQVmm5EyzYNYC1Zi1jI1NyTlSWnonPYMXlSgrOuroeeXoee3Q9DjfjCB+8Ly9pB+bsqM1J0+0KjkkgJTsbGlO3psHj5e0IILVeWBIHWoti1QATf8zcimFIaSlv770s0PTY5W32zvUE6/6bMoOW5vKruk2NbWO1nJN4mZLq3ysnm/kCCxSxThfPFbHMzfLLC3ysTqekS+ySBVGrnCsnm9plZvEzaO13HGhxCJVjL3kGzkNgEXQOFrLNUtaLS3y0TqekSe0SNuMPOFoHc/SKjc3SQFLg9jcKjdyGsbqQaNJ1ISpNrfIcNVGvmisjmdpkZubZWN1vHG+GKjmCDDVZky1qAm1ljf2ssHcKh9vEI/Vcm3i5sFT3woS1ytPfAnyszB+9NX1kuTskABqY2VJU3Kb0rf2X7/rd7uXpMSp6eneuocYezA60gGkpLLkFKaxsgbx+UD5y+cDO4uA8Ae8XnAb+fwBjwekmWgvSLexRjfa6AfD/C5QkAUj3R7gOJ9vmsUHyrUuNyrHF0BZAqiKKRY/YMGEgwTcBXgBu9uDsYBSL6oa04IFDCDB5wPPO35gJyCw2p0fpUM1Bny+sSdVwmhaz5lLnvElPGoFg8CiaG+IY4YCUIacnd28Lle2o8AkaV1SBHL1D/WXnOqkh9j/jzgAtaGIkVIY+K8sIa3n0//oH/45cuOeofyx4fdK3a0HulsPDL9X6h/8obt531Dxh+H3ypGyct3tCtB4/3cw8ren+t8Ai/7eI8PjZ/q7v+nKyvWPnuorAMvogz/AgLJyfVm54dHT0fLHuut3DRVPRh891d+8b7jzcPT3SsOdh/qb90cfPTVUPAG99383PHpquPVAf7Pc8NtTQ/lj/Y17hoo/UJZy/e0KIOfhE1PNSzNPZOaJxqvrLRyBmS8y1/HMNRwzT2jiCMar680cgZknNL/gWF5wrTyRlSMwP6+31PEGTnzdnpj++rMvXH2DAZc74HL5LFZwMyzxxz1u6rt5X7A6WbRmOgeib5AmbWxiZkqSsxuzd2pOnYO+bmB+Da6+wf6SU12s7ODwE3H/N74dPSlWsyKeH5/SQE9/viKen5gmYGZwElK59PTGjG2ClJyamERx+pbGDR/VfshsYGVKMrfzmRl1q9mNGz4Sp2+pjk4UpOQ0Zmzj0tI4CamSjO3CdbnVUQnitM2NG7fVr0nmMzY2ZmxrYGXWxzFE7CwRK7M2li6gownN2lTOarY4OVvI2PgiOlHI2ChOzuasZvPWpoJcir6hNoYmZmeJ2Fl1VAYfTYz4ietffsgELMyMF9GJgqQNTVk7eGi605S1Q7x+84tYeuOGrZKM7S/jUwTsrObsnYLkbP6alM7MHep1mzvWpHYl56rXb+mkb+xITFfFsbXZeb2fHBw4/tXg5+deHT4x+XrJSTR4WaVL23PlZs1qdgMzg5e4XkDf0MDMAG7Zkt9x9JS5WTY/YvDegNvj1PS82ndknmpQZEWgdipLFEMXJWf3fX/N8LxOX10P/j6tNtS8NNS81FdWj1bX62teGv56YXhWAxqr63VPnxuq6wH9rMZQVTvFUjnDoq+qBb3P6wyVNaC35iXGoqus7r9a1n+1bPDuw8Gb9/t+ujF4+8HgnYr+n28O/Hpn6O7Dget3+3++CRpvV4Dem/eH7v3Wf+0WxjJQdr//5xuDt8qH7j7sv3Jz4JfbgOXG3b6fwO43xjJw497Qvd8Gfrndf+UmaLxVDljKyt/crhg6+/2cL/esnvqerrZVyZpdh9zzfqkoPtkQMTmiH2ts7jz/Q0vxibZjXyiOft5x6uwYX+QgfLMWxAJdul71WzmCrpRc1eqUkLEnEnMg7PRT18cH/I6JqRwCSyD8fpBP4DRWTsUa8b9gexBNO/BhC7KgCQ0xB8KyHJBdTaVNU4nRVNo0nQOBTAvd6Pa73SgLmpCh6RfgxXIpNEWbluMnsgRcbp/VNvTF+Y6EWV98FjxPnSmbBj8/59YbQO619B+vze61OybfjLh0eq9jAjqYFlIeNsbygvvm60udSSGSHsjIyIpAYMcxjq1O2zp656FN1OzU9NgbW6080UR7l0PebuWJ7E3SSXW3TdhkbWicVHc7WhVWnsjRqphUd1sbGm3Cpkl1t12CsrSpJpSdVr7Y1tji1PTYRM2ApVPjkCmBnBb5ZJfWJmi0CSWApUkK5MiVkx1qIEcMVNsaW6x88UR714RCRVAtsQkaJ7u0jhY5YJG2TXZqAAvRWmXHhLIDsDS2zljbpZ2ytkU+qe42/VU7ePIsNBkhL6VpW5TFJ0wtMpuywzk0jD4NLAdMIeFCbAw4XT6rzVLHGz73A1hS49eHtAdqjDgAAftWpXQyMrtSctWpW0CKkLKpKyW3i50DCHaOet1m0JWyCVyysvG/2DDQi7Ek52LDwGXqFpgFlTbDMi18Fsv8qjEW1IAZObjqaSKEtdOqoZkIeYm+hbK2mkLXv+QbqmrNzVJHb9+SHqCIEAlBY+c6XK6JNpX5ed2rfUe6t4R4Vg9pG9YYkQCaLgLNY/f/h652KkscQ6+OTnj9y22vyQwWR6938bsQIeCCNaGLvs9kcQ++cfUPGW7cf/PNd13o/bYMr5IAitADZdj7T7VRCZLM7cbZXz4xFzJAvgWKUlMLXMAFSoUBlxvsFZrMnmGdU9Mz0d5lelptuHFv5NKVnh2F2pxPlgEaIgsJoAgFkJLKksQk1ayI1wZ9m2BIAFlquaO3K0YuX9Vfuz1aVm64flf30w3dD78OX/ipr/jf4OtBi45psz4Gqy07RzX9oEeEwvJoEkARCqB29N1WyeZ8I0+IB5UQ0EEfSA037vd+clAVx+5ISMPqSR3x6zvpG7EtxY41qfje4vJQMg8XCaAIBVBzbFLdyrVth4/Pc3zHb7N7hnWDJ8/Of7RonukPv4sEUIQCCJwKT8owCyVYKhMcezwGcKjo9f6j4YMgHAkkgCIUQKo4tmbDtoGjp02VNabKGkstF1StBI1gB40rtLxsGDp9vmfbvnDm/q3wkgCKXAC9lQl+10JIAJEACssDJIDCct+7vr8jXz4JIBJAYXmABFBY7ov8CPGuLSQBRAIoLA+QAArLfe/6/o58+SSASACF5QESQGG5L/IjxLu2kAQQCaCwPEACKCz3vev7O/LlkwAiARSWB0gAheW+yI8Q79pCEkAkgMLyAAmgsNz3ru/vyJf/f4ho6Jz1gCK/AAAAAElFTkSuQmCC;" vertex="1" parent="10">
                    <mxGeometry x="128.22222222222223" y="79.4" width="73.188" height="32.4" as="geometry"/>
                </mxCell>
                <mxCell id="15" value="" style="shape=image;verticalLabelPosition=bottom;labelBackgroundColor=#ffffff;verticalAlign=top;aspect=fixed;imageAspect=0;image=data:image/png,iVBORw0KGgoAAAANSUhEUgAAAxMAAACkCAIAAABjH+RXAAAgAElEQVR4Ae2dC1hTR/r/2VXrBYipNG0VBEWRFWpLRSQVrbZaL8VqW3H7k/pzbW3oz+1aun+z1trYG1ut3MKlFUEtoBZU8IbUigVNvaExWBTlqoggQUAItwRynf+Ds3s8TUg45ISQxDcPj8+cOfO+M+9nJjlfZ+acY4fgAwSAABAAAkAACAABIECNgB21YnpL5ebmhoWFBQUF+fj4sFisIUOG2MEHCAABIAAEgAAQAAKWQWDIkCEsFsvHxycoKCgsLCw3N1evpqF2wkjllJWVFRwcbG9vHxAQsGHDhvT09IKCgvr6eoVCQa1eKAUEgAAQAAJAAAgAgX4noFAo6uvrCwoK0tPTN2zYEBAQYG9vHxwcnJWVZVzdfVZOO3bs8PLyCggISEhIqK+vN65WsAICQAAIAAEgAASAwIAQqK+vT0hICAgI8PLy2rFjR1/b0AfllJWV5ePjExgYmJeX19dqoDwQAAJAAAgAASAABCyKQF5eXmBgoI+PT5/mn6gqp7Vr13p4eGRmZlpUzNAYIAAEgAAQAAJAAAjQIZCZmenh4bF27VqKTnpXTsXFxX5+fiEhIXK5nKJTKAYEgAAQAAJAAAgAAWshoFAoQkJC/Pz8iouLe21zL8rp7NmzLBYrNja2V0dQAAgAASAABIAAEAAC1ksgNjaWxWKdPXvWcAiGlNPZs2ft7e3T09MNu4CzQAAIAAEgAASAABCwAQLp6en29vaGxZNe5VRcXMxisUA22cA4gBCAABAAAkAACAABigTS09NZLJaBZTu9ysnPzw8W6ShShmJAAAgAASAABICAzRCIjY318/PTF07Pymnt2rUhISH6bCAfCAABIAAEgAAQAAI2TCAkJETf3XY9KKesrCwPDw94GrgND4ju0NRq1NWFWltRWRm6cwe1tyOFojuT/MFlGhqQUKh9ilwM0kAACAABIAAEbIuAQqHw8PDo8TlPPSgnHx8feG6TbQ2AP0ajViO5HP32G+Jy0cKF6KWX0IwZaNEi9H//h77/HuXmoooKVFeHiotRWlp3mddfR3v2gHL6I0Q4AgJAAAgAARsnkJmZ6ePjoxuktnLasWNHYGCgbjnIsR0CanW3bFq0qPtvwQL06qvd4mnaNDR1KvL1Rf7+3UIqIACx2Wj6dBQQoPnqK6RUIo3GdghAJEAACAABIAAEKBAIDAzUfT2LtnLy8vKCl6tQgGnNRTQa1NKCxGLU3IyamtCtW0ggQNHRaMmSbv3k64t8fTXTfDV+fuitN9GhQ0gms+Zooe1AAAgAASAABIwkkJeX5+XlpWX8B+WUlZUVEBCgVQIObZMAnkPSaLonk9RqpFJ173OqqNAcOSzfldSQ/EO94GdZa7O+RTq1Rt3Q0dDQ3mCbcCAqIAAEgAAQAAIPCQQEBGjtdvqDcgoODk5ISABWjycBpUrZ3PFg9+WkZT8tnZ8yd37qvMU/Lf7nL/88U3lG0iGRq+RKtVKhUkgV0psNNz/L/Wxp2tJDNw89nqwgaiAABIAAEHhMCCQkJAQHB5OD/YNysre3r6+vJ5+G9GNCQKPRlDWUrTq8aubumexdbL8kv6mJU6fumDotcRp7J3v+nvkhx0I+z/v8qzNfvXvoXfZO9oxdM77K+6pT2fmY8IEwgQAQAAJA4PEkUF9fb29vT479kXLKzc2FpToymscqrdaoKxorjpcdF9WKCusKD5cc/vjExwv3Lpy5e6Zfkp9vou/UxKm+ib7TEqdN3zl9TsqcL05/0dHV0SMijUajfvjp8SxkAgEgAASAABCwLgIBAQG5ublEmx8pp7CwsA0bNhAnIGGTBIh9TWq1Bqf1halSqxs7HlyuEab8nsLN4QYdCHp7/9sfZX+UfDW5pKFErfnjk5/+60Wj0bS3t18WXi4rK+uuAD5AAAgAASAABKycwIYNG8LCwoggHimnoKCgfnpLXWlpKY/HY7PZDAbDDj59J8BgMNhsNo/HKy0tJXrOiIRGg9rbVUVFHSdONB0+3Hjq16bCwvbGRoWuxFGpNJWVnUePNmZk1qs1apVapVQrVRqVWqNWax5qLoR0rTQajUwm+/7772NiYmg21YjowAQIAAEgAASAQH8QSE9PDwoKIjw/Uk4+Pj4FBQXECVMlQkNDGQwGl8sVCAQSicRUbh8rPxKJRCAQcLlcBoMRGhpqXOxyubqoqGPVqpLZs39nswv8/Qteeunq7Nm/L1p0/ZNPKrKyGuvru9rbVRKJMien6cMPy157rXDu3MJLl1rUarVUKr1z586NGzcq71Ter79fV1eXk5OzefPmrq6uB01NrW2tKpVKrVYrlUpxnTgyMpLP54vFYtXDj0KhUCqVCoVC0iJRKpV4LU+hUDQ1N7W0tOAcHJFGo+kuJpE0Pmjs7OzCykyj0ahUKrlcjp1IZVLCj0KhaHzQ2NHRoVKpsAe1Wi2XyxsaGwjPuDq5XK54+GlpbWlrazMOIFgBASAABIDA40mgoKCA/EjMR8qJxWKZdnt4bW0tm83mcDggmEw11CQSCYfDYbPZtbW1ffV5/XrHwoXXAgOvL11aNG9eIZtdMG2ayNe3+8/Pr4DNLggIuLp48fV58675+xf4+RXMnHk1NbVOKu0qKCgIDAx8+umnFy9ezHz4mTRp0t/+9reTOSf3799/9OhR/G9jY2N5eXlSUlJERERMTMzevXtvV96+dv3azp079+zdcyzrWPz38Q0NDXK5XCgUJicnZ2Rk7N279+DBg42NjZqHn5s3b2ZkZOzatSs2NjYhIeHq1d81Go1SqTx58mRSUlJWVtahw4fi4uJiY2NzcnIKCwv37dsXGxv7ww8/CIVChJBcLr948eLu3buPHj2anJx86NChlpZu2Xfr1q2kpKSUlJS8vNPff//9yZMn+4oOygMBIAAEgMDjTKC+vp7FYhEEHimnIUOGmPZddWw2m7wuSFQJCZoEwsLC2Gx2X53IZOqODhX+a2tTXbnS9u23VUuXFr388u9YKk2b1i2Ypk/vllBvvHH9558burqUEomEzWY/8cQTa9asuX///ttvvz148OC4uPj29vZjx479mPyjVCptaWnZsWOHWCzu6uo6evRoZGRk+v70rq4uhUKRlZUVGRm5/eFn586d9Q0NIpGIz+fv27evs7OzoaEhKioqOTlZoVCo1WrhFWFHR0d7e3t6enpERERCQoJKperq6jpw4EBERERsXGxxcXFRUVFkZGRUVNTOnTvr7tdlZGRGRUUdOnRIrVafP3+Bz+cfPXpULpdLJJLo6Og9e/YoFIqbN2+Gh4fHxMR8//33iYmJFy5cUCr/M0fVV4ZQHggAASAABB5DAgqFYsiQIUTgj5STnd2jNHHa6ERoaCiHwzHaHAwNE+BwOEYv2xGeNRokkSivXm1LS6v/6qvKf/yj/JNPKmJias6cab5/X/7wAZnq6urqCRMnODg43Lp1WyKRzJs3b/DgwV9//XVHR8fevd1TPsIrQoVCUVtbq1aru7q6kpOTo6Kirv5+FS+cpaSkREREJCcnSyQSqVQqk8l27toZHR19/fp1pUrZ2NgYGRn5ww8/NDU3EXfkyeXyI0eOREZGJicnq1Sqtra2xMTEqKiooqIitVpdX18fFRUVGxv74MEDlUpVcPX36Ojoo0ePKhTKhIQdUVFRZWVlKpXqfn1TVFTU7h93t3e0FxYWhoeH7969+8GDB52dne3t7ZiA7j4tggwkgAAQAAJAAAiQCZA10iO1RM4llzYiXVpaymAwYJHOCHQUTSQSCYPBoL8Lm7jVTqXSqFQPt3+T7rnTaDQPHjwICAiwt7c/efLkzz//PHToUEdHx4MHD3Z2dubk5ERERERGRh4/fryzq1Oj0bS2tiYmJsbExHR0dGg0mo6Ojp07d0bz+VVVVfg5BY2NjVFRUZGRkRkZGTk5ORkZRyIiIn7Y/kOzpLm+vj43NzctLW3//v3ff/99ZGSk4DeBWq1uaGiIjo7evn17e3u7Wq0uLS2Njo4+ePCgSqVSKBS7du2Kior65ZdfJBIJ9nz48OGcnBw8TZWcnNzR0XH48OHw8PD8/HyVSgVqieIAg2JAAAgAASBAJkDWSP2inHg8HpfLJVcJaZMT4HK5PB7P5G7JDvG9chcvXhw9erSLi8vYsWMnTJhw4MABvLjW0dFx/PjxqKgoPp9/+vTp7u3hYnFMTMyOHTtwgfr6+ri4uO3bt8vlcoQQ3nIUHR0dGxtbUlJy/373TvPa2tqamprm5mZ8R55QKJRIJPv27ePz+Q2NDf8x4UdnZGTg/eZpaWl8Pj87Oxsh1NXVFR0dHRMTc/v27cLCQiyw7ty5gz3fvXsXLyDGxMRERUXduHFDre75SQrkkCENBIAAEAACQECXQL8rJzabLRAIdCuGHBMSEAgERux26lMD1Gp1bW3ttGnTpk6dmpeXJxKJGhoalEolngpqb2/v7Ow8f/58VFTU4cOHFQpFWVlZZGTkgQMHlEqlSqWqqKiIjIzct28f3j+HZ7Cio6Pj4uJqa2vxrnC8SJefnx8dHc3n87u6urCKio+Px/fHHTp0CO9eIqQSn88vLCxECN25cyfm4Ucmk+GpqYSEhKam7oU/4tPW1hb98IPz+xQ+FAYCQAAIAAEggAn0u3KCpTozDDW8YNevFSkUivLychcXl+HDhzMYjFGjRs2dO/f69esKhSI9Pf3q1atSqVQsFsfFxVVVVSmVypKSksjIyCNHjshkMoVCcenSpaioqJ9//hk/NQDfKHfs2LHY2NiLFy/ibU/4mQJXrlzhP/zcu3fv4sWLfD5/586dra2tMpkMK6pff/0VISQWi2NjY+Pi4qRSqUajOXfuHJ/PT0hIUCgUKpVq//79sbGxhYWFsoefzs7O7l3nQiGfz4+NjcXzXv2KC5wDASAABICArRLod+VErsBWIVpCXP3KGW9U+uKLLzw8PNauXbt8+fLRo0cPGTLE19e3s7OzpKQkPT09JSUlOTlZKBTiiSiJRLJnz564uLjDhw+3trZmZGSkpKRcunSJvEzW2tqal5e3Y8eO5OTk/fv340U0mUz2888/R0ZG7tq16+bNm8eOHYuPj7906ZJYLE5NTU1JSSkuLkYIXb16dd++fXv27MFPgcrLy9u7d++JEyewf4lE8uuvv27fvj0lJWX//v3l5eUKhSInJyclJeXHH39UKpWW0GXQBiAABIAAELBGAuQLbr/scyJXYI2ArKXNfeWstT9a65CIGucrlcoDBw4wmcyTJ0/ix0gWFxc7ODhMnjxZLpfjHd+dnZ3kbdd46a2zs3u3OHGvnFYtOF+pVEqlUqy3iMJ4pgp77urqfhKmlhN8inCIH79JHBLlZTIZbhWRQ5ZuRJiQAAJAAAgAASBAkQD5ggvKiSI0SyxG7she29dX9aBQKPbs2ePo6PjDDz/IZLKOjo78/HwGgxETE2PYFZYyhstotZasfrROGTgkrAyUgVNAAAgAASAABOgTIF9wQTnR5zlgHsgdaUQjCOVBJMhO1Gp1U1PTxo0bvby83nrrrZUrV77yyis8Hq+5uZmKKurRJ9m/vjRhSCT0lTScT9NcyzmeviJn9uofmxgopsZvXSY7pZfWbSQ9f2ANBIAAEAAC/yFAvuCCcrLiYUHuyP4IQ6PRdHZ2Njc337hxo6ysrL29nXhDXI/VGVAJPZbvMZNwgt9Yh+UF3l2O02q1GjcDvymPLOPwKSwg8JMR8Hpft08N0nS/r7j7cVXkYuTVRvTwNcb4xkC1qrsk8ens7Kyt6X7aZ2trq1qt7uzslMlkhCuVsvu1feQGq9XdDxGVd8nlcnlLcwv5FI5aqVQKhcK2tjZiCZJYfMTBdh/+tw3E4iMurBsFzr937x75PYA94oVMIAAEgAAQMIIA+YILyskIgJZiQu5IS2mT6dqhVqsvX7qceya3s7Ozpqbm/MXzxSXFCoVCJBIJLwsVSsX169fPnj1bK/7PK/w0Gk1lZeX5i+clbZLOzs7TZ07/XvB7t0C5IiwvL+9o62hubj6Ve6pV0nqj9MaZM2e6urpu3bp1+szphvoGLNe6PdypvJR/Kfd07mlB9xOq7tXek8vlVXeqWlpaCkWFrW2t0THRdeK6+/fv19bWtra05pzKyf01N/9ivkQiaW5uFggExaXFSqVScFZw6PChttY2SaPk2rVrSqWyQFRw5swZ4jbD0tLS48ePd7R3nDt37lL+pa7OrvyL+QVXC7obfFl4KudU3uk80VWRUqn8/drvp0+fbmtvKy8vLy4tvnb9WklJiUKhyL+Uf+nSJblcXnm78sxvZ9rb20UiUUFBQUPDf8IxXVeAJyAABIDA406AfMEF5WTFo4HckVYcRk9Nx9Nd5y+cLy8vr7lXU1pa2tDQcEV0RSKRZB/PzsvN65B2/Pbbbw8ePKipqcEONBrNzZs3c/NyJRLJtYJr1Xerf0z5saur61j2sQsXLzQ3Nt+/f7+yslKtVn+//XuZVKZUKjMyMk7nnr4iuoKVk1qtLiwslEqlV65cOX36dFdXV0lpSYe041rhNYlEUigqVCqV8d/Hq1Sqe/fuVVVV1dfXXxNdO3PmTGVl5b2ae0VFRadyTp07f66jvePY8WNCobC9tf3B/QeXL1+Wy+W/5PySmJTY1dWFZ7aqqqoqKioUCkXe6TyZTNbW2nY8+/iRo0e6urqOZx0vul5UdL0oLzevq6srITEh52ROdXX1/br7BzIO7E7ZnX85v7W19cqVK9euXevo6Pj9998fNDxQKpV5eXn70vbJOrsnw3qCCnlAAAgAASBgJAHyBReUk5EQLcGM3JGW0B4TtgEvb507fy731+45p5KSkuyfs2/duqVQKISXhIKzAoVCUXKzpL29/cGDB7hejUZTXl5+7Oixjo6Orq6uk7+cLC0tVSqVl65cys3LbWlraWlpwdNL5eXlJ7JPKBSK6urqrKysuto6Ys6p6k5V9yzOncqia0VKhfLOnTsnsk9U3q6USqVYdR09erSqqqqpqanxQWNLS8udW3duFN1oaGhoftDc0tKSlZVVdL1IqVSeFZzNOpbV2dnZKmmtqKhQKpUnfj6B71LErX3w4MH9uvsqlerm9ZsKhUIqlf7888/nz59XKpUioaj6bnX13eob128olcob12/88ssvra2tSqXyiuhKcWlxzb2a7irOnj1/7rxcLr97525rW/ca4q2KW3fv3r1TdQeUkwmHIrgCAkAACCCEyBdcUE5WPCTIHWnFYehvOt76g/eqS6VSrf09xA4hwoHWBiat8njTEn4PDOEZJwgP5Ocg4PLkRyeQtysRW6CI7VPks3gP1qMyGg1+ewyhacincGZ3ge6dTf/ZidVd4L9brXAjsUl31Jru18h0J7q3V/230MPTmAkRDiSAABAAAkDAJATIF1xQTiZBOjBOyB05MC2AWoEAEAACQAAIPAYEyBdcUE5W3OHkjrTiMKDpQAAIAAEgAAQsmwD5ggvKqYe+It/o3sNpi8kid6TFNAoaAgSAABAAAkDA1giQL7g2qJzkcvnKlSvd3d3d3NyCg4NlMhlC6ODBg97e3pMmTXr55ZdLSkoQQlu3bv3www9x3xJpR0fHLVu2MJnMjo6OGzdusNlsZ2fnWbNmVVZWIoTKyspmz57t6enp6+t74cKFAR8X5I4c8MZAA4AAEAACQAAI2CoB8gXXBpVTRkbGvHnz8Fbf9evXnz9//u7du0wms6KiAiGUmJg4ffp0fcpp1KhRXC4Xb8WdMmXK4cOHEULbtm1bsGABQujFF19MSkpCCAmFwjFjxsjl8oEdIuSOHNiWQO1AAAgAASAABGyYAPmCa4PK6dy5c87OztnZ2Z2dnbgXd+3aFRgYiNOdnZ12dnYtLS3EPBNZRTk5OeXn5yOEqqqqRo4ciU0UCkV7e/vdu3ft7e2Jhbxp06YJBIKBHSXkjhzYlkDtQAAIAAEgAARsmAD5gmuDygkhlJGRMWfOnJEjR3I4HKlUumXLllWrVhE9OmLEiIqKCn3Kqby8HM8qubq6EiYIoStXrgwaNMjtv5+nnnoqIyODXMD8aXJHmr92qBEIAAEgAASAwGNCgHzBtU3lhDtSIpHMnz8/Kipq165dixYtwplSqdTOzq6trS08PDwkJARnbtq0Ce95cnJywot6VVVVDg4OeIZJLpeXlJTU1NQQs1AWMlDIHWkhTYJmAAEgAASAABCwPQLkC64NKqfY2Ngvv/wS71V6//33IyIisOjBkiguLm7WrFkIoZ9++ikgIAAhJJPJXnjhBS3lpNFovL29k5OTEUIxMTF4n9PUqVPT0tIQQg0NDStWrGhvbx/YwUHuyIFtCdQOBIAAEAACQMCGCZAvuDaonBobGxcvXuzq6jpu3Ljly5djfZORkeHt7e3h4TF37tzbt28jhKRS6bx583x8fJYsWbJx48YPPvgAIUTMOSGErl+/Pn369GeeeYZ8b92cOXMmTJjg4eGRkJAw4EOE3JED3hhoABAAAkAACAABWyVAvuDaoHKy1W7TjYvckbpnIQcIAAEgAASAABAwCQHyBReUk0mQDowTckcOTAugViAABIAAEAACjwEB8gUXlJMVd7idnV12drYZAigtLeXxeGw2m8Fg2Fnzh8FgsNlsHo9XWlraT9yAFXWwXZLSBhGv6ohfWbJjyU476/0rS3asOuLXIOJ1SfprXAEr6uPKir6D8ItkquuJGUiCcqL+HbToknjM9bd4Cg0NZTAYXC5XIBBIJBKLJtJb4yQSiUAg4HK5DAYjNDS0t+J9Pg+sqCOrv7iuLNmhPm+VtChJVX0GiUXW+6eqPiMtSqrPW9Ud0cV11CFQLAmsKIJCCFnXdxB+kaj3rOGS/U0SIQTKyXAXWM1ZPOfUfzNPtbW1bDabw+FYu2DS7VGJRMLhcNhsdm1tre5ZI3KAFXVoSmlt1RE/cc4yaxdMulJPVX1GnLOs6oifUmqacQWsqI8rq/4Owi8S9Y42XNLkJInqbFY55efn+/v7KxQKIlQqCT6fv2bNGgMlf/3115qaGt0CCoXC398fP3Nc96wZcnBHZmdn95N4YrPZYWFhZghkoKoICwtjs9kmqR1YUcdYdcSv8be1urLDZnIaf1tbdcSPOhADJYGVAThap2zgOwi/SFp9avShCUkSbbBN5aRSqTw9PYuKiog4KSYMKCf8JMwlS5bok0fXr1/38PBQqVQU6zJtMaIj+0M8hYaGcjgc0zbYAr1xOBz6y3bAinrP1l9cJ85ZZjMiSV8g4pxl9JftgBX1cWUz30H4RaLe6YZLmoQkuQrigtu9ckecIOcSmcYlTOiKegPS0tLeeOMNhNC77767c+dOhND9+/ft7OxOnTqFECooKJgyZQpCKDs7e8qUKZ6enosWLRKLxQghPp//zjvvLFy4cPTo0QEBAXh6ydHRccuWLUwm85tvvhk6dKi7u/uhQ4c0Gg2Pxxs3btzYsWMjIyNx2xYtWoQfj0m9qaYqSeZsWvFUWlrKYDBsb5FOl7xEImEwGHQ2jAMrXar6crokpWXJDra3SKern1TVZ8qSHehsGAdW+kaRbr4tfQfhF0m3f43LoU9Sq17yBdd2lFNQUNDu3bsRQrt3737//ffx2+umT5/+5ZdfIoRiY2M/+eSTuro6JpOJ56UiIyPfeustrJwcHByKi4sRQqtXr8aPxBw1ahSXy9VoNAghb29vPOeUmZnp7+8vk8mampqcnZ1xZmJi4vLly7UQm+eQ3JFYFJpq2Y7H43G5XPNEMeC1cLlcHo9ndDOAFXV0DSJefd4qXZ1hkzn1easaRMaPK2BFfVzZ2HcQfpGod73hkjRJajknX3BtRzm5urpeu3YNIVRZWTl58mSE0Mcff5yamjpv3jyE0PLly48fP56amrpw4UKMo729ffDgwSqVis/nE5k5OTne3t74YeLECh2hnFavXh0dHY3NW1tb8SJdYWGhm5ubFmLzHJI7EtdoqpknNpstEAjME8WA1yIQCOjsdgJW1Huw6oiftCjJJnWSblDSoiQ6u52AFfVxZWPfQfhFot71hkvSJKnlnHzBtR3lNHz4cLz6hhAaP358c3PztGnT2travL29VSqVq6tra2trRESEvb29238/TCazrq6Oz+evWrUKMxIKhWPGjMHKqby8HGcSyun111//8ccftWjW1tYOHz5cK9M8h+SOJGo0iXh6TJbqMDQ8qUsA7GsCWFEnVpbs+Dgs1WEV9XDBzpE6HK2SwEoLiIFDG/sOwi+Sgb7u0ymaJLXqIl9wbUc5DRs2jFBOq1ev3r9/v6+vL0LonXfeyczMfOmllxBCe/fuXbp0qRYOPp+PN0ghhE6dOoW3Q5FfYEcop9WrV2/btg2b19TUNDU1IYQsTTmZZNmOPES0cNnkIZ146dhaI0w68ZbstNOdm7HhnO54jf0AK+rk6IxJ6rWYsySdiOjYmjNG89RlQhpkV4++2ORcmiGZ0BX1lowdOxav1iGEUlNT2Wz2Rx99hHc4zZgxA29kuX//PovFwpNJQqFw3bruZ9bx+Xwmk1lVVYUQ+uCDD7AVWTn5+Pj88ssvCKGDBw8+//zzra2tzc3N7u7uFy9eRAgVFha6urpSb6cJSxrgTHPmyYBnE7bfclzRiZeOreUQoN4SOvGCGqDOGVhRZ0VnTFKvxZwl6UREx9acMZqnLhPSILuyHeX05ptv4h3iCKHq6mo7Ozt8y5tQKLSzszt9+jTuJ3xv3YQJE3x8fM6dO4cQioyMXLlyZWBg4Lhx42bPnl1XV4dX6yoqKrDJ119/zWAw4uLi1Gr1Z5995uLi4uzsHB4ejs8mJSUtW7bMPINAqxZyR2qdojnzZNizbl3WnkMnXjq21siNTrygBqj3OLCizorOmKReizlL0omIjq05YzRPXSakQXZlO8opJSWFWHQzT5fgWgIDA/fu3WvOGom6yB1JZJITRs889eqZXIsNpOnES8fWGtHRiRfUAPUeB1bUWdEZk9RrMWdJOhHRsdswkTwAACAASURBVDVnjOapy4Q0yK5sRzkpFIqJEyfeuHHDPP2Ba8FPwlQqleaslKiL3JFEplbCOPFExbNWRVZ9SCdeOrbWCI1OvKAGqPc4sKLOis6YpF6LOUvSiYiOrTljNE9dJqRBdmU7ygkhdOHCBTab3de3rxjdf/jtK3i3k9FO6BiSO9KAHyPEE0XPBiq1rlN04qVja12UcGvpxAtqgHqPAyvqrOiMSeq1mLMknYjo2JozRvPUZUIaZFc2pZzM0xOWUwu5Iw23qq/iibpnw/Vay1k68dKxtRY+5HbSiRfUAJmk4TSwMsyHfJbOmCT7sZw0nYjo2FoOAVO1xIQ0yK5AOZmqgwbAD7kje62+T+KpT557rdryC9CJl46t5ZPRbSGdeEEN6PLUlwOs9JHRzaczJnW9WUIOnYjo2FpC7KZtgwlpkF2BcjJtN5nVG7kjqVRMXTz11TOV2i25DJ146dhaMhN9baMTL6gBfVR184GVLhN9OXTGpD6fA5tPJyI6tgMbdX/UbkIaZFegnPqjs8zkk9yRFKukKJ6M8EyxAZZZjE68dGwtk4bhVtGJF9SAYbbks8CKTMNwms6YNOx5oM7SiYiO7UDF23/1mpAG2RUop/7rsn73TO5I6pVREU/GeabeBksrSSdeOraWxoFKe+jEC2qACmFcBlhRZ0VnTFKvxZwl6UREx5ZmjPb29jU1NT064fP5a9as6fFUv2aakAbZFSinfu21/nVO7sg+1dSreDLac5+aYTmF6cRLx9ZyCFBvCZ14QQ1Q5wysqLOiMyap12LOknQiomNLM8b6+nq1Wt2jE1BOPWL5Q+YA9twf2mHrB3Q4GxZPdDxbI3U68dKxfdxYgRqg3uPAijor2/sO0omIji115gihiIiIiRMnuru7z5gx4/bt2wghPOdUWFj4wgsvfP755y+//LKHh8fJkyfxW87wnFNNTY2rq+vZs2f7VJfRhU1Ig+yqX+acbOzN1Ub3Wb8a0n8LtJZ42rRpE5PJxG0mD5F+jcJCnNOJl46thYTfp2bQiRfUAHXUwIo6Kzpjknot5ixJJyI6ttRjbGxsfPLJJ9va2hBCycnJP/zwA6GcioqKBg0ahF/2mp6ePmPGDEI5yWQyX19fc751w4Q0yK76RTmx2WyBQEC9D6CkEQQEAgGbzTbCkGxCFk9z5swZNmwYfmsyeYiQy9tqmk68dGytkSedeEENUO9xYEWdFZ0xSb0Wc5akExEdW+oxymQyJpOZkJDw4MEDwgrPORUVFTEYDJx57do1V1dXQjn9z//8z5dffkmUN0PChDTIrvpFOfF4PC6XawYoj3MVXC6Xx+PRJ4DF08GDB+3s7IYOHfrVV18hhMhDhH4Vlu+BTrx0bC2fjG4L6cQLakCXp74cYKWPjG4+nTGp680ScuhERMe2T7FfvXp1+fLlTCZz3rx5lZWV5DknZ2dn7KqoqAin+Xw+k8kcPnz4rl27+lQLzcImpEF21S/KqbS0FBbsaPa3YXO8VFdaWmq4GMWzhGyys7MbP348KCeK3HAx8tepT4ZWWphOvKAGqHc6sKLOis6YpF6LOUvSiYiOrRExKhSKzz///I033uhVOb366qvXrl1jsVhVVVVGVGSciQlpkF31i3JCCIWGhnI4HONCBateCXA4nNDQ0F6L9Vpg06ZNc+bMwbNNdg8/Dg4O165dIw+RXp3oFhio2yh0W0Ixh0q8kZGReFFfyycVWy0T0x6amTaVePWxshA1MJLhUFNwAolFun/8r//fmhVLdfONy+mOt7ePhbPSF3jE5lAM6tcD2/XB1GfbYz4dVlTGZG/9QPf8yJEj9d2Qb4RrKhHpGzlUbI1okpZJfn7+W2+91dnZiRBKTU0NDAzsVTnhHeJbtmx59dVXNRqNlsN+OjQhDbKrR19scq5JYmCz2WFhYSZxBU7IBMLCwujvcMIOmUzmsGHDhg4dimUTsWBHczCY+VpOhqPvnlhyGd00lXiHDRs2ZMiQjRs3auknKra6NZowhwptlUplqhqpxKuPFSgn3V6wcFY9qhwkFklvn28t+w2JRUvmv5x/PFlfMZyvvic0XACJRVSUkz5WVMakLnnT5lBRTtS/hlQiGlgaarX6n//8p6ur6/jx42fMmHHz5k2KykmlUvn5+cXFxZmWvz5vVEjqs9XKJ7vqR+VUW1vLZrM5HI5EItFqARwaR0AikXA4HDabXVtba5wHXatr16599dVX48aNc3BwwBJq3Lhx5CGia9JjTmdn54oVK1xdXQMCAtatW4f/e1FWVjZ79mxPT09fX98LFy4ghPANqxs3bpwxY8bkyZMFAsHSpUu9vLz+/ve/I4Ty8/M9PT2xfyK9ePHi6OhohFBLS8vo0aMLCwsRQv/+9789PT3/8pe/fPTRR3K5HCHk6Oi4ZcsWJpPZ0dHRYwsNZFKJNyYmZtiwYU888cTQoUPJ+omKrYGqiVNyuXzlypXu7u5ubm7BwcEymQwhlJmZ6enp6ezsvHLlyq6uLvzfu0mTJo0fP3727NnV1dXE1kuEkC7tgoKCF1544d13350zZw5REc0ElXj1sTKVcor5Zv3qd95Y8eaCKZMnvj434Hgqf+ErM9zdnPfEfYPEIvU94eeh709yd53k7vru24vwBf5kWvzEcWM9J7h986//YzIc8TRJ9p6YKZMnek5wW/TqDPHvJ5FYZP45J6NZaWqv8D5ZM27smLFjnon84hN9gTMZjt9/u2HuzOluLqOP/Bi5ZsVS/6nPzZzu015xFolFDvYjvvt83SsB0zwnuEV/9f+wvjmY+J23p/skd9eX2VNLzmYisejO5axZ/i9OHDd2vOuYLZ99hMQiPOf03efrhj7xhLub86Fd4T1id3QYseWzj5gMx45b5wyLJyrKSR8rKmMSD3vd70iPt9BrNBoejzdu3LixY8dGRkYihNRq9eeffz7p4efdd99tbW1FCJ08eXLixImenp7ffPMNk8nEc07Z2dlTpkzx9PRctGiRWCxGCEVFRa1evfqFF17YtGkTxW8flYjo06DYGKsuRoUkxQDJrvpROeHWhIaGMhgMLpcrEAhAQlHsIa1iEolEIBBwuVwGg2GSRTot//iwsLAQS6gRI0aQh0iPhXUzt2/fPnPmTKVS2dLSMnnyZKycXnzxxaSkJISQUCgcM2aMXC7HN6xiFbVixYrnnnuus7NTJpM5ODiIxWJCLZFVVHV1tYuLS0NDwyeffLJhwwaE0NGjR728vFpaWlQq1ZtvvhkbG4sQGjVqFJfLNW4SmGK8Tk5OeHKOrJ8o2uoS08rJyMiYN2+eRqNRq9Xr168/f/58bW0ti8W6c+eOSqVavHjx1q1bm5qahg0bhh+dEhIS8uGHH5KVky7t69ev29vb79+/X6suOocU4+2RlamUU/y3G0Y/85Sk9IyqRugy+mm8bPTb4STPCW5ILEpP2PLic54dt85paq8Ev7Vww99XqWqEY55hnUyLR2LR9q0b//znP9cUnKgrzGEyHItOH0BiUeQXn7y16JUBUU4IIeNYZe4M95/6nKzyQlPxaednn84/nqwbOBKLnJ4cuY33MRKLEsM3DRv6RMXFI0gseiVgWnrCFiQWjWQ48D5Zg8Qi8e8n7UcMv3sl++6VbCbDERdLDN80/UVvJBZ99N5fwzasRWJRS6lgWeCrLaUCYrXO29Mdzzn1WPsoJoO79n81tVcMyyaKc076WFEckwgh3e9Ij7fQZ2Zm+vv7y2SypqYmZ2fn/Pz89PT0F198saOjQ6PRBAcHb9iwQaVSjRkzBj+saPv27d2Dqqamrq6OyWQWFRUhhCIjI9966y2EUFxcHIvFwl9bil89ihH1OHIo2lJsibUXMyENsqt+V04IodLSUh6Px2azGQwGsSoECeoEGAwGm83m8Xim2hJu+Mtw4cIF8hAxXJg4+8477+CZIYTQxo0b16xZc/fuXXt7e2L5bNq0aQKBoKio6KmnnsJWPB5v7dq1OD1x4sSrV6/2qJwQQjExMQsWLPD09MQzMe+99953332HDbOzs/GEipOTU35+PtGePiWo9wW55JAhQ5YtW2YEqx7bdu7cOWdn5+zsbLx1ACGUkpKyZMkSXFgqleI5J2KtMC0t7bXXXiOUkz7aw4cPJ7qgx3r7mkkmQD2NWZlQOQUtnosvxjOn+xzYsRWJRfeunmA42iOxaOWy1yM2h+KzJ9PifbwnlZzNHMlwwDmddy7a2dnVFJxIjf164SszcGZ7xdnBgwepaoQmn3OijogoSZHV6nfeIGaJWst+U9UIdQPHyunGmYNILMo9uH2yx3gc7wfBb2LbkQyHq6d+wpkzp/tkJG3bFbU5cN5MMquWUsG/P/377JemXv45lVh301VO+mrvdS0P11WykwDQh0SfvoP6viO6t9CvXr2a+DVrbW1VqVQrV66MiIjAX5aTJ0/6+PiUlJSMHDkS53R2dnYPqpqa1NTUhQsX4sz29vbBgwerVKr4+PgFCxb06YvWBwSkon2i0af2WG9hU/0+a904ZQ7lZL3QH7eWt7a2fvrpp8OHDzditL322mvJycmYWHh4+Jo1a65cuTJo0CC3/36eeuqpjIyMoqIiNzc3XOzLL79cv349Tnt6el65ckWfcmpraxs2bNjmzZtx4cDAQCcnJ+zYxcXF19cX/2e0vLwcF+jrvxTj7e//4WVkZMyZM2fkyJEcDkcqlYaHh69atYoci1qt3rx58/SHHw8Pj7lz5xLKSR/tMWPGkD3QT9NhZULl9Le/LsZX3NkvTT2eykdiUV1hjv2I4Ugsmj+b/SP/C3xWeGKP87NPX8j60c1lNM5BYtGI4cNqCk5EbA61HzHczWU0/mMyHOsKc0yunKgA73Fc9crq9bkBRJg4NN3AsXK6czkLiUVnMhN9n5+MS374v29jcTmS4YDPIrHo9bkBSRGfb/nso1XLA8msKi4eUVZf3rrpH1MmT3yGNQpLLl3lpK/28guHCW8GEt3xUvj0yIrimNT3HdG9hf7111//8ccfyc2ZP38+kSMUCp2dnS9cuED8lCGERowYUVNTExERYW9v/9/fPDcmk1lXVxcfHx8cHEz21muaYkR0aPTaBtsoQJEklWDJrh4NVnIuFS9QxpYIYM00dOjQJ554wrjVur/+9a98Ph8zWb9+/Zo1a2pqaoj/kxGsDCsnoVA4adIkXPjUqVPEnqf169eHhIS4uLjgDV5r1qwh6iI8Ozk5VVRUEId9SlAZ/DExMcOHDyev0+EqqNj2qTESiWT+/PlRUVEpKSmLFi3Cts3NzdXV1Wlpac899xxe9d67dy9ZOemjTVwV+tQGA4WpxKuPVa9qwMCVlXwq/tsNBpTTymWv4/UpJBad2Bc3dcpfin/LIOac2ivO4jmnvfHfLF0wm+x2QFbrjGa1+p03iDBrCk40FZ/WDZyKchKd3IshvOT7/KFd4buiNi969T9TcdLb5+3s7NrKu3dE4b/yC4edn326IGefrnLSVzte+CM86EtQUU76WFEZkwihXr8jxMOHVq9evW3bNvwtqKmpaWpqWrlyJZFz4sSJqVOnFhcXE79v7e3teM5p7969S5cu1fr6xMfHv/vuu1qZhg+pRESThuEG2MxZKiQpBkt2BcqJIjSbLUbWTHjeF+8T72vAfD5/1qxZCoWisbFx4sSJeJ/T1KlT09LSEEINDQ0rVqxob283rJxqa2sdHBywMggJCcHKqbCwcOLEiTKZLCIi4u2330YIHTt2zNfXF69bJSYm4rmu/lZO/X0nS2xs7Jdffql5+Hn//fcjIiLu3bs3cuTImzdvqlSqoKCgrVu3xsfHL168GCHU3Nw8d+5cf39/Ys4JIdQj7QFRTvpYmUc5Hdix1cd7kvT2efU9YdDiuZv/+YHi7iWW05O//BSHtzYPGtS9z+n+tVMspyfxjIjwxJ51778zIMrJaFYHE797frJHa9lvzSWn3d2cLx7/UTdwKsop9IMVSCy6nX9sxPBh4t9P1hScGMlwwHIn7t//muX/IhKL/mfpfEyv887FyR7jr/yyh1BOPt6T8Cl9tZtQOeljRb6kGf7hMvwdIZTTwYMHn3/++dbW1ubmZnd394sXLx44cMDHx0cqlarV6qCgoM2bNysUChaLhd8xEhERMWjQoJqamvv377NYLDz5LRQK161bhxDqJ+VEn4ZhVnizqb+/v0Kh6LUkuUCvd/v++uuvPT7BQaFQ+Pv7G73pgtwGIk19bBAm+hJkV6Cc9FF6LPK//fbbQYMGDR48mLRWbvfcc8+RhwhFEB0dHW+//fazzz47ffr0jRs3/u1vf8N3e82ZM2fChAkeHh4JCQkIIcPKCSG0fv36SZMmzZ8/PzY2duLEiWq1evr06UeOHEEIKRSKyZMnHz16FCH07bff4lvMFixYgCei+ls59ffTUxobGxcvXuzq6jpu3Ljly5e3t7cjhA4cOODh4fHss8/ie+saGhr8/f09PDxeeeWVS5cuPfvss5s2bSJ+p8rKynRpD4hy0sfKPMqJuMnLY7zrmhVL8V1dR5Ojxo0d4+YyOmzD2jHPsPASFb63bsI4Fx/vSeeO7hoQ5WQ0K/U94Wfr3nMZ/bTzs0+HP9wD3mPgTk+ONLxaF877+Lm/TBg75pkftnyKJ4QykrZ5e7p7jHedO3P67fxjSCwSntjj+/zkcWPHuLs5f7k+hLi3DolFX3M/ZDjax/37X/pqN6Fy0seK+u+V4e8IoZzUavVnn33m4uLi7OwcHh5OvrfOw8NjzZo1+Abeo0ePjhs3zs3NLSwsbMyYMXfu3EEI4XvrJkyY4OPjc+7cuf5TTvRpGP5tV6lUnp6eeLe74ZJaZ4lfJK18jBEhtGTJEn3y6Pr16x4eHtQf36BbhVYO9bGhZah7SHYFykmXz2OU88svv3z44YezZ892cnLC25vs7Ozee+898hB5HHDQiZeOrTWypROvqZSTvhUfS8unsgKlbwyYh9VIhsO9qz0/FNTMMOmwojMm9fEf2Hw6EdGxJUedlpaGnwz+7rvv7ty5EyF0//59Ozu7U6dOIYQKCgqmTJlCKEXyUxj4fP4777yzcOHC0aNHBwQE4Okl4qkx33zzzdChQ93d3Q8dOqT79AeE0KJFi/BKBbkxRqdNRQN2iBvdBbZsyOFw/P39R4wY4eDgsH37dhOONqugRideOrZWAUerkXTiNY8aMPMl30B1dNSAeVgZeJy6gbj64xQdVnTGpNbwtpBDOhHRsSWHHxQUtHv3boTQ7t2733//fYRQRkbG9OnT8St7Y2NjP/nkkx6fwsDn8x0cHIqLixFCq1ev/uCDD7SeGuPt7Y3nnHSf/oAQSkxMXL58ObkldNKmogHKiU4v2Kbtjh07pk2bhm9Ps7e3P3++e1uobYaqJyo68dKx1dMci86mE6951EB/XNeN80lHDZiHFSgny/yy0fmW0bEl03B1db127RpCqLKycvLkyQihjz/+ODU1dd68eQih5cuXHz9+vMenMPD5fOLRDDk5Od7e3vjiQqzQEcpJ9+kP+GnJ5JsWyU0yIm0qGqCcjIBvyyYikehPf/qTSCRCCMXGxv75z39ua2sz4WizCnZ04qVjaxVwtBpJJ17zqAHjVE5/WFm+cuqPqI3zSYcVnTGpNbwt5JBORHRsyeEPHz4cPwMdITR+/Pjm5uZp06a1tbV5e3urVCpXV9fW1tYen8LA5/OJx6ngZyBrPTWGUE66T39ACNXW1g4fPpzcEjppU9EA5USnF2zQdurUqfgx3zg2LKFMONqsAhmdeOnYWgUcrUbSiReUkxZMA4fAygAcrVN0xqSWKws5pBMRHVty+MOGDSOU0+rVq/fv34+fnPfOO+9kZma+9NJLCKEen8LA5/PxBimE0KlTp/B2KPIdPIRy0n36AyinR10AzxAn37lmRLr/niHO4XDwGzwe9dbDlKm+e1puLfaQTrx0bC0WiIGG0YkX1IABsFqngJUWEAOHdMakAbcDeIpORHRsySGPHTsWr9bh12Wy2eyPPvoIL03MmDGDx+PhPeO6T2Hg8/lMJrOqqgoh9MEHH2ArsnLy8fHBT3PQffoDXq1zdXUlt4RO2lQ0zD3nBO+to9Pr2Laf3luXmJiItzfpttCEo03XuQXm0ImXjq0Foui1SXTiBTXQK16iALAiUPSaoDMme3U+IAXoRETHlhzsm2++iXeII4Sqq6vt7OzwLW9CodDOzu706dO4sO5TGCIjI1euXBkYGDhu3LjZs2fX1dXh1TriScVff/01g8GIi4vTffoDQigpKWnZsmXkltBJm4qG+ZRTbW0tm83mcDjwol86HU+2lUgkHA6HzWbjJxiRT/U1Td7epGtrwtGm69wCc+jES8fWAlH02iQ68YIa6BUvUQBYESh6TdAZk706H5ACdCKiY0sONiUlhVh0I+f3dzowMHDv3r2mqsVUNMynnNhsdlhYmKniBz8EgbCwMDabTRwal5g6dWpiYqI+WxOONn1VWFQ+nXjp2FoUBIqNoRMvqAGKkBFCwIo6Kzpjknot5ixJJyI6tuQYFQrFxIkTb9y4Qc7s7zR+EqZSqTRVRaaiYSblFBoayuFwTBU8+NEiwOFwQkNDtTKpH4Y8/Bgob8LRZqAWyzlFJ146tpZDgHpL6MQLaoA6Z2BFnRWdMUm9FnOWpBMRHVutGC9cuMBms/v69hUtJ9QP8dtXLl68SN2k15ImpEF29eixPeTcXltjuEBpaSmDwYBFOsOU6JyVSCQMBqO0tNQIJ4mJifgWCQO2JhwMBmqxnFN04qVjazkEqLeETrygBqhzBlbUWdEZk9RrMWdJOhHRsTVnjOapy4Q0yK76RTnxeDwul2seLo9tLVwuF9/d0CcChrc3Ea7IQ4TItOEEnXjp2FojUjrxghqg3uPAijorOmOSei3mLEknIjq25ozRPHWZkAbZVb8oJzabLRAIzMPlsa1FIBAYsdvJ19fXwPYmAiZ5iBCZNpygEy8dW2tESideUAPUexxYUWdFZ0xSr8WcJelERMfWnDGapy4T0iC76hflBEt1ZhgTeMGuTxX1ur2J8EYeIkSmDSfoxEvH1hqR0okX1AD1HgdW1FnRGZPUazFnSToR0bE1Z4zmqcuENMiu+kU5kSswD53Hs5Y+caayvYnA2CfPhJX1JujES8fWGonRiRfUAPUeB1bUWdEZk9RrMWdJOhHRsTVnjOapy4Q0yK5AOZmn+/qlFnJHGq5AJBLZ2dnhN6sYLonPUvdMxZvll6ETLx1byyej20I68YIa0OWpLwdY6SOjm09nTOp6s4QcOhHRsbWE2E3bBhPSILsC5WTabjKrN3JHGq6Y4vYmwgl1z4SJVSfoxEvH1hqh0YkX1AD1HgdW1FnRGZPUazFnSToR0bE1Z4zmqcuENMiuQDmZp/v6pRZyRxqogPr2JsLJY7VTzYgdYwQohBCwItMwnC5LdlRVn0Fi0ePwp6o+U5bsaBiIgbPAygAcrVM29h2EXySt/jX6kCZJrXrJF1xQTlpwrOmQ3JH62t2n7U2Ek8fq7kjj7lIEVgQB6omqI37SoqTHQTYhsUhalFR1xI86HK2SwEoLiIFDG/u9gl8kA33dp1M0SWrVRb7ggnLSgmNNh+SO7LHdfd3eRDh5rJ7IZdyTsYAVQYB6okHEq89b9Zgop/q8VQ2i7vfJG/cBVtS52djvFfwiUe96wyVpktRyTr7ggnLSgmNNh+SO7LHdfd3eRDh5fJ4Cj6dzjXsaO8YFrIhh02uiS1JaluzwOCzYPVyqc+iSGPOUf4wRWPU6nIgCtvQdhF8koltpJuiT1GoA+YILykkLjjUdkjtSt91GbG8iO3lM3jxI8w2AmBiwIo8cw+n6i+vEOctsftpJnLOs/uI6wyh6PQusekVEFLCZ7yD8IhF9SjNhEpLkNpAvuKCcyGSsLE3uSK2mG7e9ScsJm80OCwvTyrSlw7CwMCOew94jAWDVI5YeM6uO+DX+ttaGxVPjb2vp7HAiQwNWZBqG0zbwHYRfJMNdTP2sCUkSlZIvuKCcCCzWlyB3JLn1Rm9vIjtBCNXW1rLZbA6HY3svb5ZIJBwOh81m19bWakVt3CGwos5NKa2tOuInzllme8t2quoz4pxlVUf8lFLTjCtgRX1cWfV3EH6RqHe04ZImJ0lUR77ggnIisFhfgtyR5NYbvb2J7IRIh4aGMhgMLpcrEAisXUJJJBKBQMDlchkMRmhoKBGjqRLAijrJ+ovrypId6vNWSYuSrF1CqarPSIuS6vNWdUdEe5FOlyGw0mWiL8e6voPwi6SvH/ua398kEULkCy4opx46SK1W95BreVnkjiRaR3N7E+GHnCgtLeXxeGw2m8Fg2Fnzh8FgsNlsHo9HZ0s4mYxuGljpMtGX0yUpbRDxqo74lSU7luy0s96/smTHqiN+DSIenS3h+ijhfGBlmA/5rBV9B+EXyVTXEzOQJF9wbVA5yeXylStXuru7u7m5BQcHy2QyhNDBgwe9vb0nTZr08ssvl5SUIIS2bt364Ycf4u8bkXZ0dNyyZQuTyezo6Lhx4wabzXZ2dp41a1ZlZSVCqKysbPbs2Z6enr6+vhcuXCB/VwckTe5I3ACTbG8akFigUiAABIAAEAACFkuAfMG1QeWUkZExb948jUajVqvXr19//vz5u3fvMpnMiooKhFBiYuL06dP1KadRo0ZxuVzNw8+UKVMOHz6MENq2bduCBQsQQi+++GJSUhJCSCgUjhkzRi6XD2wfkzsSIWSq7U0DGxTUDgSAABAAAkDA0giQL7g2qJzOnTvn7OycnZ3d2dmJ0e/atSswMBCnOzs77ezsWlpaiHkmsopycnLKz89HCFVVVY0cORKbKBSK9vb2u3fv2tvbEwt506ZNEwgEA9u15I5ECJl2e9PAhga1AwEgAASAABCwHALkC64NKieEUEZGxpw5c0aOHMnhcKRS6ZYtW1atWkV0wIgRIyoqKvQpp/Lycjyr5OrqSpgghK5czpV3igAADV5JREFUuTJo0CC3/36eeuqpjIwMcgHzp8kd2R/bm8wfEdQIBIAAEAACQMACCZAvuLapnDB0iUQyf/78qKioXbt2LVq0CGdKpVI7O7u2trbw8PCQkBCcuWnTJrznycnJCS/qVVVVOTg44BkmuVxeUlJSU1NDzEJZSKcSHQnbmyykR6AZQAAIAAEgYJMEiAtu9312RITkXCLTuIQJXRnRgNjY2C+//BLvVXr//fcjIiKw6MGSKC4ubtasWQihn376KSAgACEkk8leeOEFLeWk0Wi8vb2Tk5MRQjExMXif09SpU9PS0hBCDQ0NK1asaG9vN6J5JjTBnGF7kwmRgisgAASAABAAAroEyMLGBpVTY2Pj4sWLXV1dx40bt3z5cqxvMjIyvL29PTw85s6de/v2bYSQVCqdN2+ej4/PkiVLNm7c+MEHHyCEiDknhND169enT5/+zDPPkO+tmzNnzoQJEzw8PBISEnTJmjkHdyRsbzIzdqgOCAABIAAEHjcCNq6cHp/utLOzg+1Nj093Q6RAAAgAASAwUARAOQ0UeRPXa2dn5+vra2Kn4A4IAAEgAASAABD4IwFQTn/kYbVHdnZ2IpHIapsPDQcCQAAIAAEgYB0EQDlZRz/12kpyR/ZaGAoAASAABIAAEAACxhEgX3BtcIe4cVCs0YrckdbYfmgzEAACQAAIAAGrIEC+4FqWcgoPD//4448HFuK8efOuXr2amprKYDA+/fTTiIiINWvWIIRGjhxZU1Ojr21yudzFxYV4wji5mFKp3LdvHzmHSP/jH/+IiIggDvuaIHdkX22hPBAAAkAACAABIECRAPmCa0HKqaKiYsKECcQrUygGY0SxHvUN9tPV1eXi4qLRaN5+++24uDj88ILW1tZelZNAIHjrrbd6bMzVq1fx46B0z8pkMnd3d/zUct2zveaQO7LXwlAACAABIAAEgAAQMI4A+YJrQcopJCQkKioKh5SZmenp6ens7Lxy5cquri6EUGpq6qRJk8aPHz979uzq6mr8gMrVq1evWLFiypQpr7/++vHjxxcuXOju7r5nzx7s5N///renp+df/vKXjz76CL+d19HRccuWLUwms6OjQygU+vr6uru7e3l5nT59Gpvk5uYuX77822+/dXR0dHFx+eKLL3TnnLKzs6dMmeLp6blo0SKxWIwNeTzeDz/8gBDSOtvW1jZ27FgHB4e5c+cihHTj2rZtG/Eoc+yK+r/kjqRuBSWBABAAAkAACACBPhEgX3AtRTlpNJqnn34aP6OytraWxWLduXNHpVItXrx469atTU1Nw4YNw2dDQkLw877j4+NHjx4tkUhUKpWLiwteU/vtt988PT0RQkePHvXy8mppaVGpVG+++WZsbCxCaNSoUVwuV6PRIISmTp2ampqKEEpLS8MmCKFPP/10x44dCKGlS5fu3bsXIaSlnOrq6phMZlFREUIoMjKSmGfy9/cvLS3t8WxGRgaec9KNCyFUVlb29NNP96n/iMLkjiQyIQEEgAAQAAJAAAiYlgD5gmspyqmysvLJJ5/EcaakpCxZsgSnpVIpnnNqa2vDOWlpaa+99hpCKD4+PigoCGfOnDnzwIEDCKF79+4xGAyE0Hvvvffdd9/hs9nZ2XPmzMGPCM/Pz8eZMplMpVIhhMRi8ZAhQ3Cmr6/vrVu3DCin1NTUhQsX4sLt7e2DBw9WqVQtLS1ubm54Ykz3LKGceowLIcRkMu/cuYN99ulfckf2yRAKAwEgAASAABAAAtQJkC+4lqKcLl++PGnSJBxDeHj4qlWryPGo1erNmzdPf/jBb1DByulvf/sbLjZ79uzjx48jhOrq6uzt7RFCgYGBTk5Obg8/Li4u+ImRTk5OxKai9PT0mTNn+vv7+/r6Dho0CCHU1NTk7u6OHeqbc4qIiLC3t8du3dzcmExmXV3d4cOHcUt6PEsoJ924cF0eHh6XL18mx0sxTe5IiiZQDAgAASAABIAAEOgrAfIF11KU06VLlwjllJKSsmjRIhxVc3NzdXV1Wlrac889J5FIEEJ79+7Fe4bi4+MNKKc1a9bw+XwtNMRr6e7duzds2LDi4mKEUE1NDVZOBw8exEt+Buac9u7du3TpUi23f//73/HSXo9nCeWkGxf2A8pJiyccAgEgAASAABCwKAKWqJxu375NrNbdu3dv5MiRN2/eVKlUQUFBW7dujY+PX7x4MUKoubl57ty5/v7+vc45HTt2zNfXF6/xJSYmJicnk1/oW1RU9NRTT3V1dalUqn/9619/+tOfZDIZh8NJS0vDXaVvzun+/fssFgtPXAmFwnXr1iGEJk2ahLeK93j26NGjbDZbo9HoxoXrYjKZlZWVRgwRckcaYQ4mQAAIAAEgAASAABUC5Auupcw5aTQaJycnvAccIXTgwAEPD49nn30W31vX0NDg7+/v4eHxyiuvXLp06dlnn920aZPhOSeE0Lfffotvx1uwYEFtbS1ZOSGEVq1a5ebm9uKLL+bl5c2aNWvGjBkTJkyor6/HBPUpJ+LuuQkTJvj4+Jw7d666utrLy4vgju+tI87iBURXV1dnZ2fduBBC5eXlLBYLb1onnFBMkDuSogkUAwJAAAgAASAABPpKgHzBtRTlhBBavXo18VSCvoZkveWJe/eMCIHckUaYgwkQAAJAAAgAASBAhQD5gmtByqm0tNQ8T8Kkwsg8ZTo7O93d3cvKyoyrjtyRxnkAKyAABIAAEAACQKBXAuQLrgUpJ4TQtm3bBvztK73iM2GBdevWhYeHG+2Q3JFGOwFDIAAEgAAQAAJAwDAB8gXXspST4XbDWS0C5I7UOgWHQAAIAAEgAASAgKkIkC+4oJxMRXUA/JA7cgCqhyqBABAAAkAACDweBMgX3EfKaciQIQqFwiQEyBWYxCE46ZEAcO4RC2QCASAABIAAEDAhAYVCQbxrBCH0SDmxWCzinnya9cEVnSZAiubAmSIoKAYEgAAQAAJAwGgC9fX1LBaLMH+knHx8fAoKCogTdBJwRadDj7otcKbOCkoCASAABIAAEDCOQEFBgY+PD2H7SDkFBQWlp6cTJ+gk4IpOhx51W+BMnRWUBAJAAAgAASBgHIH09PSgoCDC9pFyCgsL27BhA3GCTgKu6HToUbcFztRZQUkgAASAABAAAsYR2LBhQ1hYGGH7SDnl5uYGBAQQJ+gkGAwGfjsvHSdga5iARCJhMBiGy8BZIAAEgAAQAAJAgCaBgICA3Nxcwskj5YQQsre3N8kmcTabLRAIiDog0R8EBAIBm83uD8/gEwgAASAABIAAEMAE6uvr7e3tyTT+oJyCg4MTEhLIp41L83g8LpdrnC1YUSTA5XJ5PB7FwlAMCAABIAAEgAAQMIJAQkJCcHAw2fAPyikrK8skC3alpaWwYEembPI0XqorLS01uWdwCASAABAAAkAACBAEAgICsrKyiMM/PM8J53p5eeXl5ZFLGJcODQ3lcDjG2YJVrwQ4HE5oaGivxaAAEAACQAAIAAEgYDSBvLw8Ly8vLfM/zDkhhHbs2BEYGKhVyLhDNptN3otunBOw0iUQFhYGO5x0sUAOEAACQAAIAAHTEggMDNyxY4eWT23lhBDy8fHJzMzUKmfEYW1tLZvN5nA4cJ+dEfR6NJFIJBwOh81m19bW9lgAMoEAEAACQAAIAAGTEMjMzCQ/AJPw2YNyysrK8vDwMNU77EJDQxkMBpfLFQgEIKEI7n1KSCQSgUDA5XIZDAYs0vUJHRQGAkAACAABIGAEAblc7uHhobXDCfvpQTkhhNauXRsSEmJETT2alJaW8ng8NpvNYDDs4NN3AgwGg81m83g82BLe4wCDTCAABIAAEAACpiUQEhKydu3aHn32rJwQQn5+frGxsT3aQCYQAAJAAAgAASAABGyVQGxsrJ+fn77o9Cqn4uJiFotlqjfZ6ase8oEAEAACQAAIAAEgYDkE0tPTWSxWcXGxvibpVU4IobNnz9rb24N40scO8oEAEAACQAAIAAFbIpCenm5vb3/27FkDQRlSTlg8sVgsWLYzQBBOAQEgAASAABAAAjZAIDY2lsViGZZNPTwJUzfy4uJiPz+/kJAQU91tp1sF5AABIAAEgAAQAAJAYKAIKBSKkJAQPz8/A4t0RNt6mXMiyq1du9bDw8Mkz3kifEICCAABIAAEgAAQAAIDSyAzM9PDw0PfnXS6baOqnBBCWVlZPj4+gYGBJnk9i25TIAcIAAEgAASAABAAAmYjkJeXFxgY6OPj0+Nzm/Q1ow/KCbvYsWOHl5dXQEBAQkJCfX29Pr+QDwSAABAAAkAACAABCyRQX1+fkJAQEBDg5eWl+3KVXhvcZ+WEPWZlZQUHB9vb2wcEBGzYsCE9Pb2goKC+vh72QvVKHAoAASAABIAAEAACZiOgUCjq6+sLCgrS09M3bNgQEBBgb28fHBzcp3kmcmuNVE6Ei9zc3LCwsKCgIB8fHxaLNWTIkL4/IhssgAAQAAJAAAgAASDQLwSGDBnCYrF8fHyCgoLCwsJyc3MJDWNcgq5yMq5WsAICQAAIAAEgAASAgDUSAOVkjb0GbQYCQAAIAAEgAAQGhsD/B6Yr6nx5YrbcAAAAAElFTkSuQmCC;" vertex="1" parent="10">
                    <mxGeometry x="128.22000000000003" y="121.52000000000001" width="211.78" height="44.13" as="geometry"/>
                </mxCell>
                <mxCell id="16" style="edgeStyle=orthogonalEdgeStyle;rounded=0;orthogonalLoop=1;jettySize=auto;html=1;exitX=0.5;exitY=1;exitDx=0;exitDy=0;" edge="1" parent="10" source="12" target="12">
                    <mxGeometry relative="1" as="geometry"/>
                </mxCell>
                <mxCell id="17" value="" style="group" vertex="1" connectable="0" parent="1">
                    <mxGeometry x="370" y="300" width="380" height="220" as="geometry"/>
                </mxCell>
                <mxCell id="18" value="pod" style="rounded=0;whiteSpace=wrap;html=1;verticalAlign=top;" vertex="1" parent="17">
                    <mxGeometry width="380" height="220" as="geometry"/>
                </mxCell>
                <mxCell id="19" value="Ngninx" style="rounded=1;whiteSpace=wrap;html=1;" vertex="1" parent="17">
                    <mxGeometry x="20" y="20" width="80" height="180" as="geometry"/>
                </mxCell>
                <mxCell id="20" value="Periscopai backend" style="rounded=1;whiteSpace=wrap;html=1;verticalAlign=top;" vertex="1" parent="17">
                    <mxGeometry x="120" y="20" width="230" height="180" as="geometry"/>
                </mxCell>
                <mxCell id="21" value="" style="shape=image;verticalLabelPosition=bottom;labelBackgroundColor=#ffffff;verticalAlign=top;aspect=fixed;imageAspect=0;image=data:image/png,iVBORw0KGgoAAAANSUhEUgAAAMAAAABVCAIAAACQFXygAAAapklEQVR4Ae1diV8T1/Z//1GVJaEqQkIWEEFZXepSihsoKhWs+p7VLlbr1uW1aqviilhrrVgEAbOQhbBkIQRIAiibkARCdsie+X3uDAzDTVijr7G/4cOHz5l771ly7nfOPXPunfAvVRyb/CU9sGwP/GvZnCQj6QFVHJsEEBmAw/IACaCw3EcGIRJAJIDC8gAJoLDcR0YgEkAkgMLyAAmgsNxHRiASQCSAwvIACaCw3EdGIBJAJIDC8sA/H0CvC0peF5T0l57WZOwgA8Zb98A/GUAj311FCD92mfKtu48UuCgAdTIysft45PJVw/W72C/WEskeHPz1DgE/iEmqiGRr31PbFgCQU9tLnIOQtJUvHvryQgR+fhJA/4NJWQhAI7qQoAludGp7e7YX/A8sXrwKEkCL99WyRy4AIJNUAWHFqulxzoEqv83eychctilvnZEE0Ft3abDApQGo+1pZ3cq1NSviqz5Y03byTDCSTFV1wTr+rpZIAFDP9oJIC8xvdzqWBqDBX+/g6iUxSS/jU7x2OxSiIicI/b0A6tle4JApEQQxVtXiTvvnEcsHkCqOraSyui78CAGot6AkQtz0NwLodWGp3zZ1a/X/cjtCHPIuzAgLQKo4dtvWPRCABi9feReGLkPm3wWgoa8uEn1CDNvL+BQRzhIugGQUJtFZCILM76+e7QXGiicOmRK7Qf02u0OmNFY8WVKi0F96OqSQ14WlRHcvEkBYqcIzorfyxSHN0GTsMFy/i9uMjZyrcgGhB0EQi1SBF88wYuDoaaKd7zUdLoB6thdAAGrfUxzSI3hOAI3HL6188YL508DR054RPc4STDi1vfiWxWIAZKqqJQrpDypoGa7fJQ4g0p4RPQS4YPQQx+P0QMQE6ZAztaTGcAHU/+UF3C8YoaBvDLaAmBNA44mXfpsdmhKiKGPFE+LguWgFlYlxLQggaL71PKEkJgnX2MnIXLCOSjRYk7FjLpOI7V67XZa2FdfyvhNhAaiTkekanlVp7L5WpqSyIKf0bC/wTWeUmCvHpYrua2Xd18r0PCHRuQiCuEd0IeOQ8eGf0EgEQbx2+7hUQawm9JU/wrXPDyAodlo1PYKEVJxXFce28MVEjQBe+UWS/CLI5kltL8bVnpQxVFkd/FiKC7FqesalClnxCRziRHXvKb18AGkydkA3qFXTI4ymBTvCPbvwOFRZXb8yQRhNE0bTOFEJbSfP4C7GiOBi0sDR09CYcalCkJtXvSK+fmUCVpeSFh+XFh9vIBgwD4A0GTvwpyQMiMLUXCL0IY3d18o4UQmtFEYrhcGJShifXV/FchollcWPSqxeEQ+ZKskvqvpgTdUHa+pWrq1fmdAcOxPkgn313rUsDUCuYZ1DpnTIlMGJyFBlNXftuuDPDy0TzhEdPyqROEwSkzRUWQ05HQpCEAT1PGH9ygQZZWqpwqQ1xyZBczMXgDoZmZOEPT6v3S7alAdFBZu0DTfJa7c3JqYRbVZ++m+8F0GQsdmVHmIXgiCafUeIvP8wemkAglyDXTpHdNLi4/yoROIdjLvJoe0hcvWX/4534UTrll3EMQiCDH15Ee+FgoHXbofWGnwkRMwFIChxlhWfgLAIrW7jUgX00To+2ks02CxtI6omdpEAgvfCIO+A+G+zy+gbiB7E6U5GJjReuecw3osTMgqTmMeAe/qvmert2OwHpTfPaqDpxOVAREgAQblU28kzUNxSxbGHLl8hmj1cWY2dXcH/jsx7UITISwJoFoCGKqs7z/8YvOLYZbNuQXwiewtKFulNaNeWeE87NLNj2KILu8EAgtbT7mtlxMcu3OzRv15AZs9/CZ00ggaTS9iMQ/p/uS2OofOjEjvPwzsYI99dxScAJzT7jswwo1TnR3vxXiIBAYg4JZCEuepMRGkYDQEo+Plo+MHjYC5VHNtMSIAg7cGXep5QlLqJKAcaQwJoxiF4lVkcQ7fODgw+mx2v4OHeDAZQ9xwZ5eIBNHL9Li5/fgIC0LhUAT09IQgCFa8xgZAxzhEdxov/Haqs7r5W1nbyDHddDicqAUrAZ/yFUiSAZhyCA0gVx27ddXCmA6UsfDE0o8EAmsub0JyNPKvBRUGRw/DXC7xrfgICkEmqEKVugmwOWXYaeVZDHNZ77Vb9ygTiLz8qURhNk8QkQdDB7CHykjnQrBxoFoAojAVvaAV9I+RNQ8UfIWfdO7vSqDl1Dh8GafEt+thaMIAUVGbw4mua/RCuimP3/3KbaLZrWIcbsxiCyEsCaE4AqeLY0t2HIGe5R2b5WkllQdPvDDUZ0GMzgiDy9Jliv/bifyEtwVMecl6DAaSKY4tj6FApGVQNvpqpGqji2O17iiGNITO8kEpVcWyYd9Fr7lwCI7l9aXUgYgQCqxiFEfxEZrhxj/iBO0+dhR0alG5b+CLimKHKauLSIEvbSuzF6Ll2Xol5WEgAqeLYgoRUqGrgm70H10phQAMQBDHMgYP+UnhrHcoOXcOhN2eIXnp/6QUABK0sEIBUceym9ZuhHAUEbcIrfJKYJMih2GRgteZORiZU1vPa7U3rNxMdqqAy+8ofBWMIQRArX4yflDBV1Tq1vR6dHuedC0BKKku86RNI4KS2l1j+VgcdlEMQxG+zm6pqcY34AQ9cI0ZA+RyCIHZZW3/p6dcFJSOXrzpkypCZOyTkfblcAECQl4MBpKAye66VQcOgspAwNTcYZAiCBO+HIAgScq9RnJgWjEJIKXY5TMi+5wKQKo4tozCD9+CIDwEhV7qQGocqq6HJDg66EONcTxKQnPfiMlwAqeLYwmgalOiAGENYyBRUpmhT3oII8Nrtkvyi4LowdnaWu3ZdcO4CTQyCIMToNQ+AVHHskHtwRLMFCanBCzSkMTheYpLn+bBeu72VwngvwLEYI5cGoK4jJ0MK5a9NDZ5d4rk7GYXJXbuu+1pZcG6BbYaD9z3iU+bxrJLK4kQlSPKLgsGKTSq2JUdMniAAjfKEkPH8qMRgiOAHkrDddWnx8Xk0Bu/CYiq4a9eF5BqXKkSb8iAz3uvLBQCEnYDB/lZ9sCZkeMAiBCcqgbsuBx8vyM2DBiupLGE0rWZFvCA3r+3kGew8UNvJM9ipDGE0bTE7XK0URv3KhBdrkiX5RZgErKAnyM2rWREPaWxJ24Lb82JNMicqIXiq+FGJgtw8fFjVB2ugjdXm2KRgjdLi49x1OTUr4qHBuHwllVW/Ejik8/yP+CflrssJPkSAs0BEO5WloDIVVKacwpRRmK0URnNsUkssg3iHQCx/y+UCAMJOwGB/F7RPQQWfE/udy7NY/iGJScLOA0likuYZOZdGJZXVSmFgErCCXkghRHvmQSc2PfN/Rkhjc2zoEiJksILKFMfQ8U+6yLlXUJmCaBo/KpETTXsZQ2tYk8JZxa5ZuZZHSxOuy+XG0NqZWYsUBdnzLi4XANC7UEnKnN8DUgqDl5DKY2Z0nfxGe+bSq0s/D5TdH378TP/nc6u83dgg1j16qty8S8nImF/O/6aXBFBYX6/0LiapncqSMzLNkla3YcxrtfmdroDXS0zefTa7W2fou/iTdvdhOYXZTmW1UVlK9FdOAUuenDK19impLGwpxAJwO3r5dm0mARRxAAIlfgqj53O4AEvEEIIgPrvDJGrq/eZyc9JGIZXJjUrkRCVwKEkcKoO/it2QsJ7zIathFVu4OplPSRKvYjdE00Qx9FYKoyWWgcGuPej0+jKwRQIoEgEEJjJzp2HBY0k+n9/l1ldWa89ckh86pjjyn97vrw7cKu+7Wqb745mhur7/2q2+n28M3al49d2Vts9Ot392Wr63uCl7Z3PqJk5UQiOV2RrHlqMng5cNJhJAkQqgOPbrry443wxDgSfkpdsw5hk3BVwur8Xqn3Qifr/f40F8Pr/bHfB6fROT4K0Yv99jNE32DTgH35hbFQMPHvddLZNv3yfbsquJlt4cm4SFpaUGIRJAEQqgdiqrKTZJv2AQCgmo+RsDAcTnRxAk4PW59aOTA0Nv7j/qPvtdS9aOtuScllhQ5Fx8QIo4AGHpnoLKbENX6Da0HIJlfwoqE+vFGrH6E7ERY1HOZiHKmYcFyzexAZgWLC3FvBnc244mrZij8ZEYgVkLNUJyFnOjyynMjrwDE13a+fHwVno9JrO9Qz1Wz1ftL+3IBu+oYE5Y0M7IAlAblcWPTuSBEghICbHEkBtD50Ylgt9pAmSLaC/aSMN6ZzdOsXDQV8+mEsxoVEiQHF4U0CiMTRJE0wTRNGEMHSOItAjtbUDfZRNG0xrQkVgjGIZeYlx4I04QB4hiQQEMSzsWnBsphdHIzhr57U97h9qh6fFarF6LdflwCQQW5PU7XT6Hw8gVvv7mu1baBlX8rDctQxocQQBqp7JaYhkvVq5t2LC166sL6m8uq06f6zpzSXv+R9Xpcx1ffKu98GPX1xdVp8+pz36n+fYH0PvVhe6L/+388jzoPf+j+izK8vVF7YUfO774dorlzCWU5TImp/PL8ziL+tz3mnPfY3LUX1+UH/xMtr9EcaBUVnBEVnRUXojSB0rl+0unGg+UygtL5IUlsgOlssKStqKjssIS2f4S+f4SecERtPGI4kCp/EApJke+Hx1ZcAQj5PtL21Cx3Qc+680rCjkfeKOSyhJE0+pWsTWnvx19wTHyRY7uXo/RtCAI8AE+uyPgdNk71DZpm02h8hhN/olJZBEwQnw+n8Mx+vT569PfdjKzcJNCEhEEIBX6RCBJTLM0trgNYz6rDTys2uwgMXS5/U6nx2zx2R1IIIDdiyA9dEx4zRbfxGTA6/VarIAlEPDZHR6zJeBy+Z0uwIKedfRZbV6LNeDx+CedgMUxgfj8U/e03+9zODxGk89q801MuoZ1bsMYeMnaMOYa1oEM1GpzvhlxG8cRn9+tN7h0hoDH4xk3uYZHPGaL3+l0Duvc+lHAMmZ0vhnxORw+uwOwjBmRQACwjOj9TpfXbHENj3hNZr/bPXqrois5N+SUYI1NsUk1MTTZx4VmcXPA7UECgYDHg4NjQcKh7Xlz92HX4ROqnYXy5Jz2zbt6jn0xcO4HZ//g4sOYXdU1+qSqa92s0zWQzZEFIFUcu5Odo79S5h4a9o4avWPjXuO4Rz/qNU4TJjNoHDV6DGOAGDd5dAbvuMk7hg7DWEzmGZbp3qkBmMDpRiBkdEqOW2cAWsbGgUAjqsKI0igL6J1WjbNMjcRUjwFer8k81YjxTrMAe4jWjo6Zn9d30uCX6VopjMYYuiiGLolNAvsYHzL1T+F3dheEDjh+1KFuLzgCtgLjU1sS01tpG6T0jXJGZhs7W51/0NIsA09qi/tx6Qx2ZYdmwzYIN/hlxAFIFcfu3ryr+6O9r3Yd7i/+T8/u4q6te9QHj6kPHuvcsltdUKI+fKIr/6Bm537t4RPawlL15l3a/Ue1h09odhRq8g9qDh3X7v1UvSlfU3RMe/CYZvNuzd5PQe+uQ9rtBdpDxzX7S9W5+ZrCEtC4c78m74Dm0HFNQYk6N19b9Blg+WivZvdh0Lv7sHrrHu3BY9qiz4DAfUfAyLwiTLWmELBo9pcCmdv2aXcdAr17ijVbdmuKjmmKjgHD9n4KGvMPalDV2v1H1ZvytYWl2sMnVKxs2eqUlliwdSingCeGNiqLh75aL9mc35y9U5K6Sf3N5cm+gcVN9Mwo5+AbVWFJc0qOeHUKBCAFM0uRnNOxvxSLlzM881IBr9ej02s2bsdBQyQiEUDAvg+TMSulVCYnOpHLzOAnZzVvzhdlbOOn5kpyPm7KzeMxMwTsLHFKDj9pA5eeLkrOFrAyufT0BmaGOCWHm7ieS0sTp+RgjUJ2lig5m0NL49HTxSk5DYyNXHq6kJ0lZGcBFsZGcUoOj5aGycEaBaxMUXI2l5bGQ+U0MDMwFtBIT+cnbQAs9HQuLU2UnD0lB1eduB5oQVmm5EyzYNYC1Zi1jI1NyTlSWnonPYMXlSgrOuroeeXoee3Q9DjfjCB+8Ly9pB+bsqM1J0+0KjkkgJTsbGlO3psHj5e0IILVeWBIHWoti1QATf8zcimFIaSlv770s0PTY5W32zvUE6/6bMoOW5vKruk2NbWO1nJN4mZLq3ysnm/kCCxSxThfPFbHMzfLLC3ysTqekS+ySBVGrnCsnm9plZvEzaO13HGhxCJVjL3kGzkNgEXQOFrLNUtaLS3y0TqekSe0SNuMPOFoHc/SKjc3SQFLg9jcKjdyGsbqQaNJ1ISpNrfIcNVGvmisjmdpkZubZWN1vHG+GKjmCDDVZky1qAm1ljf2ssHcKh9vEI/Vcm3i5sFT3woS1ytPfAnyszB+9NX1kuTskABqY2VJU3Kb0rf2X7/rd7uXpMSp6eneuocYezA60gGkpLLkFKaxsgbx+UD5y+cDO4uA8Ae8XnAb+fwBjwekmWgvSLexRjfa6AfD/C5QkAUj3R7gOJ9vmsUHyrUuNyrHF0BZAqiKKRY/YMGEgwTcBXgBu9uDsYBSL6oa04IFDCDB5wPPO35gJyCw2p0fpUM1Bny+sSdVwmhaz5lLnvElPGoFg8CiaG+IY4YCUIacnd28Lle2o8AkaV1SBHL1D/WXnOqkh9j/jzgAtaGIkVIY+K8sIa3n0//oH/45cuOeofyx4fdK3a0HulsPDL9X6h/8obt531Dxh+H3ypGyct3tCtB4/3cw8ren+t8Ai/7eI8PjZ/q7v+nKyvWPnuorAMvogz/AgLJyfVm54dHT0fLHuut3DRVPRh891d+8b7jzcPT3SsOdh/qb90cfPTVUPAG99383PHpquPVAf7Pc8NtTQ/lj/Y17hoo/UJZy/e0KIOfhE1PNSzNPZOaJxqvrLRyBmS8y1/HMNRwzT2jiCMar680cgZknNL/gWF5wrTyRlSMwP6+31PEGTnzdnpj++rMvXH2DAZc74HL5LFZwMyzxxz1u6rt5X7A6WbRmOgeib5AmbWxiZkqSsxuzd2pOnYO+bmB+Da6+wf6SU12s7ODwE3H/N74dPSlWsyKeH5/SQE9/viKen5gmYGZwElK59PTGjG2ClJyamERx+pbGDR/VfshsYGVKMrfzmRl1q9mNGz4Sp2+pjk4UpOQ0Zmzj0tI4CamSjO3CdbnVUQnitM2NG7fVr0nmMzY2ZmxrYGXWxzFE7CwRK7M2li6gownN2lTOarY4OVvI2PgiOlHI2ChOzuasZvPWpoJcir6hNoYmZmeJ2Fl1VAYfTYz4ietffsgELMyMF9GJgqQNTVk7eGi605S1Q7x+84tYeuOGrZKM7S/jUwTsrObsnYLkbP6alM7MHep1mzvWpHYl56rXb+mkb+xITFfFsbXZeb2fHBw4/tXg5+deHT4x+XrJSTR4WaVL23PlZs1qdgMzg5e4XkDf0MDMAG7Zkt9x9JS5WTY/YvDegNvj1PS82ndknmpQZEWgdipLFEMXJWf3fX/N8LxOX10P/j6tNtS8NNS81FdWj1bX62teGv56YXhWAxqr63VPnxuq6wH9rMZQVTvFUjnDoq+qBb3P6wyVNaC35iXGoqus7r9a1n+1bPDuw8Gb9/t+ujF4+8HgnYr+n28O/Hpn6O7Dget3+3++CRpvV4Dem/eH7v3Wf+0WxjJQdr//5xuDt8qH7j7sv3Jz4JfbgOXG3b6fwO43xjJw497Qvd8Gfrndf+UmaLxVDljKyt/crhg6+/2cL/esnvqerrZVyZpdh9zzfqkoPtkQMTmiH2ts7jz/Q0vxibZjXyiOft5x6uwYX+QgfLMWxAJdul71WzmCrpRc1eqUkLEnEnMg7PRT18cH/I6JqRwCSyD8fpBP4DRWTsUa8b9gexBNO/BhC7KgCQ0xB8KyHJBdTaVNU4nRVNo0nQOBTAvd6Pa73SgLmpCh6RfgxXIpNEWbluMnsgRcbp/VNvTF+Y6EWV98FjxPnSmbBj8/59YbQO619B+vze61OybfjLh0eq9jAjqYFlIeNsbygvvm60udSSGSHsjIyIpAYMcxjq1O2zp656FN1OzU9NgbW6080UR7l0PebuWJ7E3SSXW3TdhkbWicVHc7WhVWnsjRqphUd1sbGm3Cpkl1t12CsrSpJpSdVr7Y1tji1PTYRM2ApVPjkCmBnBb5ZJfWJmi0CSWApUkK5MiVkx1qIEcMVNsaW6x88UR714RCRVAtsQkaJ7u0jhY5YJG2TXZqAAvRWmXHhLIDsDS2zljbpZ2ytkU+qe42/VU7ePIsNBkhL6VpW5TFJ0wtMpuywzk0jD4NLAdMIeFCbAw4XT6rzVLHGz73A1hS49eHtAdqjDgAAftWpXQyMrtSctWpW0CKkLKpKyW3i50DCHaOet1m0JWyCVyysvG/2DDQi7Ek52LDwGXqFpgFlTbDMi18Fsv8qjEW1IAZObjqaSKEtdOqoZkIeYm+hbK2mkLXv+QbqmrNzVJHb9+SHqCIEAlBY+c6XK6JNpX5ed2rfUe6t4R4Vg9pG9YYkQCaLgLNY/f/h652KkscQ6+OTnj9y22vyQwWR6938bsQIeCCNaGLvs9kcQ++cfUPGW7cf/PNd13o/bYMr5IAitADZdj7T7VRCZLM7cbZXz4xFzJAvgWKUlMLXMAFSoUBlxvsFZrMnmGdU9Mz0d5lelptuHFv5NKVnh2F2pxPlgEaIgsJoAgFkJLKksQk1ayI1wZ9m2BIAFlquaO3K0YuX9Vfuz1aVm64flf30w3dD78OX/ipr/jf4OtBi45psz4Gqy07RzX9oEeEwvJoEkARCqB29N1WyeZ8I0+IB5UQ0EEfSA037vd+clAVx+5ISMPqSR3x6zvpG7EtxY41qfje4vJQMg8XCaAIBVBzbFLdyrVth4/Pc3zHb7N7hnWDJ8/Of7RonukPv4sEUIQCCJwKT8owCyVYKhMcezwGcKjo9f6j4YMgHAkkgCIUQKo4tmbDtoGjp02VNabKGkstF1StBI1gB40rtLxsGDp9vmfbvnDm/q3wkgCKXAC9lQl+10JIAJEACssDJIDCct+7vr8jXz4JIBJAYXmABFBY7ov8CPGuLSQBRAIoLA+QAArLfe/6/o58+SSASACF5QESQGG5L/IjxLu2kAQQCaCwPEACKCz3vev7O/LlkwAiARSWB0gAheW+yI8Q79pCEkAkgMLyAAmgsNz3ru/vyJf/f4ho6Jz1gCK/AAAAAElFTkSuQmCC;" vertex="1" parent="17">
                    <mxGeometry x="128.22222222222223" y="79.4" width="73.188" height="32.4" as="geometry"/>
                </mxCell>
                <mxCell id="22" value="" style="shape=image;verticalLabelPosition=bottom;labelBackgroundColor=#ffffff;verticalAlign=top;aspect=fixed;imageAspect=0;image=data:image/png,iVBORw0KGgoAAAANSUhEUgAAAxMAAACkCAIAAABjH+RXAAAgAElEQVR4Ae2dC1hTR/r/2VXrBYipNG0VBEWRFWpLRSQVrbZaL8VqW3H7k/pzbW3oz+1aun+z1trYG1ut3MKlFUEtoBZU8IbUigVNvaExWBTlqoggQUAItwRynf+Ds3s8TUg45ISQxDcPj8+cOfO+M+9nJjlfZ+acY4fgAwSAABAAAkAACAABIECNgB21YnpL5ebmhoWFBQUF+fj4sFisIUOG2MEHCAABIAAEgAAQAAKWQWDIkCEsFsvHxycoKCgsLCw3N1evpqF2wkjllJWVFRwcbG9vHxAQsGHDhvT09IKCgvr6eoVCQa1eKAUEgAAQAAJAAAgAgX4noFAo6uvrCwoK0tPTN2zYEBAQYG9vHxwcnJWVZVzdfVZOO3bs8PLyCggISEhIqK+vN65WsAICQAAIAAEgAASAwIAQqK+vT0hICAgI8PLy2rFjR1/b0AfllJWV5ePjExgYmJeX19dqoDwQAAJAAAgAASAABCyKQF5eXmBgoI+PT5/mn6gqp7Vr13p4eGRmZlpUzNAYIAAEgAAQAAJAAAjQIZCZmenh4bF27VqKTnpXTsXFxX5+fiEhIXK5nKJTKAYEgAAQAAJAAAgAAWshoFAoQkJC/Pz8iouLe21zL8rp7NmzLBYrNja2V0dQAAgAASAABIAAEAAC1ksgNjaWxWKdPXvWcAiGlNPZs2ft7e3T09MNu4CzQAAIAAEgAASAABCwAQLp6en29vaGxZNe5VRcXMxisUA22cA4gBCAABAAAkAACAABigTS09NZLJaBZTu9ysnPzw8W6ShShmJAAAgAASAABICAzRCIjY318/PTF07Pymnt2rUhISH6bCAfCAABIAAEgAAQAAI2TCAkJETf3XY9KKesrCwPDw94GrgND4ju0NRq1NWFWltRWRm6cwe1tyOFojuT/MFlGhqQUKh9ilwM0kAACAABIAAEbIuAQqHw8PDo8TlPPSgnHx8feG6TbQ2AP0ajViO5HP32G+Jy0cKF6KWX0IwZaNEi9H//h77/HuXmoooKVFeHiotRWlp3mddfR3v2gHL6I0Q4AgJAAAgAARsnkJmZ6ePjoxuktnLasWNHYGCgbjnIsR0CanW3bFq0qPtvwQL06qvd4mnaNDR1KvL1Rf7+3UIqIACx2Wj6dBQQoPnqK6RUIo3GdghAJEAACAABIAAEKBAIDAzUfT2LtnLy8vKCl6tQgGnNRTQa1NKCxGLU3IyamtCtW0ggQNHRaMmSbv3k64t8fTXTfDV+fuitN9GhQ0gms+Zooe1AAAgAASAABIwkkJeX5+XlpWX8B+WUlZUVEBCgVQIObZMAnkPSaLonk9RqpFJ173OqqNAcOSzfldSQ/EO94GdZa7O+RTq1Rt3Q0dDQ3mCbcCAqIAAEgAAQAAIPCQQEBGjtdvqDcgoODk5ISABWjycBpUrZ3PFg9+WkZT8tnZ8yd37qvMU/Lf7nL/88U3lG0iGRq+RKtVKhUkgV0psNNz/L/Wxp2tJDNw89nqwgaiAABIAAEHhMCCQkJAQHB5OD/YNysre3r6+vJ5+G9GNCQKPRlDWUrTq8aubumexdbL8kv6mJU6fumDotcRp7J3v+nvkhx0I+z/v8qzNfvXvoXfZO9oxdM77K+6pT2fmY8IEwgQAQAAJA4PEkUF9fb29vT479kXLKzc2FpToymscqrdaoKxorjpcdF9WKCusKD5cc/vjExwv3Lpy5e6Zfkp9vou/UxKm+ib7TEqdN3zl9TsqcL05/0dHV0SMijUajfvjp8SxkAgEgAASAABCwLgIBAQG5ublEmx8pp7CwsA0bNhAnIGGTBIh9TWq1Bqf1halSqxs7HlyuEab8nsLN4QYdCHp7/9sfZX+UfDW5pKFErfnjk5/+60Wj0bS3t18WXi4rK+uuAD5AAAgAASAABKycwIYNG8LCwoggHimnoKCgfnpLXWlpKY/HY7PZDAbDDj59J8BgMNhsNo/HKy0tJXrOiIRGg9rbVUVFHSdONB0+3Hjq16bCwvbGRoWuxFGpNJWVnUePNmZk1qs1apVapVQrVRqVWqNWax5qLoR0rTQajUwm+/7772NiYmg21YjowAQIAAEgAASAQH8QSE9PDwoKIjw/Uk4+Pj4FBQXECVMlQkNDGQwGl8sVCAQSicRUbh8rPxKJRCAQcLlcBoMRGhpqXOxyubqoqGPVqpLZs39nswv8/Qteeunq7Nm/L1p0/ZNPKrKyGuvru9rbVRKJMien6cMPy157rXDu3MJLl1rUarVUKr1z586NGzcq71Ter79fV1eXk5OzefPmrq6uB01NrW2tKpVKrVYrlUpxnTgyMpLP54vFYtXDj0KhUCqVCoVC0iJRKpV4LU+hUDQ1N7W0tOAcHJFGo+kuJpE0Pmjs7OzCykyj0ahUKrlcjp1IZVLCj0KhaHzQ2NHRoVKpsAe1Wi2XyxsaGwjPuDq5XK54+GlpbWlrazMOIFgBASAABIDA40mgoKCA/EjMR8qJxWKZdnt4bW0tm83mcDggmEw11CQSCYfDYbPZtbW1ffV5/XrHwoXXAgOvL11aNG9eIZtdMG2ayNe3+8/Pr4DNLggIuLp48fV58675+xf4+RXMnHk1NbVOKu0qKCgIDAx8+umnFy9ezHz4mTRp0t/+9reTOSf3799/9OhR/G9jY2N5eXlSUlJERERMTMzevXtvV96+dv3azp079+zdcyzrWPz38Q0NDXK5XCgUJicnZ2Rk7N279+DBg42NjZqHn5s3b2ZkZOzatSs2NjYhIeHq1d81Go1SqTx58mRSUlJWVtahw4fi4uJiY2NzcnIKCwv37dsXGxv7ww8/CIVChJBcLr948eLu3buPHj2anJx86NChlpZu2Xfr1q2kpKSUlJS8vNPff//9yZMn+4oOygMBIAAEgMDjTKC+vp7FYhEEHimnIUOGmPZddWw2m7wuSFQJCZoEwsLC2Gx2X53IZOqODhX+a2tTXbnS9u23VUuXFr388u9YKk2b1i2Ypk/vllBvvHH9558burqUEomEzWY/8cQTa9asuX///ttvvz148OC4uPj29vZjx479mPyjVCptaWnZsWOHWCzu6uo6evRoZGRk+v70rq4uhUKRlZUVGRm5/eFn586d9Q0NIpGIz+fv27evs7OzoaEhKioqOTlZoVCo1WrhFWFHR0d7e3t6enpERERCQoJKperq6jpw4EBERERsXGxxcXFRUVFkZGRUVNTOnTvr7tdlZGRGRUUdOnRIrVafP3+Bz+cfPXpULpdLJJLo6Og9e/YoFIqbN2+Gh4fHxMR8//33iYmJFy5cUCr/M0fVV4ZQHggAASAABB5DAgqFYsiQIUTgj5STnd2jNHHa6ERoaCiHwzHaHAwNE+BwOEYv2xGeNRokkSivXm1LS6v/6qvKf/yj/JNPKmJias6cab5/X/7wAZnq6urqCRMnODg43Lp1WyKRzJs3b/DgwV9//XVHR8fevd1TPsIrQoVCUVtbq1aru7q6kpOTo6Kirv5+FS+cpaSkREREJCcnSyQSqVQqk8l27toZHR19/fp1pUrZ2NgYGRn5ww8/NDU3EXfkyeXyI0eOREZGJicnq1Sqtra2xMTEqKiooqIitVpdX18fFRUVGxv74MEDlUpVcPX36Ojoo0ePKhTKhIQdUVFRZWVlKpXqfn1TVFTU7h93t3e0FxYWhoeH7969+8GDB52dne3t7ZiA7j4tggwkgAAQAAJAAAiQCZA10iO1RM4llzYiXVpaymAwYJHOCHQUTSQSCYPBoL8Lm7jVTqXSqFQPt3+T7rnTaDQPHjwICAiwt7c/efLkzz//PHToUEdHx4MHD3Z2dubk5ERERERGRh4/fryzq1Oj0bS2tiYmJsbExHR0dGg0mo6Ojp07d0bz+VVVVfg5BY2NjVFRUZGRkRkZGTk5ORkZRyIiIn7Y/kOzpLm+vj43NzctLW3//v3ff/99ZGSk4DeBWq1uaGiIjo7evn17e3u7Wq0uLS2Njo4+ePCgSqVSKBS7du2Kior65ZdfJBIJ9nz48OGcnBw8TZWcnNzR0XH48OHw8PD8/HyVSgVqieIAg2JAAAgAASBAJkDWSP2inHg8HpfLJVcJaZMT4HK5PB7P5G7JDvG9chcvXhw9erSLi8vYsWMnTJhw4MABvLjW0dFx/PjxqKgoPp9/+vTp7u3hYnFMTMyOHTtwgfr6+ri4uO3bt8vlcoQQ3nIUHR0dGxtbUlJy/373TvPa2tqamprm5mZ8R55QKJRIJPv27ePz+Q2NDf8x4UdnZGTg/eZpaWl8Pj87Oxsh1NXVFR0dHRMTc/v27cLCQiyw7ty5gz3fvXsXLyDGxMRERUXduHFDre75SQrkkCENBIAAEAACQECXQL8rJzabLRAIdCuGHBMSEAgERux26lMD1Gp1bW3ttGnTpk6dmpeXJxKJGhoalEolngpqb2/v7Ow8f/58VFTU4cOHFQpFWVlZZGTkgQMHlEqlSqWqqKiIjIzct28f3j+HZ7Cio6Pj4uJqa2vxrnC8SJefnx8dHc3n87u6urCKio+Px/fHHTp0CO9eIqQSn88vLCxECN25cyfm4Ucmk+GpqYSEhKam7oU/4tPW1hb98IPz+xQ+FAYCQAAIAAEggAn0u3KCpTozDDW8YNevFSkUivLychcXl+HDhzMYjFGjRs2dO/f69esKhSI9Pf3q1atSqVQsFsfFxVVVVSmVypKSksjIyCNHjshkMoVCcenSpaioqJ9//hk/NQDfKHfs2LHY2NiLFy/ibU/4mQJXrlzhP/zcu3fv4sWLfD5/586dra2tMpkMK6pff/0VISQWi2NjY+Pi4qRSqUajOXfuHJ/PT0hIUCgUKpVq//79sbGxhYWFsoefzs7O7l3nQiGfz4+NjcXzXv2KC5wDASAABICArRLod+VErsBWIVpCXP3KGW9U+uKLLzw8PNauXbt8+fLRo0cPGTLE19e3s7OzpKQkPT09JSUlOTlZKBTiiSiJRLJnz564uLjDhw+3trZmZGSkpKRcunSJvEzW2tqal5e3Y8eO5OTk/fv340U0mUz2888/R0ZG7tq16+bNm8eOHYuPj7906ZJYLE5NTU1JSSkuLkYIXb16dd++fXv27MFPgcrLy9u7d++JEyewf4lE8uuvv27fvj0lJWX//v3l5eUKhSInJyclJeXHH39UKpWW0GXQBiAABIAAELBGAuQLbr/scyJXYI2ArKXNfeWstT9a65CIGucrlcoDBw4wmcyTJ0/ix0gWFxc7ODhMnjxZLpfjHd+dnZ3kbdd46a2zs3u3OHGvnFYtOF+pVEqlUqy3iMJ4pgp77urqfhKmlhN8inCIH79JHBLlZTIZbhWRQ5ZuRJiQAAJAAAgAASBAkQD5ggvKiSI0SyxG7she29dX9aBQKPbs2ePo6PjDDz/IZLKOjo78/HwGgxETE2PYFZYyhstotZasfrROGTgkrAyUgVNAAAgAASAABOgTIF9wQTnR5zlgHsgdaUQjCOVBJMhO1Gp1U1PTxo0bvby83nrrrZUrV77yyis8Hq+5uZmKKurRJ9m/vjRhSCT0lTScT9NcyzmeviJn9uofmxgopsZvXSY7pZfWbSQ9f2ANBIAAEAAC/yFAvuCCcrLiYUHuyP4IQ6PRdHZ2Njc337hxo6ysrL29nXhDXI/VGVAJPZbvMZNwgt9Yh+UF3l2O02q1GjcDvymPLOPwKSwg8JMR8Hpft08N0nS/r7j7cVXkYuTVRvTwNcb4xkC1qrsk8ens7Kyt6X7aZ2trq1qt7uzslMlkhCuVsvu1feQGq9XdDxGVd8nlcnlLcwv5FI5aqVQKhcK2tjZiCZJYfMTBdh/+tw3E4iMurBsFzr937x75PYA94oVMIAAEgAAQMIIA+YILyskIgJZiQu5IS2mT6dqhVqsvX7qceya3s7Ozpqbm/MXzxSXFCoVCJBIJLwsVSsX169fPnj1bK/7PK/w0Gk1lZeX5i+clbZLOzs7TZ07/XvB7t0C5IiwvL+9o62hubj6Ve6pV0nqj9MaZM2e6urpu3bp1+szphvoGLNe6PdypvJR/Kfd07mlB9xOq7tXek8vlVXeqWlpaCkWFrW2t0THRdeK6+/fv19bWtra05pzKyf01N/9ivkQiaW5uFggExaXFSqVScFZw6PChttY2SaPk2rVrSqWyQFRw5swZ4jbD0tLS48ePd7R3nDt37lL+pa7OrvyL+QVXC7obfFl4KudU3uk80VWRUqn8/drvp0+fbmtvKy8vLy4tvnb9WklJiUKhyL+Uf+nSJblcXnm78sxvZ9rb20UiUUFBQUPDf8IxXVeAJyAABIDA406AfMEF5WTFo4HckVYcRk9Nx9Nd5y+cLy8vr7lXU1pa2tDQcEV0RSKRZB/PzsvN65B2/Pbbbw8ePKipqcEONBrNzZs3c/NyJRLJtYJr1Xerf0z5saur61j2sQsXLzQ3Nt+/f7+yslKtVn+//XuZVKZUKjMyMk7nnr4iuoKVk1qtLiwslEqlV65cOX36dFdXV0lpSYe041rhNYlEUigqVCqV8d/Hq1Sqe/fuVVVV1dfXXxNdO3PmTGVl5b2ae0VFRadyTp07f66jvePY8WNCobC9tf3B/QeXL1+Wy+W/5PySmJTY1dWFZ7aqqqoqKioUCkXe6TyZTNbW2nY8+/iRo0e6urqOZx0vul5UdL0oLzevq6srITEh52ROdXX1/br7BzIO7E7ZnX85v7W19cqVK9euXevo6Pj9998fNDxQKpV5eXn70vbJOrsnw3qCCnlAAAgAASBgJAHyBReUk5EQLcGM3JGW0B4TtgEvb507fy731+45p5KSkuyfs2/duqVQKISXhIKzAoVCUXKzpL29/cGDB7hejUZTXl5+7Oixjo6Orq6uk7+cLC0tVSqVl65cys3LbWlraWlpwdNL5eXlJ7JPKBSK6urqrKysuto6Ys6p6k5V9yzOncqia0VKhfLOnTsnsk9U3q6USqVYdR09erSqqqqpqanxQWNLS8udW3duFN1oaGhoftDc0tKSlZVVdL1IqVSeFZzNOpbV2dnZKmmtqKhQKpUnfj6B71LErX3w4MH9uvsqlerm9ZsKhUIqlf7888/nz59XKpUioaj6bnX13eob128olcob12/88ssvra2tSqXyiuhKcWlxzb2a7irOnj1/7rxcLr97525rW/ca4q2KW3fv3r1TdQeUkwmHIrgCAkAACCCEyBdcUE5WPCTIHWnFYehvOt76g/eqS6VSrf09xA4hwoHWBiat8njTEn4PDOEZJwgP5Ocg4PLkRyeQtysRW6CI7VPks3gP1qMyGg1+ewyhacincGZ3ge6dTf/ZidVd4L9brXAjsUl31Jru18h0J7q3V/230MPTmAkRDiSAABAAAkDAJATIF1xQTiZBOjBOyB05MC2AWoEAEAACQAAIPAYEyBdcUE5W3OHkjrTiMKDpQAAIAAEgAAQsmwD5ggvKqYe+It/o3sNpi8kid6TFNAoaAgSAABAAAkDA1giQL7g2qJzkcvnKlSvd3d3d3NyCg4NlMhlC6ODBg97e3pMmTXr55ZdLSkoQQlu3bv3www9x3xJpR0fHLVu2MJnMjo6OGzdusNlsZ2fnWbNmVVZWIoTKyspmz57t6enp6+t74cKFAR8X5I4c8MZAA4AAEAACQAAI2CoB8gXXBpVTRkbGvHnz8Fbf9evXnz9//u7du0wms6KiAiGUmJg4ffp0fcpp1KhRXC4Xb8WdMmXK4cOHEULbtm1bsGABQujFF19MSkpCCAmFwjFjxsjl8oEdIuSOHNiWQO1AAAgAASAABGyYAPmCa4PK6dy5c87OztnZ2Z2dnbgXd+3aFRgYiNOdnZ12dnYtLS3EPBNZRTk5OeXn5yOEqqqqRo4ciU0UCkV7e/vdu3ft7e2Jhbxp06YJBIKBHSXkjhzYlkDtQAAIAAEgAARsmAD5gmuDygkhlJGRMWfOnJEjR3I4HKlUumXLllWrVhE9OmLEiIqKCn3Kqby8HM8qubq6EiYIoStXrgwaNMjtv5+nnnoqIyODXMD8aXJHmr92qBEIAAEgAASAwGNCgHzBtU3lhDtSIpHMnz8/Kipq165dixYtwplSqdTOzq6trS08PDwkJARnbtq0Ce95cnJywot6VVVVDg4OeIZJLpeXlJTU1NQQs1AWMlDIHWkhTYJmAAEgAASAABCwPQLkC64NKqfY2Ngvv/wS71V6//33IyIisOjBkiguLm7WrFkIoZ9++ikgIAAhJJPJXnjhBS3lpNFovL29k5OTEUIxMTF4n9PUqVPT0tIQQg0NDStWrGhvbx/YwUHuyIFtCdQOBIAAEAACQMCGCZAvuDaonBobGxcvXuzq6jpu3Ljly5djfZORkeHt7e3h4TF37tzbt28jhKRS6bx583x8fJYsWbJx48YPPvgAIUTMOSGErl+/Pn369GeeeYZ8b92cOXMmTJjg4eGRkJAw4EOE3JED3hhoABAAAkAACAABWyVAvuDaoHKy1W7TjYvckbpnIQcIAAEgAASAABAwCQHyBReUk0mQDowTckcOTAugViAABIAAEAACjwEB8gUXlJMVd7idnV12drYZAigtLeXxeGw2m8Fg2Fnzh8FgsNlsHo9XWlraT9yAFXWwXZLSBhGv6ohfWbJjyU476/0rS3asOuLXIOJ1SfprXAEr6uPKir6D8ItkquuJGUiCcqL+HbToknjM9bd4Cg0NZTAYXC5XIBBIJBKLJtJb4yQSiUAg4HK5DAYjNDS0t+J9Pg+sqCOrv7iuLNmhPm+VtChJVX0GiUXW+6eqPiMtSqrPW9Ud0cV11CFQLAmsKIJCCFnXdxB+kaj3rOGS/U0SIQTKyXAXWM1ZPOfUfzNPtbW1bDabw+FYu2DS7VGJRMLhcNhsdm1tre5ZI3KAFXVoSmlt1RE/cc4yaxdMulJPVX1GnLOs6oifUmqacQWsqI8rq/4Owi8S9Y42XNLkJInqbFY55efn+/v7KxQKIlQqCT6fv2bNGgMlf/3115qaGt0CCoXC398fP3Nc96wZcnBHZmdn95N4YrPZYWFhZghkoKoICwtjs9kmqR1YUcdYdcSv8be1urLDZnIaf1tbdcSPOhADJYGVAThap2zgOwi/SFp9avShCUkSbbBN5aRSqTw9PYuKiog4KSYMKCf8JMwlS5bok0fXr1/38PBQqVQU6zJtMaIj+0M8hYaGcjgc0zbYAr1xOBz6y3bAinrP1l9cJ85ZZjMiSV8g4pxl9JftgBX1cWUz30H4RaLe6YZLmoQkuQrigtu9ckecIOcSmcYlTOiKegPS0tLeeOMNhNC77767c+dOhND9+/ft7OxOnTqFECooKJgyZQpCKDs7e8qUKZ6enosWLRKLxQghPp//zjvvLFy4cPTo0QEBAXh6ydHRccuWLUwm85tvvhk6dKi7u/uhQ4c0Gg2Pxxs3btzYsWMjIyNx2xYtWoQfj0m9qaYqSeZsWvFUWlrKYDBsb5FOl7xEImEwGHQ2jAMrXar6crokpWXJDra3SKern1TVZ8qSHehsGAdW+kaRbr4tfQfhF0m3f43LoU9Sq17yBdd2lFNQUNDu3bsRQrt3737//ffx2+umT5/+5ZdfIoRiY2M/+eSTuro6JpOJ56UiIyPfeustrJwcHByKi4sRQqtXr8aPxBw1ahSXy9VoNAghb29vPOeUmZnp7+8vk8mampqcnZ1xZmJi4vLly7UQm+eQ3JFYFJpq2Y7H43G5XPNEMeC1cLlcHo9ndDOAFXV0DSJefd4qXZ1hkzn1easaRMaPK2BFfVzZ2HcQfpGod73hkjRJajknX3BtRzm5urpeu3YNIVRZWTl58mSE0Mcff5yamjpv3jyE0PLly48fP56amrpw4UKMo729ffDgwSqVis/nE5k5OTne3t74YeLECh2hnFavXh0dHY3NW1tb8SJdYWGhm5ubFmLzHJI7EtdoqpknNpstEAjME8WA1yIQCOjsdgJW1Huw6oiftCjJJnWSblDSoiQ6u52AFfVxZWPfQfhFot71hkvSJKnlnHzBtR3lNHz4cLz6hhAaP358c3PztGnT2travL29VSqVq6tra2trRESEvb29238/TCazrq6Oz+evWrUKMxIKhWPGjMHKqby8HGcSyun111//8ccftWjW1tYOHz5cK9M8h+SOJGo0iXh6TJbqMDQ8qUsA7GsCWFEnVpbs+Dgs1WEV9XDBzpE6HK2SwEoLiIFDG/sOwi+Sgb7u0ymaJLXqIl9wbUc5DRs2jFBOq1ev3r9/v6+vL0LonXfeyczMfOmllxBCe/fuXbp0qRYOPp+PN0ghhE6dOoW3Q5FfYEcop9WrV2/btg2b19TUNDU1IYQsTTmZZNmOPES0cNnkIZ146dhaI0w68ZbstNOdm7HhnO54jf0AK+rk6IxJ6rWYsySdiOjYmjNG89RlQhpkV4++2ORcmiGZ0BX1lowdOxav1iGEUlNT2Wz2Rx99hHc4zZgxA29kuX//PovFwpNJQqFw3bruZ9bx+Xwmk1lVVYUQ+uCDD7AVWTn5+Pj88ssvCKGDBw8+//zzra2tzc3N7u7uFy9eRAgVFha6urpSb6cJSxrgTHPmyYBnE7bfclzRiZeOreUQoN4SOvGCGqDOGVhRZ0VnTFKvxZwl6UREx9acMZqnLhPSILuyHeX05ptv4h3iCKHq6mo7Ozt8y5tQKLSzszt9+jTuJ3xv3YQJE3x8fM6dO4cQioyMXLlyZWBg4Lhx42bPnl1XV4dX6yoqKrDJ119/zWAw4uLi1Gr1Z5995uLi4uzsHB4ejs8mJSUtW7bMPINAqxZyR2qdojnzZNizbl3WnkMnXjq21siNTrygBqj3OLCizorOmKReizlL0omIjq05YzRPXSakQXZlO8opJSWFWHQzT5fgWgIDA/fu3WvOGom6yB1JZJITRs889eqZXIsNpOnES8fWGtHRiRfUAPUeB1bUWdEZk9RrMWdJOhHRsdswkTwAACAASURBVDVnjOapy4Q0yK5sRzkpFIqJEyfeuHHDPP2Ba8FPwlQqleaslKiL3JFEplbCOPFExbNWRVZ9SCdeOrbWCI1OvKAGqPc4sKLOis6YpF6LOUvSiYiOrTljNE9dJqRBdmU7ygkhdOHCBTab3de3rxjdf/jtK3i3k9FO6BiSO9KAHyPEE0XPBiq1rlN04qVja12UcGvpxAtqgHqPAyvqrOiMSeq1mLMknYjo2JozRvPUZUIaZFc2pZzM0xOWUwu5Iw23qq/iibpnw/Vay1k68dKxtRY+5HbSiRfUAJmk4TSwMsyHfJbOmCT7sZw0nYjo2FoOAVO1xIQ0yK5AOZmqgwbAD7kje62+T+KpT557rdryC9CJl46t5ZPRbSGdeEEN6PLUlwOs9JHRzaczJnW9WUIOnYjo2FpC7KZtgwlpkF2BcjJtN5nVG7kjqVRMXTz11TOV2i25DJ146dhaMhN9baMTL6gBfVR184GVLhN9OXTGpD6fA5tPJyI6tgMbdX/UbkIaZFegnPqjs8zkk9yRFKukKJ6M8EyxAZZZjE68dGwtk4bhVtGJF9SAYbbks8CKTMNwms6YNOx5oM7SiYiO7UDF23/1mpAG2RUop/7rsn73TO5I6pVREU/GeabeBksrSSdeOraWxoFKe+jEC2qACmFcBlhRZ0VnTFKvxZwl6UREx5ZmjPb29jU1NT064fP5a9as6fFUv2aakAbZFSinfu21/nVO7sg+1dSreDLac5+aYTmF6cRLx9ZyCFBvCZ14QQ1Q5wysqLOiMyap12LOknQiomNLM8b6+nq1Wt2jE1BOPWL5Q+YA9twf2mHrB3Q4GxZPdDxbI3U68dKxfdxYgRqg3uPAijor2/sO0omIji115gihiIiIiRMnuru7z5gx4/bt2wghPOdUWFj4wgsvfP755y+//LKHh8fJkyfxW87wnFNNTY2rq+vZs2f7VJfRhU1Ig+yqX+acbOzN1Ub3Wb8a0n8LtJZ42rRpE5PJxG0mD5F+jcJCnNOJl46thYTfp2bQiRfUAHXUwIo6Kzpjknot5ixJJyI6ttRjbGxsfPLJJ9va2hBCycnJP/zwA6GcioqKBg0ahF/2mp6ePmPGDEI5yWQyX19fc751w4Q0yK76RTmx2WyBQEC9D6CkEQQEAgGbzTbCkGxCFk9z5swZNmwYfmsyeYiQy9tqmk68dGytkSedeEENUO9xYEWdFZ0xSb0Wc5akExEdW+oxymQyJpOZkJDw4MEDwgrPORUVFTEYDJx57do1V1dXQjn9z//8z5dffkmUN0PChDTIrvpFOfF4PC6XawYoj3MVXC6Xx+PRJ4DF08GDB+3s7IYOHfrVV18hhMhDhH4Vlu+BTrx0bC2fjG4L6cQLakCXp74cYKWPjG4+nTGp680ScuhERMe2T7FfvXp1+fLlTCZz3rx5lZWV5DknZ2dn7KqoqAin+Xw+k8kcPnz4rl27+lQLzcImpEF21S/KqbS0FBbsaPa3YXO8VFdaWmq4GMWzhGyys7MbP348KCeK3HAx8tepT4ZWWphOvKAGqHc6sKLOis6YpF6LOUvSiYiOrRExKhSKzz///I033uhVOb366qvXrl1jsVhVVVVGVGSciQlpkF31i3JCCIWGhnI4HONCBateCXA4nNDQ0F6L9Vpg06ZNc+bMwbNNdg8/Dg4O165dIw+RXp3oFhio2yh0W0Ixh0q8kZGReFFfyycVWy0T0x6amTaVePWxshA1MJLhUFNwAolFun/8r//fmhVLdfONy+mOt7ePhbPSF3jE5lAM6tcD2/XB1GfbYz4dVlTGZG/9QPf8yJEj9d2Qb4RrKhHpGzlUbI1okpZJfn7+W2+91dnZiRBKTU0NDAzsVTnhHeJbtmx59dVXNRqNlsN+OjQhDbKrR19scq5JYmCz2WFhYSZxBU7IBMLCwujvcMIOmUzmsGHDhg4dimUTsWBHczCY+VpOhqPvnlhyGd00lXiHDRs2ZMiQjRs3auknKra6NZowhwptlUplqhqpxKuPFSgn3V6wcFY9qhwkFklvn28t+w2JRUvmv5x/PFlfMZyvvic0XACJRVSUkz5WVMakLnnT5lBRTtS/hlQiGlgaarX6n//8p6ur6/jx42fMmHHz5k2KykmlUvn5+cXFxZmWvz5vVEjqs9XKJ7vqR+VUW1vLZrM5HI5EItFqARwaR0AikXA4HDabXVtba5wHXatr16599dVX48aNc3BwwBJq3Lhx5CGia9JjTmdn54oVK1xdXQMCAtatW4f/e1FWVjZ79mxPT09fX98LFy4ghPANqxs3bpwxY8bkyZMFAsHSpUu9vLz+/ve/I4Ty8/M9PT2xfyK9ePHi6OhohFBLS8vo0aMLCwsRQv/+9789PT3/8pe/fPTRR3K5HCHk6Oi4ZcsWJpPZ0dHRYwsNZFKJNyYmZtiwYU888cTQoUPJ+omKrYGqiVNyuXzlypXu7u5ubm7BwcEymQwhlJmZ6enp6ezsvHLlyq6uLvzfu0mTJo0fP3727NnV1dXE1kuEkC7tgoKCF1544d13350zZw5REc0ElXj1sTKVcor5Zv3qd95Y8eaCKZMnvj434Hgqf+ErM9zdnPfEfYPEIvU94eeh709yd53k7vru24vwBf5kWvzEcWM9J7h986//YzIc8TRJ9p6YKZMnek5wW/TqDPHvJ5FYZP45J6NZaWqv8D5ZM27smLFjnon84hN9gTMZjt9/u2HuzOluLqOP/Bi5ZsVS/6nPzZzu015xFolFDvYjvvt83SsB0zwnuEV/9f+wvjmY+J23p/skd9eX2VNLzmYisejO5axZ/i9OHDd2vOuYLZ99hMQiPOf03efrhj7xhLub86Fd4T1id3QYseWzj5gMx45b5wyLJyrKSR8rKmMSD3vd70iPt9BrNBoejzdu3LixY8dGRkYihNRq9eeffz7p4efdd99tbW1FCJ08eXLixImenp7ffPMNk8nEc07Z2dlTpkzx9PRctGiRWCxGCEVFRa1evfqFF17YtGkTxW8flYjo06DYGKsuRoUkxQDJrvpROeHWhIaGMhgMLpcrEAhAQlHsIa1iEolEIBBwuVwGg2GSRTot//iwsLAQS6gRI0aQh0iPhXUzt2/fPnPmTKVS2dLSMnnyZKycXnzxxaSkJISQUCgcM2aMXC7HN6xiFbVixYrnnnuus7NTJpM5ODiIxWJCLZFVVHV1tYuLS0NDwyeffLJhwwaE0NGjR728vFpaWlQq1ZtvvhkbG4sQGjVqFJfLNW4SmGK8Tk5OeHKOrJ8o2uoS08rJyMiYN2+eRqNRq9Xr168/f/58bW0ti8W6c+eOSqVavHjx1q1bm5qahg0bhh+dEhIS8uGHH5KVky7t69ev29vb79+/X6suOocU4+2RlamUU/y3G0Y/85Sk9IyqRugy+mm8bPTb4STPCW5ILEpP2PLic54dt85paq8Ev7Vww99XqWqEY55hnUyLR2LR9q0b//znP9cUnKgrzGEyHItOH0BiUeQXn7y16JUBUU4IIeNYZe4M95/6nKzyQlPxaednn84/nqwbOBKLnJ4cuY33MRKLEsM3DRv6RMXFI0gseiVgWnrCFiQWjWQ48D5Zg8Qi8e8n7UcMv3sl++6VbCbDERdLDN80/UVvJBZ99N5fwzasRWJRS6lgWeCrLaUCYrXO29Mdzzn1WPsoJoO79n81tVcMyyaKc076WFEckwgh3e9Ij7fQZ2Zm+vv7y2SypqYmZ2fn/Pz89PT0F198saOjQ6PRBAcHb9iwQaVSjRkzBj+saPv27d2Dqqamrq6OyWQWFRUhhCIjI9966y2EUFxcHIvFwl9bil89ihH1OHIo2lJsibUXMyENsqt+V04IodLSUh6Px2azGQwGsSoECeoEGAwGm83m8Xim2hJu+Mtw4cIF8hAxXJg4+8477+CZIYTQxo0b16xZc/fuXXt7e2L5bNq0aQKBoKio6KmnnsJWPB5v7dq1OD1x4sSrV6/2qJwQQjExMQsWLPD09MQzMe+99953332HDbOzs/GEipOTU35+PtGePiWo9wW55JAhQ5YtW2YEqx7bdu7cOWdn5+zsbLx1ACGUkpKyZMkSXFgqleI5J2KtMC0t7bXXXiOUkz7aw4cPJ7qgx3r7mkkmQD2NWZlQOQUtnosvxjOn+xzYsRWJRfeunmA42iOxaOWy1yM2h+KzJ9PifbwnlZzNHMlwwDmddy7a2dnVFJxIjf164SszcGZ7xdnBgwepaoQmn3OijogoSZHV6nfeIGaJWst+U9UIdQPHyunGmYNILMo9uH2yx3gc7wfBb2LbkQyHq6d+wpkzp/tkJG3bFbU5cN5MMquWUsG/P/377JemXv45lVh301VO+mrvdS0P11WykwDQh0SfvoP6viO6t9CvXr2a+DVrbW1VqVQrV66MiIjAX5aTJ0/6+PiUlJSMHDkS53R2dnYPqpqa1NTUhQsX4sz29vbBgwerVKr4+PgFCxb06YvWBwSkon2i0af2WG9hU/0+a904ZQ7lZL3QH7eWt7a2fvrpp8OHDzditL322mvJycmYWHh4+Jo1a65cuTJo0CC3/36eeuqpjIyMoqIiNzc3XOzLL79cv349Tnt6el65ckWfcmpraxs2bNjmzZtx4cDAQCcnJ+zYxcXF19cX/2e0vLwcF+jrvxTj7e//4WVkZMyZM2fkyJEcDkcqlYaHh69atYoci1qt3rx58/SHHw8Pj7lz5xLKSR/tMWPGkD3QT9NhZULl9Le/LsZX3NkvTT2eykdiUV1hjv2I4Ugsmj+b/SP/C3xWeGKP87NPX8j60c1lNM5BYtGI4cNqCk5EbA61HzHczWU0/mMyHOsKc0yunKgA73Fc9crq9bkBRJg4NN3AsXK6czkLiUVnMhN9n5+MS374v29jcTmS4YDPIrHo9bkBSRGfb/nso1XLA8msKi4eUVZf3rrpH1MmT3yGNQpLLl3lpK/28guHCW8GEt3xUvj0yIrimNT3HdG9hf7111//8ccfyc2ZP38+kSMUCp2dnS9cuED8lCGERowYUVNTExERYW9v/9/fPDcmk1lXVxcfHx8cHEz21muaYkR0aPTaBtsoQJEklWDJrh4NVnIuFS9QxpYIYM00dOjQJ554wrjVur/+9a98Ph8zWb9+/Zo1a2pqaoj/kxGsDCsnoVA4adIkXPjUqVPEnqf169eHhIS4uLjgDV5r1qwh6iI8Ozk5VVRUEId9SlAZ/DExMcOHDyev0+EqqNj2qTESiWT+/PlRUVEpKSmLFi3Cts3NzdXV1Wlpac899xxe9d67dy9ZOemjTVwV+tQGA4WpxKuPVa9qwMCVlXwq/tsNBpTTymWv4/UpJBad2Bc3dcpfin/LIOac2ivO4jmnvfHfLF0wm+x2QFbrjGa1+p03iDBrCk40FZ/WDZyKchKd3IshvOT7/KFd4buiNi969T9TcdLb5+3s7NrKu3dE4b/yC4edn326IGefrnLSVzte+CM86EtQUU76WFEZkwihXr8jxMOHVq9evW3bNvwtqKmpaWpqWrlyJZFz4sSJqVOnFhcXE79v7e3teM5p7969S5cu1fr6xMfHv/vuu1qZhg+pRESThuEG2MxZKiQpBkt2BcqJIjSbLUbWTHjeF+8T72vAfD5/1qxZCoWisbFx4sSJeJ/T1KlT09LSEEINDQ0rVqxob283rJxqa2sdHBywMggJCcHKqbCwcOLEiTKZLCIi4u2330YIHTt2zNfXF69bJSYm4rmu/lZO/X0nS2xs7Jdffql5+Hn//fcjIiLu3bs3cuTImzdvqlSqoKCgrVu3xsfHL168GCHU3Nw8d+5cf39/Ys4JIdQj7QFRTvpYmUc5Hdix1cd7kvT2efU9YdDiuZv/+YHi7iWW05O//BSHtzYPGtS9z+n+tVMspyfxjIjwxJ51778zIMrJaFYHE797frJHa9lvzSWn3d2cLx7/UTdwKsop9IMVSCy6nX9sxPBh4t9P1hScGMlwwHIn7t//muX/IhKL/mfpfEyv887FyR7jr/yyh1BOPt6T8Cl9tZtQOeljRb6kGf7hMvwdIZTTwYMHn3/++dbW1ubmZnd394sXLx44cMDHx0cqlarV6qCgoM2bNysUChaLhd8xEhERMWjQoJqamvv377NYLDz5LRQK161bhxDqJ+VEn4ZhVnizqb+/v0Kh6LUkuUCvd/v++uuvPT7BQaFQ+Pv7G73pgtwGIk19bBAm+hJkV6Cc9FF6LPK//fbbQYMGDR48mLRWbvfcc8+RhwhFEB0dHW+//fazzz47ffr0jRs3/u1vf8N3e82ZM2fChAkeHh4JCQkIIcPKCSG0fv36SZMmzZ8/PzY2duLEiWq1evr06UeOHEEIKRSKyZMnHz16FCH07bff4lvMFixYgCei+ls59ffTUxobGxcvXuzq6jpu3Ljly5e3t7cjhA4cOODh4fHss8/ie+saGhr8/f09PDxeeeWVS5cuPfvss5s2bSJ+p8rKynRpD4hy0sfKPMqJuMnLY7zrmhVL8V1dR5Ojxo0d4+YyOmzD2jHPsPASFb63bsI4Fx/vSeeO7hoQ5WQ0K/U94Wfr3nMZ/bTzs0+HP9wD3mPgTk+ONLxaF877+Lm/TBg75pkftnyKJ4QykrZ5e7p7jHedO3P67fxjSCwSntjj+/zkcWPHuLs5f7k+hLi3DolFX3M/ZDjax/37X/pqN6Fy0seK+u+V4e8IoZzUavVnn33m4uLi7OwcHh5OvrfOw8NjzZo1+Abeo0ePjhs3zs3NLSwsbMyYMXfu3EEI4XvrJkyY4OPjc+7cuf5TTvRpGP5tV6lUnp6eeLe74ZJaZ4lfJK18jBEhtGTJEn3y6Pr16x4eHtQf36BbhVYO9bGhZah7SHYFykmXz2OU88svv3z44YezZ892cnLC25vs7Ozee+898hB5HHDQiZeOrTWypROvqZSTvhUfS8unsgKlbwyYh9VIhsO9qz0/FNTMMOmwojMm9fEf2Hw6EdGxJUedlpaGnwz+7rvv7ty5EyF0//59Ozu7U6dOIYQKCgqmTJlCKEXyUxj4fP4777yzcOHC0aNHBwQE4Okl4qkx33zzzdChQ93d3Q8dOqT79AeE0KJFi/BKBbkxRqdNRQN2iBvdBbZsyOFw/P39R4wY4eDgsH37dhOONqugRideOrZWAUerkXTiNY8aMPMl30B1dNSAeVgZeJy6gbj64xQdVnTGpNbwtpBDOhHRsSWHHxQUtHv3boTQ7t2733//fYRQRkbG9OnT8St7Y2NjP/nkkx6fwsDn8x0cHIqLixFCq1ev/uCDD7SeGuPt7Y3nnHSf/oAQSkxMXL58ObkldNKmogHKiU4v2Kbtjh07pk2bhm9Ps7e3P3++e1uobYaqJyo68dKx1dMci86mE6951EB/XNeN80lHDZiHFSgny/yy0fmW0bEl03B1db127RpCqLKycvLkyQihjz/+ODU1dd68eQih5cuXHz9+vMenMPD5fOLRDDk5Od7e3vjiQqzQEcpJ9+kP+GnJ5JsWyU0yIm0qGqCcjIBvyyYikehPf/qTSCRCCMXGxv75z39ua2sz4WizCnZ04qVjaxVwtBpJJ17zqAHjVE5/WFm+cuqPqI3zSYcVnTGpNbwt5JBORHRsyeEPHz4cPwMdITR+/Pjm5uZp06a1tbV5e3urVCpXV9fW1tYen8LA5/OJx6ngZyBrPTWGUE66T39ACNXW1g4fPpzcEjppU9EA5USnF2zQdurUqfgx3zg2LKFMONqsAhmdeOnYWgUcrUbSiReUkxZMA4fAygAcrVN0xqSWKws5pBMRHVty+MOGDSOU0+rVq/fv34+fnPfOO+9kZma+9NJLCKEen8LA5/PxBimE0KlTp/B2KPIdPIRy0n36AyinR10AzxAn37lmRLr/niHO4XDwGzwe9dbDlKm+e1puLfaQTrx0bC0WiIGG0YkX1IABsFqngJUWEAOHdMakAbcDeIpORHRsySGPHTsWr9bh12Wy2eyPPvoIL03MmDGDx+PhPeO6T2Hg8/lMJrOqqgoh9MEHH2ArsnLy8fHBT3PQffoDXq1zdXUlt4RO2lQ0zD3nBO+to9Pr2Laf3luXmJiItzfpttCEo03XuQXm0ImXjq0Foui1SXTiBTXQK16iALAiUPSaoDMme3U+IAXoRETHlhzsm2++iXeII4Sqq6vt7OzwLW9CodDOzu706dO4sO5TGCIjI1euXBkYGDhu3LjZs2fX1dXh1TriScVff/01g8GIi4vTffoDQigpKWnZsmXkltBJm4qG+ZRTbW0tm83mcDjwol86HU+2lUgkHA6HzWbjJxiRT/U1Td7epGtrwtGm69wCc+jES8fWAlH02iQ68YIa6BUvUQBYESh6TdAZk706H5ACdCKiY0sONiUlhVh0I+f3dzowMHDv3r2mqsVUNMynnNhsdlhYmKniBz8EgbCwMDabTRwal5g6dWpiYqI+WxOONn1VWFQ+nXjp2FoUBIqNoRMvqAGKkBFCwIo6Kzpjknot5ixJJyI6tuQYFQrFxIkTb9y4Qc7s7zR+EqZSqTRVRaaiYSblFBoayuFwTBU8+NEiwOFwQkNDtTKpH4Y8/Bgob8LRZqAWyzlFJ146tpZDgHpL6MQLaoA6Z2BFnRWdMUm9FnOWpBMRHVutGC9cuMBms/v69hUtJ9QP8dtXLl68SN2k15ImpEF29eixPeTcXltjuEBpaSmDwYBFOsOU6JyVSCQMBqO0tNQIJ4mJifgWCQO2JhwMBmqxnFN04qVjazkEqLeETrygBqhzBlbUWdEZk9RrMWdJOhHRsTVnjOapy4Q0yK76RTnxeDwul2seLo9tLVwuF9/d0CcChrc3Ea7IQ4TItOEEnXjp2FojUjrxghqg3uPAijorOmOSei3mLEknIjq25ozRPHWZkAbZVb8oJzabLRAIzMPlsa1FIBAYsdvJ19fXwPYmAiZ5iBCZNpygEy8dW2tESideUAPUexxYUWdFZ0xSr8WcJelERMfWnDGapy4T0iC76hflBEt1ZhgTeMGuTxX1ur2J8EYeIkSmDSfoxEvH1hqR0okX1AD1HgdW1FnRGZPUazFnSToR0bE1Z4zmqcuENMiu+kU5kSswD53Hs5Y+caayvYnA2CfPhJX1JujES8fWGonRiRfUAPUeB1bUWdEZk9RrMWdJOhHRsTVnjOapy4Q0yK5AOZmn+/qlFnJHGq5AJBLZ2dnhN6sYLonPUvdMxZvll6ETLx1byyej20I68YIa0OWpLwdY6SOjm09nTOp6s4QcOhHRsbWE2E3bBhPSILsC5WTabjKrN3JHGq6Y4vYmwgl1z4SJVSfoxEvH1hqh0YkX1AD1HgdW1FnRGZPUazFnSToR0bE1Z4zmqcuENMiuQDmZp/v6pRZyRxqogPr2JsLJY7VTzYgdYwQohBCwItMwnC5LdlRVn0Fi0ePwp6o+U5bsaBiIgbPAygAcrVM29h2EXySt/jX6kCZJrXrJF1xQTlpwrOmQ3JH62t2n7U2Ek8fq7kjj7lIEVgQB6omqI37SoqTHQTYhsUhalFR1xI86HK2SwEoLiIFDG/u9gl8kA33dp1M0SWrVRb7ggnLSgmNNh+SO7LHdfd3eRDh5rJ7IZdyTsYAVQYB6okHEq89b9Zgop/q8VQ2i7vfJG/cBVtS52djvFfwiUe96wyVpktRyTr7ggnLSgmNNh+SO7LHdfd3eRDh5fJ4Cj6dzjXsaO8YFrIhh02uiS1JaluzwOCzYPVyqc+iSGPOUf4wRWPU6nIgCtvQdhF8koltpJuiT1GoA+YILykkLjjUdkjtSt91GbG8iO3lM3jxI8w2AmBiwIo8cw+n6i+vEOctsftpJnLOs/uI6wyh6PQusekVEFLCZ7yD8IhF9SjNhEpLkNpAvuKCcyGSsLE3uSK2mG7e9ScsJm80OCwvTyrSlw7CwMCOew94jAWDVI5YeM6uO+DX+ttaGxVPjb2vp7HAiQwNWZBqG0zbwHYRfJMNdTP2sCUkSlZIvuKCcCCzWlyB3JLn1Rm9vIjtBCNXW1rLZbA6HY3svb5ZIJBwOh81m19bWakVt3CGwos5NKa2tOuInzllme8t2quoz4pxlVUf8lFLTjCtgRX1cWfV3EH6RqHe04ZImJ0lUR77ggnIisFhfgtyR5NYbvb2J7IRIh4aGMhgMLpcrEAisXUJJJBKBQMDlchkMRmhoKBGjqRLAijrJ+ovrypId6vNWSYuSrF1CqarPSIuS6vNWdUdEe5FOlyGw0mWiL8e6voPwi6SvH/ua398kEULkCy4opx46SK1W95BreVnkjiRaR3N7E+GHnCgtLeXxeGw2m8Fg2Fnzh8FgsNlsHo9HZ0s4mYxuGljpMtGX0yUpbRDxqo74lSU7luy0s96/smTHqiN+DSIenS3h+ijhfGBlmA/5rBV9B+EXyVTXEzOQJF9wbVA5yeXylStXuru7u7m5BQcHy2QyhNDBgwe9vb0nTZr08ssvl5SUIIS2bt364Ycf4u8bkXZ0dNyyZQuTyezo6Lhx4wabzXZ2dp41a1ZlZSVCqKysbPbs2Z6enr6+vhcuXCB/VwckTe5I3ACTbG8akFigUiAABIAAEAACFkuAfMG1QeWUkZExb948jUajVqvXr19//vz5u3fvMpnMiooKhFBiYuL06dP1KadRo0ZxuVzNw8+UKVMOHz6MENq2bduCBQsQQi+++GJSUhJCSCgUjhkzRi6XD2wfkzsSIWSq7U0DGxTUDgSAABAAAkDA0giQL7g2qJzOnTvn7OycnZ3d2dmJ0e/atSswMBCnOzs77ezsWlpaiHkmsopycnLKz89HCFVVVY0cORKbKBSK9vb2u3fv2tvbEwt506ZNEwgEA9u15I5ECJl2e9PAhga1AwEgAASAABCwHALkC64NKieEUEZGxpw5c0aOHMnhcKRS6ZYtW1atWkV0wIgRIyoqKvQpp/Lycjyr5OrqSpgghK5czpV3igAADV5JREFUuTJo0CC3/36eeuqpjIwMcgHzp8kd2R/bm8wfEdQIBIAAEAACQMACCZAvuLapnDB0iUQyf/78qKioXbt2LVq0CGdKpVI7O7u2trbw8PCQkBCcuWnTJrznycnJCS/qVVVVOTg44BkmuVxeUlJSU1NDzEJZSKcSHQnbmyykR6AZQAAIAAEgYJMEiAtu9312RITkXCLTuIQJXRnRgNjY2C+//BLvVXr//fcjIiKw6MGSKC4ubtasWQihn376KSAgACEkk8leeOEFLeWk0Wi8vb2Tk5MRQjExMXif09SpU9PS0hBCDQ0NK1asaG9vN6J5JjTBnGF7kwmRgisgAASAABAAAroEyMLGBpVTY2Pj4sWLXV1dx40bt3z5cqxvMjIyvL29PTw85s6de/v2bYSQVCqdN2+ej4/PkiVLNm7c+MEHHyCEiDknhND169enT5/+zDPPkO+tmzNnzoQJEzw8PBISEnTJmjkHdyRsbzIzdqgOCAABIAAEHjcCNq6cHp/utLOzg+1Nj093Q6RAAAgAASAwUARAOQ0UeRPXa2dn5+vra2Kn4A4IAAEgAASAABD4IwFQTn/kYbVHdnZ2IpHIapsPDQcCQAAIAAEgYB0EQDlZRz/12kpyR/ZaGAoAASAABIAAEAACxhEgX3BtcIe4cVCs0YrckdbYfmgzEAACQAAIAAGrIEC+4FqWcgoPD//4448HFuK8efOuXr2amprKYDA+/fTTiIiINWvWIIRGjhxZU1Ojr21yudzFxYV4wji5mFKp3LdvHzmHSP/jH/+IiIggDvuaIHdkX22hPBAAAkAACAABIECRAPmCa0HKqaKiYsKECcQrUygGY0SxHvUN9tPV1eXi4qLRaN5+++24uDj88ILW1tZelZNAIHjrrbd6bMzVq1fx46B0z8pkMnd3d/zUct2zveaQO7LXwlAACAABIAAEgAAQMI4A+YJrQcopJCQkKioKh5SZmenp6ens7Lxy5cquri6EUGpq6qRJk8aPHz979uzq6mr8gMrVq1evWLFiypQpr7/++vHjxxcuXOju7r5nzx7s5N///renp+df/vKXjz76CL+d19HRccuWLUwms6OjQygU+vr6uru7e3l5nT59Gpvk5uYuX77822+/dXR0dHFx+eKLL3TnnLKzs6dMmeLp6blo0SKxWIwNeTzeDz/8gBDSOtvW1jZ27FgHB4e5c+cihHTj2rZtG/Eoc+yK+r/kjqRuBSWBABAAAkAACACBPhEgX3AtRTlpNJqnn34aP6OytraWxWLduXNHpVItXrx469atTU1Nw4YNw2dDQkLw877j4+NHjx4tkUhUKpWLiwteU/vtt988PT0RQkePHvXy8mppaVGpVG+++WZsbCxCaNSoUVwuV6PRIISmTp2ampqKEEpLS8MmCKFPP/10x44dCKGlS5fu3bsXIaSlnOrq6phMZlFREUIoMjKSmGfy9/cvLS3t8WxGRgaec9KNCyFUVlb29NNP96n/iMLkjiQyIQEEgAAQAAJAAAiYlgD5gmspyqmysvLJJ5/EcaakpCxZsgSnpVIpnnNqa2vDOWlpaa+99hpCKD4+PigoCGfOnDnzwIEDCKF79+4xGAyE0Hvvvffdd9/hs9nZ2XPmzMGPCM/Pz8eZMplMpVIhhMRi8ZAhQ3Cmr6/vrVu3DCin1NTUhQsX4sLt7e2DBw9WqVQtLS1ubm54Ykz3LKGceowLIcRkMu/cuYN99ulfckf2yRAKAwEgAASAABAAAtQJkC+4lqKcLl++PGnSJBxDeHj4qlWryPGo1erNmzdPf/jBb1DByulvf/sbLjZ79uzjx48jhOrq6uzt7RFCgYGBTk5Obg8/Li4u+ImRTk5OxKai9PT0mTNn+vv7+/r6Dho0CCHU1NTk7u6OHeqbc4qIiLC3t8du3dzcmExmXV3d4cOHcUt6PEsoJ924cF0eHh6XL18mx0sxTe5IiiZQDAgAASAABIAAEOgrAfIF11KU06VLlwjllJKSsmjRIhxVc3NzdXV1Wlrac889J5FIEEJ79+7Fe4bi4+MNKKc1a9bw+XwtNMRr6e7duzds2LDi4mKEUE1NDVZOBw8exEt+Buac9u7du3TpUi23f//73/HSXo9nCeWkGxf2A8pJiyccAgEgAASAABCwKAKWqJxu375NrNbdu3dv5MiRN2/eVKlUQUFBW7dujY+PX7x4MUKoubl57ty5/v7+vc45HTt2zNfXF6/xJSYmJicnk1/oW1RU9NRTT3V1dalUqn/9619/+tOfZDIZh8NJS0vDXaVvzun+/fssFgtPXAmFwnXr1iGEJk2ahLeK93j26NGjbDZbo9HoxoXrYjKZlZWVRgwRckcaYQ4mQAAIAAEgAASAABUC5Auupcw5aTQaJycnvAccIXTgwAEPD49nn30W31vX0NDg7+/v4eHxyiuvXLp06dlnn920aZPhOSeE0Lfffotvx1uwYEFtbS1ZOSGEVq1a5ebm9uKLL+bl5c2aNWvGjBkTJkyor6/HBPUpJ+LuuQkTJvj4+Jw7d666utrLy4vgju+tI87iBURXV1dnZ2fduBBC5eXlLBYLb1onnFBMkDuSogkUAwJAAAgAASAABPpKgHzBtRTlhBBavXo18VSCvoZkveWJe/eMCIHckUaYgwkQAAJAAAgAASBAhQD5gmtByqm0tNQ8T8Kkwsg8ZTo7O93d3cvKyoyrjtyRxnkAKyAABIAAEAACQKBXAuQLrgUpJ4TQtm3bBvztK73iM2GBdevWhYeHG+2Q3JFGOwFDIAAEgAAQAAJAwDAB8gXXspST4XbDWS0C5I7UOgWHQAAIAAEgAASAgKkIkC+4oJxMRXUA/JA7cgCqhyqBABAAAkAACDweBMgX3EfKaciQIQqFwiQEyBWYxCE46ZEAcO4RC2QCASAABIAAEDAhAYVCQbxrBCH0SDmxWCzinnya9cEVnSZAiubAmSIoKAYEgAAQAAJAwGgC9fX1LBaLMH+knHx8fAoKCogTdBJwRadDj7otcKbOCkoCASAABIAAEDCOQEFBgY+PD2H7SDkFBQWlp6cTJ+gk4IpOhx51W+BMnRWUBAJAAAgAASBgHIH09PSgoCDC9pFyCgsL27BhA3GCTgKu6HToUbcFztRZQUkgAASAABAAAsYR2LBhQ1hYGGH7SDnl5uYGBAQQJ+gkGAwGfjsvHSdga5iARCJhMBiGy8BZIAAEgAAQAAJAgCaBgICA3Nxcwskj5YQQsre3N8kmcTabLRAIiDog0R8EBAIBm83uD8/gEwgAASAABIAAEMAE6uvr7e3tyTT+oJyCg4MTEhLIp41L83g8LpdrnC1YUSTA5XJ5PB7FwlAMCAABIAAEgAAQMIJAQkJCcHAw2fAPyikrK8skC3alpaWwYEembPI0XqorLS01uWdwCASAABAAAkAACBAEAgICsrKyiMM/PM8J53p5eeXl5ZFLGJcODQ3lcDjG2YJVrwQ4HE5oaGivxaAAEAACQAAIAAEgYDSBvLw8Ly8vLfM/zDkhhHbs2BEYGKhVyLhDNptN3otunBOw0iUQFhYGO5x0sUAOEAACQAAIAAHTEggMDNyxY4eWT23lhBDy8fHJzMzUKmfEYW1tLZvN5nA4cJ+dEfR6NJFIJBwOh81m19bW9lgAMoEAEAACQAAIAAGTEMjMzCQ/AJPw2YNyysrK8vDwMNU77EJDQxkMBpfLFQgEIKEI7n1KSCQSgUDA5XIZDAYs0vUJHRQGAkAACAABIGAEAblc7uHhobXDCfvpQTkhhNauXRsSEmJETT2alJaW8ng8NpvNYDDs4NN3AgwGg81m83g82BLe4wCDTCAABIAAEAACpiUQEhKydu3aHn32rJwQQn5+frGxsT3aQCYQAAJAAAgAASAABGyVQGxsrJ+fn77o9Cqn4uJiFotlqjfZ6ase8oEAEAACQAAIAAEgYDkE0tPTWSxWcXGxvibpVU4IobNnz9rb24N40scO8oEAEAACQAAIAAFbIpCenm5vb3/27FkDQRlSTlg8sVgsWLYzQBBOAQEgAASAABAAAjZAIDY2lsViGZZNPTwJUzfy4uJiPz+/kJAQU91tp1sF5AABIAAEgAAQAAJAYKAIKBSKkJAQPz8/A4t0RNt6mXMiyq1du9bDw8Mkz3kifEICCAABIAAEgAAQAAIDSyAzM9PDw0PfnXS6baOqnBBCWVlZPj4+gYGBJnk9i25TIAcIAAEgAASAABAAAmYjkJeXFxgY6OPj0+Nzm/Q1ow/KCbvYsWOHl5dXQEBAQkJCfX29Pr+QDwSAABAAAkAACAABCyRQX1+fkJAQEBDg5eWl+3KVXhvcZ+WEPWZlZQUHB9vb2wcEBGzYsCE9Pb2goKC+vh72QvVKHAoAASAABIAAEAACZiOgUCjq6+sLCgrS09M3bNgQEBBgb28fHBzcp3kmcmuNVE6Ei9zc3LCwsKCgIB8fHxaLNWTIkL4/IhssgAAQAAJAAAgAASDQLwSGDBnCYrF8fHyCgoLCwsJyc3MJDWNcgq5yMq5WsAICQAAIAAEgAASAgDUSAOVkjb0GbQYCQAAIAAEgAAQGhsD/B6Yr6nx5YrbcAAAAAElFTkSuQmCC;" vertex="1" parent="17">
                    <mxGeometry x="128.22000000000003" y="121.52000000000001" width="211.78" height="44.13" as="geometry"/>
                </mxCell>
                <mxCell id="23" style="edgeStyle=orthogonalEdgeStyle;rounded=0;orthogonalLoop=1;jettySize=auto;html=1;exitX=0.5;exitY=1;exitDx=0;exitDy=0;" edge="1" parent="17" source="19" target="19">
                    <mxGeometry relative="1" as="geometry"/>
                </mxCell>
            </root>
        </mxGraphModel>
    </diagram>
</mxfile>